<svg xmlns="http://www.w3.org/2000/svg" viewBox="0 0 254.42 214.41"><defs><style>.cls-1{fill:#f26b33;}.cls-2{fill:#231f20;}.cls-3{fill:#fae151;}.cls-4{fill:#3aa448;}.cls-5{fill:#fff;}.cls-6{fill:#7b1315;}.cls-7{fill:#ed1c24;}.cls-8{fill:#fed091;}.cls-9{fill:#e98524;}.cls-10{fill:#858485;}</style></defs><g id="Layer_2" data-name="Layer 2"><g id="Vector_Graphics" data-name="Vector Graphics"><path class="cls-1" d="M216.65,52.75a3.52,3.52,0,0,0,1.55-.36,1.67,1.67,0,0,0,.47-.33c.82-.79,8.12-7.91,9.8-13a3.08,3.08,0,0,0-.28-2.93A2.89,2.89,0,0,0,225.72,35c-3.81,0-12.66,5.81-12.85,11.34-.09,2.55.36,4.3,1.38,5.36A3.32,3.32,0,0,0,216.65,52.75Z"/><path class="cls-2" d="M225.72,36.92c.88,0,1.32.47.95,1.57-1.59,4.76-9.32,12.2-9.32,12.2a1.78,1.78,0,0,1-.7.15c-.81,0-2-.62-1.88-4.41.15-4.35,8-9.51,10.95-9.51m0-3.8c-4.46,0-14.52,6.37-14.76,13.17-.1,3.1.52,5.31,1.92,6.75a5.19,5.19,0,0,0,3.77,1.61,5.62,5.62,0,0,0,2.4-.55,3.86,3.86,0,0,0,.93-.67c.09-.08,2.09-2,4.3-4.56,3.21-3.69,5.17-6.69,6-9.17a5,5,0,0,0-.54-4.65,4.77,4.77,0,0,0-4-1.93Z"/><path class="cls-3" d="M211,47.64a1.88,1.88,0,0,0,1.05-.32c.28-.18,6.67-4.58,5.34-14.83-1.2-9.21-6.69-13.83-9.43-13.83a2.41,2.41,0,0,0-1.32.39c-1.22.81-1.24,2.33-1.27,4.63,0,1.79-.06,4.26-.75,5.56-1.71,3.2-3.15,9-3,11.21,0,.76.16,2.79,8.55,7A2,2,0,0,0,211,47.64Z"/><path class="cls-2" d="M207.91,20.57c1.44,0,6.43,3.63,7.54,12.16,1.2,9.2-4.5,13-4.5,13s-7.4-3.7-7.5-5.4,1.2-7.2,2.8-10.2.5-8.9,1.4-9.5a.48.48,0,0,1,.26-.06m0-3.81a4.24,4.24,0,0,0-2.38.71c-2.05,1.37-2.08,3.6-2.11,6.18,0,1.42,0,3.8-.53,4.69-1.73,3.25-3.4,9.53-3.24,12.22.08,1.36.23,3.89,9.6,8.58a3.8,3.8,0,0,0,3.81-.24c2.85-1.9,7.35-7.54,6.16-16.66-1.3-10-7.51-15.48-11.31-15.48Z"/><path class="cls-4" d="M185.61,93.27c19.69,0,35.7-14,35.7-31.17a27.54,27.54,0,0,0-2.81-12.16,5.34,5.34,0,0,0,.19-1.38,5.53,5.53,0,0,0-4.62-5.29c-6.73-7.74-17.31-12.34-28.46-12.34-19.69,0-35.71,14-35.71,31.17S165.92,93.27,185.61,93.27Z"/><path class="cls-2" d="M185.61,32.83c11.33,0,21.35,4.82,27.48,12.23a3.7,3.7,0,0,1,3.69,3.5,3.24,3.24,0,0,1-.36,1.48,25.94,25.94,0,0,1,3,12.06c0,16.16-15.14,29.27-33.8,29.27s-33.8-13.11-33.8-29.27,15.13-29.27,33.8-29.27m0-3.81C164.87,29,148,43.86,148,62.1s16.87,33.07,37.61,33.07,37.61-14.83,37.61-33.07a29.54,29.54,0,0,0-2.72-12.39,7.24,7.24,0,0,0,.09-1.15,7.38,7.38,0,0,0-5.49-7C208,33.69,197.08,29,185.61,29Z"/><path class="cls-5" d="M193.36,68.31c5.72,0,10.37-5.79,10.37-12.91s-4.65-12.92-10.37-12.92S183,48.27,183,55.4,187.64,68.31,193.36,68.31Z"/><path class="cls-2" d="M193.36,44.38c4.68,0,8.47,4.93,8.47,11s-3.79,11-8.47,11-8.47-4.93-8.47-11,3.79-11,8.47-11m0-3.8c-6.77,0-12.28,6.65-12.28,14.82s5.51,14.81,12.28,14.81,12.28-6.64,12.28-14.81-5.51-14.82-12.28-14.82Z"/><path class="cls-2" d="M206.91,55.12h.21a1.91,1.91,0,0,0,1.69-2.1,7.08,7.08,0,0,1,2.35-5.72,1.9,1.9,0,0,0-2.43-2.92A10.91,10.91,0,0,0,205,53.42,1.9,1.9,0,0,0,206.91,55.12Z"/><path class="cls-1" d="M205.45,54.43a2.87,2.87,0,0,0,2.33-1.27c1.06-1.52,1.05-4.12-.05-7.13-1.52-4.18-5.56-15.3-15.1-15.89-.47,0-.92,0-1.33,0-3.11,0-5.34.78-6.63,2.31a4.58,4.58,0,0,0-1,3.59,1.84,1.84,0,0,0,.53,1,7,7,0,0,0-2.49,5.05,1.88,1.88,0,0,0,.65,1.58,1.92,1.92,0,0,0,1.25.47,2.71,2.71,0,0,0,.4,0,15.33,15.33,0,0,1,3-.25,17.46,17.46,0,0,1,7.74,1.73c2.7,1.81,6.79,5,7.62,6.61,1,2,2.4,2.27,3.13,2.27Z"/><path class="cls-2" d="M191.3,32c.38,0,.78,0,1.21,0,7.75.48,11.5,9.32,13.44,14.64,1.35,3.72.58,5.84-.5,5.84-.47,0-1-.4-1.44-1.24-1.45-2.78-8.35-7.38-8.35-7.38a19.29,19.29,0,0,0-8.7-2,17.84,17.84,0,0,0-3.4.29c.48-6.17,8.35-5.08,6.05-6.05a7.6,7.6,0,0,0-2.92-.6,5.22,5.22,0,0,0-1.2.12S184.85,32,191.3,32m0-3.81c-3.7,0-6.42,1-8.09,3a6.45,6.45,0,0,0-1.46,5.14,1.86,1.86,0,0,0,.07.34,8.93,8.93,0,0,0-2.06,5.24A3.82,3.82,0,0,0,181,45.07a3.77,3.77,0,0,0,2.5,1,3.7,3.7,0,0,0,.8-.09,14.87,14.87,0,0,1,2.62-.21,15.57,15.57,0,0,1,6.78,1.48c3.11,2.09,6.37,4.85,6.9,5.84a5.4,5.4,0,0,0,4.81,3.29,4.74,4.74,0,0,0,3.89-2.08c1.45-2.07,1.51-5.22.18-8.87-1.64-4.5-6-16.47-16.77-17.14-.5,0-1,0-1.45,0Z"/><path class="cls-2" d="M202.56,56.24c0,2.94-1.25,5.33-2.79,5.33S197,59.18,197,56.24s1.25-5.32,2.78-5.32S202.56,53.3,202.56,56.24Z"/><path class="cls-2" d="M195.09,56.24c0-4.12,2-7.22,4.68-7.22s4.69,3.1,4.69,7.22-2,7.23-4.69,7.23S195.09,60.36,195.09,56.24Zm3.8,0a5.48,5.48,0,0,0,.88,3.32,5.41,5.41,0,0,0,.88-3.32,5.41,5.41,0,0,0-.88-3.32A5.48,5.48,0,0,0,198.89,56.24Z"/><path class="cls-6" d="M185.17,76s-19.73-1.3-22,12.47,4.65,16,7.07,19.92,15.45,14,15.45,14,16-6.52,24.76-34.07Z"/><path class="cls-2" d="M184.57,123.84c-1.36-1-13.38-10.37-15.9-14.46a14.89,14.89,0,0,0-2-2.27c-3.06-3.12-7.25-7.4-5.38-19,2.12-13.08,17.76-14.1,22.5-14.1.92,0,1.47,0,1.47,0l.37,0L212.8,87.28l-.49,1.57c-8.92,28.08-25.17,35-25.86,35.25l-1,.41Zm.13-46h-.87c-4,0-17.1.78-18.74,10.9-1.57,9.66,1.57,12.86,4.34,15.69a17.37,17.37,0,0,1,2.47,2.93c1.69,2.73,10,9.53,14.06,12.72a34.49,34.49,0,0,0,7.7-6c4.28-4.3,10.18-12,14.5-24.85Z"/><path class="cls-7" d="M181.77,123.84c8.9,0,16.18-4.71,18.12-11.72,1.24-4.48.2-9.28-2.93-13.5A24.32,24.32,0,0,0,183.87,90a26.41,26.41,0,0,0-7-1c-8.9,0-16.18,4.71-18.12,11.73-2.51,9.07,4.68,19,16,22.15a26.27,26.27,0,0,0,7,1Z"/><path class="cls-2" d="M176.85,90.9a24.37,24.37,0,0,1,6.51.9c10.35,2.87,16.93,11.74,14.7,19.81-1.76,6.36-8.47,10.33-16.29,10.33a24.76,24.76,0,0,1-6.51-.89c-10.35-2.87-16.93-11.74-14.7-19.82,1.76-6.36,8.47-10.33,16.29-10.33m0-3.8c-9.76,0-17.78,5.27-19.95,13.12-2.79,10.08,5,21.07,17.35,24.49a28.07,28.07,0,0,0,7.52,1c9.76,0,17.78-5.27,20-13.12,1.4-5.06.25-10.44-3.24-15.14a26.28,26.28,0,0,0-14.12-9.36,28.46,28.46,0,0,0-7.52-1Z"/><path class="cls-5" d="M224.14,104.7c2.24,0,4.07-2.32,6-4.78.34-.44.68-.86,1-1.25a24.58,24.58,0,0,0,5.07-10.35,1.9,1.9,0,0,0-1-2l-11.89-6.17a1.89,1.89,0,0,0-.87-.21,2,2,0,0,0-.92.23,1.91,1.91,0,0,0-1,1.51c-1.4,16.62-.22,20.4,1.26,22a3.06,3.06,0,0,0,2.3,1Z"/><path class="cls-2" d="M222.48,81.81,234.36,88a22.8,22.8,0,0,1-4.66,9.47c-1.73,2.08-3.93,5.35-5.56,5.35-1.92,0-3-4.55-1.66-21m0-3.81a3.74,3.74,0,0,0-1.84.48,3.79,3.79,0,0,0-2,3c-1.38,16.44-.35,21.17,1.76,23.46a5,5,0,0,0,3.7,1.66c3.16,0,5.37-2.8,7.51-5.51.34-.42.66-.84,1-1.21a26.73,26.73,0,0,0,5.48-11.23,3.8,3.8,0,0,0-2-4.06l-11.88-6.17a3.87,3.87,0,0,0-1.75-.43Z"/><path class="cls-5" d="M201.31,104.2c1.95,0,3.38-1.84,4.77-3.62,2.23-2.87,5.38-10.35,5.52-10.66a1.92,1.92,0,0,0-.54-2.2L199,77.64a1.91,1.91,0,0,0-3.13,1.46,145.3,145.3,0,0,0,1.23,18.81c.31,1.88,1,6.29,4.18,6.29Z"/><path class="cls-2" d="M197.81,79.1l12,10.08s-3.16,7.52-5.26,10.23c-1.11,1.42-2.26,2.89-3.27,2.89s-1.73-1.2-2.3-4.7a144.81,144.81,0,0,1-1.2-18.5m0-3.8a3.77,3.77,0,0,0-1.61.35A3.81,3.81,0,0,0,194,79.1a144.83,144.83,0,0,0,1.26,19.12c.35,2.15,1.28,7.88,6.05,7.88,2.88,0,4.76-2.41,6.27-4.35,2.35-3,5.43-10.28,5.77-11.09a3.8,3.8,0,0,0-1.07-4.4l-12-10.08a3.83,3.83,0,0,0-2.44-.88Z"/><path class="cls-5" d="M183.2,91.59a2.29,2.29,0,0,0,1.13-.31c1.92-1.13,6.95-6.81,8.44-8.52a1.9,1.9,0,0,0,0-2.5C184.71,71,183.07,71,182.28,71a2.13,2.13,0,0,0-2.11,1.65,51.5,51.5,0,0,0-.27,8.7c.22,7.72,1.08,8.82,1.5,9.35a2.26,2.26,0,0,0,1.8.92Z"/><path class="cls-2" d="M182.28,72.87c1.56,0,9.06,8.64,9.06,8.64s-6.17,7.07-8,8.12a.41.41,0,0,1-.17.05c-1.64,0-1.62-14.85-1.19-16.59a.26.26,0,0,1,.27-.22m0-3.8a4.08,4.08,0,0,0-4,3.09c-.52,2.08-.33,8.92-.32,9.22.22,7.69,1.09,9.43,1.9,10.46a4.11,4.11,0,0,0,5.38,1.08c2.05-1.19,6.47-6.09,8.93-8.91a3.8,3.8,0,0,0,0-5c-8.63-10-10.46-10-11.93-10Z"/><path class="cls-5" d="M202.1,119.44c2.93,0,7.31-2.69,8.16-3.23a1.91,1.91,0,0,0,.88-1.74c-.06-.9-.65-8.91-1.75-12.2a2.65,2.65,0,0,0-2.53-2.13c-2.05,0-3.57,1.81-7.68,13.06-.29.78-1.16,3.18,0,4.87A3.37,3.37,0,0,0,202.1,119.44Z"/><path class="cls-2" d="M206.86,102c.29,0,.53.26.72.83,1.06,3.16,1.66,11.73,1.66,11.73s-4.62,2.93-7.14,2.93c-1.39,0-2.15-.89-1.13-3.68,2.34-6.41,4.58-11.81,5.89-11.81m0-3.81c-3.06,0-4.7,2.93-6,5.68-1,2-2.05,4.75-3.47,8.63-.37,1-1.5,4.12.25,6.62a5.23,5.23,0,0,0,4.46,2.18c3.37,0,7.88-2.7,9.18-3.53a3.81,3.81,0,0,0,1.76-3.47c-.07-.93-.67-9.16-1.85-12.67a4.53,4.53,0,0,0-4.33-3.44Z"/><path class="cls-5" d="M180.73,122.38c3.91,0,9.66-3.89,11.63-7.08a1.86,1.86,0,0,0,.25-1.3c-.17-1.07-1.71-10.51-2.66-12.89-.39-1-1-2.51-2.69-2.51-1.9,0-3,1.26-8.76,12.9-2.12,4.28-2.55,7.16-1.37,9.07A4,4,0,0,0,180.73,122.38Z"/><path class="cls-2" d="M187.26,100.5c.4,0,.63.59.92,1.32.9,2.25,2.56,12.48,2.56,12.48-1.76,2.86-7,6.18-10,6.18-2.42,0-3.51-2.09-.52-8.13,4.58-9.27,6.2-11.85,7-11.85m0-3.81c-3.41,0-5.1,3.13-10.47,14-1.53,3.1-3.33,7.6-1.27,10.91a5.93,5.93,0,0,0,5.21,2.72c4.68,0,11-4.3,13.24-8a3.8,3.8,0,0,0,.53-2.61c-.41-2.49-1.81-10.83-2.8-13.32-.4-1-1.47-3.68-4.44-3.68Z"/><path class="cls-8" d="M182.16,135c9.18,0,14.63-2.32,17.9-4.81a8.45,8.45,0,0,0,5.75,2.05,12.79,12.79,0,0,0,9.1-4,10.86,10.86,0,0,0,2.87-8.48c-.78-9.38-8.69-9.54-14.47-9.66-.93,0-1.87,0-2.76-.09-.37,0-.74,0-1.13,0a66.92,66.92,0,0,0-11.26,1.46,46.16,46.16,0,0,1-5.4.84c-.62-1-1.84-3.75-2.68-5.63-1-2.15-1.89-4.19-2.56-5.36-1.14-2-4.54-5.72-7.93-9.36l-1.05-1.14c1.1-2,6-7.19,9.14-9.32A14.32,14.32,0,0,0,179.42,80a5.22,5.22,0,0,1,.71-.6c1.23,0,6.13,3.5,8.22,5,8.82,6.28,20.88,10.33,30.7,10.33a26,26,0,0,0,8-1.14,28.07,28.07,0,0,0,3.53-1.42,1.91,1.91,0,0,0,.92.81,9.21,9.21,0,0,0,3.58.67c5.16,0,11.94-3.68,15.47-11.92,4.14-9.66.41-21.66.25-22.17a2.41,2.41,0,0,0-.15-.33c-5.26-9.7-12.45-14.62-21.4-14.62-11.64,0-22.64,8.73-25.57,11.79-1.12,1.17-2,2.22-2.84,3.14-1.93,2.21-2.9,3.27-3.94,3.27a2.44,2.44,0,0,1-.56-.07,17.65,17.65,0,0,1-4.19-2.6,68.52,68.52,0,0,0-18.48-10,23.06,23.06,0,0,0-7.64-1.33c-8,0-16.13,4.38-23.46,12.66-4.77,5.4-8,19.33-2,28,4.58,6.64,11.87,8.95,14.95,9.65,1.34,6.49,8.45,16.56,10.51,19.38-1,9.74,6.62,14.84,10.9,16.19a1.57,1.57,0,0,0,.43.09C179,135,180.64,135,182.16,135Z"/><path class="cls-2" d="M229.29,46.55c7,0,14.17,3.36,19.73,13.62,0,0,3.73,11.72-.19,20.85-3.17,7.4-9.17,10.76-13.71,10.76a7.42,7.42,0,0,1-2.85-.53s5.58-5.4,3.91-6.33a.83.83,0,0,0-.38-.12c-1.09,0-.47,4.12-9.3,7a24,24,0,0,1-7.45,1c-9.36,0-21.09-3.93-29.59-10-5.65-4-8-5.34-9.33-5.34s-1.8,1.18-3.52,2.36c-3.53,2.42-11.17,10.24-10.05,11.54s7.82,8.19,9.31,10.79,4.65,10.62,5.77,11.73a1.45,1.45,0,0,0,1,.22c2.92,0,11.14-2.29,16.79-2.29l1,0c6.51.38,14.71-.93,15.45,8,.54,6.51-5.24,10.45-10.08,10.45a6.45,6.45,0,0,1-4.63-1.7s3.17-3.73,2.42-5.21c0-.09-.08-.12-.13-.12-.75,0-2.75,9.8-21.31,9.8-1.44,0-3-.07-4.62-.19,0,0-11.17-3.54-9.49-14.89,0,0-10.42-14-10.8-20.48,0,0-9.68-1.3-15.08-9.12S139.76,67.61,144,62.77c3.53-4,11.6-12,22-12a20.84,20.84,0,0,1,7,1.22c13.77,4.84,19.54,11.91,22.89,12.66a5,5,0,0,0,1,.11c2.68,0,4.14-2.83,8.15-7,2.74-2.85,13.2-11.2,24.2-11.2m0-3.81c-12.36,0-23.64,8.93-26.94,12.37-1.16,1.2-2.09,2.27-2.91,3.21a17.36,17.36,0,0,1-2.54,2.62l-.08,0a22.91,22.91,0,0,1-3.52-2.29,70,70,0,0,0-19-10.24A24.7,24.7,0,0,0,166.07,47c-8.58,0-17.19,4.6-24.88,13.3C136,66.09,132.53,81.19,139,90.62c4.43,6.42,11.19,9.09,15,10.13,1.81,6.41,7.59,14.86,10.12,18.37-.68,10.46,7.59,16,12.28,17.46a4.21,4.21,0,0,0,.86.16c1.69.14,3.34.2,4.91.2,7.52,0,13.43-1.44,17.85-4.36a10.73,10.73,0,0,0,5.8,1.6,14.54,14.54,0,0,0,10.5-4.65,12.91,12.91,0,0,0,3.37-9.93c-.92-11.09-10.57-11.28-16.33-11.4-.95,0-1.85,0-2.69-.08-.4,0-.82,0-1.24,0a68.69,68.69,0,0,0-11.61,1.49c-1.37.26-2.86.53-4,.69-.62-1.26-1.46-3.12-2-4.39-1-2.2-1.93-4.28-2.64-5.52-1.24-2.18-4.58-5.84-8.18-9.72h0A45.8,45.8,0,0,1,178.76,83a15.29,15.29,0,0,0,1.79-1.45,65.6,65.6,0,0,1,6.7,4.39c9.12,6.49,21.6,10.69,31.8,10.69a27.86,27.86,0,0,0,8.63-1.24c.93-.31,1.78-.63,2.56-1a5,5,0,0,0,.56.3,11.31,11.31,0,0,0,4.32.82c8,0,14.42-6.57,17.21-13.08,4.42-10.3.49-23,.32-23.49a4,4,0,0,0-.28-.67c-3.87-7.12-11-15.61-23.08-15.61Z"/><path class="cls-2" d="M229.52,58.66a8.29,8.29,0,0,0-4.69-.36c-1.83.36-1.62-2,1-3a5.43,5.43,0,0,1,6.67,3.08c.83,2.4,1.61,3.44.57,4S231.39,59.44,229.52,58.66Z"/><path class="cls-2" d="M232.85,64.27h0a2.37,2.37,0,0,0,1.06-.26c2.36-1.18,1.44-3.52.89-4.91-.15-.4-.33-.85-.51-1.38a7.35,7.35,0,0,0-6.85-4.64,6.38,6.38,0,0,0-2.3.42c-2.28.86-3.69,2.79-3.36,4.57a2.73,2.73,0,0,0,3.42,2.09,6.62,6.62,0,0,1,3.58.26c.37.15.89,1,1.2,1.55C230.59,63,231.34,64.27,232.85,64.27Z"/><path class="cls-3" d="M165.59,49.49A10.59,10.59,0,0,0,175,43l.07-.19c2.37-7.67.9-8.72.19-9.22-.19-.14-.55-.36-1-.65-1.71-1-6.92-4.19-7.61-6.77a24.52,24.52,0,0,1-.6-4c-.22-2.37-.5-5.33-3.12-5.33a3,3,0,0,0-1.07.21c-2.07.8-10.25,6.18-9.54,16.28.65,9.22,7.82,15.71,12.47,16.14C165,49.48,165.32,49.49,165.59,49.49Z"/><path class="cls-2" d="M162.92,18.74c1.47,0,.9,4.3,1.88,8,1.06,3.93,8.32,7.71,9.38,8.47s-.91,7.11-.91,7.11a8.67,8.67,0,0,1-7.68,5.32c-.22,0-.43,0-.64,0-3.33-.3-10.13-5.75-10.74-14.37s6.35-13.62,8.32-14.37a1,1,0,0,1,.39-.08m0-3.81a4.66,4.66,0,0,0-1.75.34c-3.67,1.41-11.48,7.94-10.76,18.18s8.76,17.41,14.19,17.9c.33,0,.66,0,1,0a12.48,12.48,0,0,0,11.17-7.61,3.12,3.12,0,0,0,.15-.39c1.66-5.39,2.21-9.38-.52-11.33-.28-.2-.63-.41-1.15-.73-5.66-3.43-6.62-5.08-6.76-5.63a22.73,22.73,0,0,1-.55-3.71,19.4,19.4,0,0,0-.46-3.19,4.72,4.72,0,0,0-4.55-3.87Z"/><path class="cls-2" d="M178.79,121.11l21.71.54s-2.8,12.25-1.33,15.32L197,136.7s1.06,3.06-2.8,7.32h.15c.65,0,3.26-.3,4.64-4.93l10.79,1.33-4.66,12.39-4-2.93a56.94,56.94,0,0,0-20.29-3.6h-.63l-1.46-25.18m0-3.8a3.8,3.8,0,0,0-3.8,4l1.46,25.17a3.81,3.81,0,0,0,3.8,3.58h.63a54.65,54.65,0,0,1,18.43,3.16l3.6,2.64a3.83,3.83,0,0,0,2.25.73,3.69,3.69,0,0,0,1.09-.16,3.82,3.82,0,0,0,2.48-2.3l4.66-12.39a3.82,3.82,0,0,0-.31-3.31,3.78,3.78,0,0,0-2.79-1.81l-7.52-.93c0-.1-.08-.2-.13-.3-.39-1.49.33-7.49,1.57-12.93a3.81,3.81,0,0,0-3.62-4.65l-21.71-.53Z"/><path class="cls-9" d="M201.17,149.89a57.1,57.1,0,0,0-20.92-3.6l-1.46-25.18,21.71.54s-2.8,12.25-1.33,15.32L197,136.7s1.06,3.06-2.8,7.32c0,0,3.2.4,4.79-4.92l10.79,1.33-4.66,12.39Z"/><path class="cls-2" d="M200.23,151.56a56,56,0,0,0-19.35-3.37l-2.42,0-1.69-29.05,26.1.64-.52,2.27c-1.27,5.61-2.17,12.6-1.46,14.07l.64,1.35,10.93,1.35-6.4,17Zm.08-10.39c-1.74,4.08-4.52,4.69-5.68,4.76a47,47,0,0,1,7.28,2.2l.2.09,2.15,1.58,2.93-7.78Zm-3.44-6.41a53.74,53.74,0,0,1,1.29-11.27l-17.35-.42,1.24,21.32a61.58,61.58,0,0,1,8.59.77l2.19-2.41c2.95-3.25,2.41-5.4,2.41-5.43l-1-2.89Z"/><path class="cls-2" d="M209.69,149.66a1.9,1.9,0,0,0,1-3.51l-5.46-3.47a1.91,1.91,0,1,0-2,3.22l5.46,3.46A1.92,1.92,0,0,0,209.69,149.66Z"/><path class="cls-5" d="M210.38,158.07a2.3,2.3,0,0,0,1.91-.9c1.89-2.08-.34-6.9-.84-7.89-1.8-3.64-4-4.4-5.49-4.4a4.72,4.72,0,0,0-1.23.16,4.87,4.87,0,0,0-3.55,3.8c-.24,1.33-.08,4,3.65,6.58C208.15,157.76,209.54,158.07,210.38,158.07Z"/><path class="cls-2" d="M206,146.78c1.79,0,3,1.82,3.79,3.34.85,1.72,1.95,5.17,1.06,5.84,0,0-.05.2-.43.2-.55,0-1.76-.39-4.46-2.3-4.62-3.25-2.87-6.39-.69-7a2.73,2.73,0,0,1,.73-.1m0-3.81a6.37,6.37,0,0,0-1.72.24,6.77,6.77,0,0,0-4.94,5.3c-.31,1.78-.15,5.24,4.43,8.47,3,2.12,4.94,3,6.65,3a4.34,4.34,0,0,0,3.3-1.48c1.24-1.32,1.57-3.31,1-5.92a20.61,20.61,0,0,0-1.48-4.14C210.93,143.92,208,143,206,143Z"/><path class="cls-5" d="M215.91,152.53a2.37,2.37,0,0,0,2-.91c2-2.19-.42-7.46-.95-8.54-2-3.94-4.3-4.77-5.92-4.77a5,5,0,0,0-1.31.18,5.18,5.18,0,0,0-3.79,4c-.26,1.43-.08,4.25,4,7.1C213.52,152.21,215,152.53,215.91,152.53Z"/><path class="cls-2" d="M211,140.21c2,0,3.37,2,4.21,3.71.95,1.91,2.17,5.74,1.18,6.49,0,0-.05.22-.49.22-.6,0-1.94-.44-4.94-2.55-5.13-3.62-3.19-7.11-.77-7.75a2.94,2.94,0,0,1,.81-.12m0-3.8a7,7,0,0,0-1.8.24,7.11,7.11,0,0,0-5.18,5.56c-.33,1.87-.15,5.53,4.75,9,3.22,2.28,5.36,3.25,7.13,3.25a4.38,4.38,0,0,0,3.37-1.52c1.27-1.36,1.6-3.44,1-6.18a22.43,22.43,0,0,0-1.61-4.51c-2.39-4.81-5.46-5.82-7.62-5.82Z"/><path class="cls-5" d="M219.13,142.7a2.65,2.65,0,0,0,2.47-1.29c2-2.83-2.12-8.93-2.61-9.65-2.1-3-4.38-4.6-6.78-4.6a5.64,5.64,0,0,0-2.2.46,5.89,5.89,0,0,0-3.62,5.17c-.06,1.66.62,4.85,5.77,7.47C216.45,142.45,218.19,142.7,219.13,142.7Z"/><path class="cls-2" d="M212.21,129.06c2.17,0,4,2,5.21,3.78,1.46,2.13,3.59,6.52,2.53,7.59,0,0,0,.37-.82.37s-2.58-.44-6.11-2.24c-6.79-3.46-5.06-8-2.26-9.19a3.68,3.68,0,0,1,1.45-.31m0-3.8a7.6,7.6,0,0,0-3,.61,7.82,7.82,0,0,0-4.77,6.86c-.07,2.11.72,6.12,6.8,9.23,4.61,2.34,6.61,2.64,7.84,2.64a4.51,4.51,0,0,0,4-2.09c1.74-2.45.47-5.72,0-6.86a26.51,26.51,0,0,0-2.63-5c-2.47-3.6-5.28-5.42-8.34-5.42Z"/><path class="cls-5" d="M209.38,139.74a2.71,2.71,0,0,0,2.57-1.22c1.88-2.6-2.39-7.17-2.9-7.7-1.91-2-3.86-3-5.81-3a5.62,5.62,0,0,0-2.34.52,4.85,4.85,0,0,0-3,4.58c.08,1.66,1.15,4,5.73,5.5A20,20,0,0,0,209.38,139.74Z"/><path class="cls-2" d="M203.24,129.75c1.76,0,3.35,1.26,4.43,2.39,1.4,1.45,3.52,4.51,2.66,5.36,0,0,0,.34-1,.34a18.44,18.44,0,0,1-5.16-1.2c-6.1-2-4.87-5.47-2.52-6.55a3.64,3.64,0,0,1,1.54-.34m0-3.81a7.4,7.4,0,0,0-3.13.69A6.76,6.76,0,0,0,196,133c.1,1.85,1.15,5.24,7,7.21a21.58,21.58,0,0,0,6.37,1.39,4.68,4.68,0,0,0,4.14-2c2.08-2.89-.15-7.05-3.11-10.11-2.27-2.36-4.68-3.56-7.17-3.56Z"/><path class="cls-10" d="M114.87,145.61a12.83,12.83,0,0,0,3.94-.56c7.52-2.44,15.69-15.05,16.65-16.57,1.26-1.46,8.57-10.3,7.29-16.71C141.39,105,133,95.08,123,95.08c-.45,0-.92,0-1.37.06-10.86,1-23.73,8.41-27.3,26.34-1.23,6.19,0,11.78,3.63,16.17A23.1,23.1,0,0,0,114.87,145.61Z"/><path class="cls-2" d="M123,97c9.27,0,16.8,9.52,17.92,15.16,1.18,5.89-7,15.21-7,15.21s-8.44,13.53-15.69,15.89a11.05,11.05,0,0,1-3.36.46c-8.32,0-21.69-6.85-18.71-21.85C99.59,104.59,112,97.92,121.76,97q.6-.06,1.2-.06m0-3.8c-.51,0-1,0-1.54.07-11.55,1-25.23,8.9-29,27.86-1.69,8.54,1.26,14.37,4,17.75a24.8,24.8,0,0,0,18.42,8.65,14.79,14.79,0,0,0,4.53-.65c8-2.59,16.08-14.87,17.59-17.24,1.93-2.26,9-11.15,7.63-18.22C143.13,104,134,93.18,123,93.18Z"/><path class="cls-5" d="M107.73,117.82a6.81,6.81,0,1,0-6.81-6.8A6.82,6.82,0,0,0,107.73,117.82Z"/><path class="cls-2" d="M107.73,106.11a4.91,4.91,0,1,1-4.9,4.91,4.9,4.9,0,0,1,4.9-4.91m0-3.8a8.71,8.71,0,1,0,8.71,8.71,8.72,8.72,0,0,0-8.71-8.71Z"/><path class="cls-5" d="M135.46,108.56a4.25,4.25,0,0,0,3.65-1.73,4.42,4.42,0,0,0,.16-4.39,8.72,8.72,0,0,0-3-3.45,8.45,8.45,0,0,0-4.7-1.61,4.22,4.22,0,0,0-3.65,1.73,4.37,4.37,0,0,0-.16,4.39,8.79,8.79,0,0,0,3,3.46,8.57,8.57,0,0,0,4.71,1.6Z"/><path class="cls-2" d="M131.55,99.28a6.65,6.65,0,0,1,3.62,1.27c2.23,1.54,3.29,3.87,2.37,5.2a2.41,2.41,0,0,1-2.08.91,6.68,6.68,0,0,1-3.63-1.27c-2.22-1.54-3.29-3.87-2.36-5.2a2.4,2.4,0,0,1,2.08-.91m0-3.8a6,6,0,0,0-5.55,8.81,10.71,10.71,0,0,0,3.68,4.23,10.32,10.32,0,0,0,5.78,1.94,6.15,6.15,0,0,0,5.21-2.54,6.25,6.25,0,0,0,.33-6.27,10.68,10.68,0,0,0-3.67-4.23,10.42,10.42,0,0,0-5.78-1.94Z"/><path class="cls-5" d="M103.55,143.17a5,5,0,0,0,4.76-2.71c1.22-2.62-.4-5.87-3.68-7.4a7.88,7.88,0,0,0-3.28-.75,5,5,0,0,0-4.76,2.7c-1.22,2.63.4,5.88,3.68,7.41A7.84,7.84,0,0,0,103.55,143.17Z"/><path class="cls-2" d="M101.35,134.21a5.83,5.83,0,0,1,2.47.57c2.29,1.06,3.52,3.25,2.76,4.88a3.16,3.16,0,0,1-3,1.6,5.91,5.91,0,0,1-2.48-.57c-2.28-1.06-3.51-3.25-2.76-4.88a3.2,3.2,0,0,1,3-1.6m0-3.81a7,7,0,0,0-6.49,3.81c-1.67,3.59.36,7.95,4.61,9.93a9.68,9.68,0,0,0,4.08.93,7,7,0,0,0,6.49-3.8c1.67-3.6-.36-8-4.61-9.94a10.06,10.06,0,0,0-4.08-.93Z"/><path class="cls-9" d="M135.5,153.32c1.45,0,3.11,0,14.58-29.08l.51-1.29-1.07-.88c-3.61-3-9.71-8.08-10.67-9.23-1.33-1.6-4.18-2.63-7.25-2.63a15.22,15.22,0,0,0-6.64,1.56c-5.45,2.67-17,13.88-13.24,25.76,3.9,12.38,23.25,15.73,23.44,15.77l.16,0Z"/><path class="cls-2" d="M131.6,112.11c2.72,0,4.92.9,5.79,1.94,1.44,1.73,10.92,9.49,10.92,9.49s-11,27.88-12.81,27.88h0c-1.72-.29-18.58-3.83-21.93-14.47s7.18-21,12.26-23.47a13.21,13.21,0,0,1,5.8-1.37m0-3.8a17.1,17.1,0,0,0-7.48,1.75,30.68,30.68,0,0,0-10.77,10c-4.07,6-5.27,12.28-3.45,18.06,4.25,13.48,24.74,17,24.95,17.07l.34.06h.31c2.85,0,4.2-2.47,6.18-6.48,1.17-2.38,2.65-5.66,4.41-9.77,3-6.94,5.73-14,5.76-14l1-2.59-2.15-1.76c-4.38-3.58-9.61-8-10.41-9-1.7-2-5-3.31-8.71-3.31Z"/><path class="cls-10" d="M147.63,162.84a14.26,14.26,0,0,0,7.66-1.93c5.31-3.54,8.78-14.61,9.33-16.48.7-1.5,4.41-9.93,2-14.7-2-3.86-8.5-9.21-15.64-9.21a13.17,13.17,0,0,0-4.65.84c-8.25,3.15-16.65,11.75-15.5,26.48C131.61,158.2,139.84,162.84,147.63,162.84Z"/><path class="cls-2" d="M151,122.43c6.15,0,12.16,4.67,14,8.17,2.17,4.26-2.06,13.16-2.06,13.16s-3.55,12.19-8.61,15.56a12.32,12.32,0,0,1-6.6,1.62c-6.34,0-14.16-3.43-14.93-13.25-1.09-14,7-21.76,14.28-24.55a11,11,0,0,1,4-.71m0-3.81a14.9,14.9,0,0,0-5.33,1c-8.89,3.39-17.94,12.63-16.71,28.41.9,11.57,10.05,16.75,18.72,16.75a15.94,15.94,0,0,0,8.71-2.25c2.75-1.83,5.23-5.33,7.58-10.69a64,64,0,0,0,2.48-6.68c1.06-2.29,4.64-10.85,1.89-16.25-2.52-4.93-9.86-10.25-17.34-10.25Z"/><path class="cls-5" d="M139.23,142.69a6,6,0,0,0,1.58-.21,5.81,5.81,0,0,0-1.57-11.41,6.08,6.08,0,0,0-1.58.22,5.81,5.81,0,0,0,1.57,11.4Z"/><path class="cls-2" d="M139.24,133a3.89,3.89,0,1,1-1.06.14,3.86,3.86,0,0,1,1.06-.14m0-3.81a7.75,7.75,0,0,0-2.09.29,7.71,7.71,0,0,0,2.08,15.14,7.75,7.75,0,0,0,2.09-.29,7.71,7.71,0,0,0-2.08-15.14Z"/><path class="cls-5" d="M158.43,129.61c2.13,0,3.78-1,4.33-2.57a3.88,3.88,0,0,0-.9-3.78,7.34,7.34,0,0,0-3.23-2.12,8.18,8.18,0,0,0-2.54-.44c-2.13,0-3.78,1-4.33,2.58a3.89,3.89,0,0,0,.9,3.78,7.41,7.41,0,0,0,3.23,2.11,7.8,7.8,0,0,0,2.54.44Z"/><path class="cls-2" d="M156.09,122.61a6.26,6.26,0,0,1,1.93.33c2,.7,3.35,2.26,2.94,3.48-.28.83-1.28,1.29-2.53,1.29a6,6,0,0,1-1.93-.34c-2-.7-3.35-2.25-2.94-3.48a2.49,2.49,0,0,1,2.53-1.28m0-3.81c-3,0-5.31,1.48-6.13,3.86a5.73,5.73,0,0,0,1.24,5.62,9.33,9.33,0,0,0,4.07,2.69,9.72,9.72,0,0,0,3.16.54c3,0,5.31-1.47,6.13-3.86a5.73,5.73,0,0,0-1.24-5.62,9.33,9.33,0,0,0-4.07-2.69,9.72,9.72,0,0,0-3.16-.54Z"/><path class="cls-5" d="M141.34,163c2.64,0,4.72-1.5,5.07-3.64.41-2.49-1.67-4.83-4.74-5.33a7,7,0,0,0-1.11-.09c-2.64,0-4.73,1.5-5.08,3.64-.4,2.49,1.68,4.83,4.75,5.33A6.92,6.92,0,0,0,141.34,163Z"/><path class="cls-2" d="M140.56,155.88a4.59,4.59,0,0,1,.81.07c2,.32,3.39,1.73,3.16,3.14-.19,1.22-1.55,2-3.19,2a4.59,4.59,0,0,1-.81-.07c-2-.32-3.4-1.73-3.17-3.14.2-1.22,1.56-2.05,3.2-2.05m0-3.8c-3.59,0-6.45,2.15-7,5.24-.57,3.54,2.21,6.84,6.32,7.51a9.7,9.7,0,0,0,1.42.11c3.59,0,6.45-2.15,6.95-5.23.58-3.55-2.19-6.85-6.31-7.52a8.49,8.49,0,0,0-1.42-.11Z"/><path class="cls-9" d="M187.74,137.1l-3.12-6-.5-.28a29.68,29.68,0,0,0-13.41-3.18,27.43,27.43,0,0,0-8.18,1.23c-1.39.2-9.41,1.54-13.21,7.49s-5.35,18.29-.26,22.57a11.9,11.9,0,0,0,6,2.84,8.74,8.74,0,0,1,3.63,1.4,29.89,29.89,0,0,0,9.9,3.77l1.3.23Z"/><path class="cls-2" d="M170.71,129.51a27.89,27.89,0,0,1,12.48,2.94l2.38,4.59L169,165a28.12,28.12,0,0,1-9.17-3.48c-3.8-2.53-5.54-.79-9.49-4.12s-3-14.39.63-20.09,12-6.64,12-6.64a25.51,25.51,0,0,1,7.77-1.2m0-3.8a29.54,29.54,0,0,0-8.6,1.27c-2,.3-10.3,1.91-14.4,8.33A27.42,27.42,0,0,0,144,148.1c-.28,5.56,1.1,9.92,3.89,12.26a13.6,13.6,0,0,0,6.86,3.24,7,7,0,0,1,3,1.13,31.39,31.39,0,0,0,10.62,4.06l2.59.45,1.35-2.26,16.61-28,1.08-1.82-1-1.87-2.38-4.59-.52-1-1-.55a31.82,31.82,0,0,0-14.34-3.42Z"/><path class="cls-5" d="M186.28,141.11c2.18,0,3.4-.39,4.09-1.3a2.28,2.28,0,0,0,.44-1c.74-2.9-3.94-6.36-4.93-7.05a9.09,9.09,0,0,0-5.1-1.95,4.88,4.88,0,0,0-3.44,1.37,5.21,5.21,0,0,0-1.39,5.38c.46,1.37,2,3.76,6.88,4.33A32,32,0,0,0,186.28,141.11Z"/><path class="cls-2" d="M180.78,131.7a7.54,7.54,0,0,1,4,1.61c1.74,1.22,4.65,4,4.14,5.12,0,0,.21.78-2.65.78a30.78,30.78,0,0,1-3.23-.22c-6.24-.72-6.21-4.71-4.4-6.44a3,3,0,0,1,2.13-.85m0-3.8a6.75,6.75,0,0,0-4.75,1.89,7.11,7.11,0,0,0-1.89,7.36c.61,1.81,2.51,4.93,8.47,5.62a33.4,33.4,0,0,0,3.67.24c1.89,0,4.23-.23,5.61-2a4.15,4.15,0,0,0,.76-1.67c.49-1.82-.22-3.8-2.1-5.92a22.89,22.89,0,0,0-3.57-3.18,11,11,0,0,0-6.2-2.29Z"/><path class="cls-5" d="M188.3,151.76a3.37,3.37,0,0,0,2.58-.91,2.4,2.4,0,0,0,.48-.79c1.6-3.16-3.49-8.82-4.1-9.48-2.31-2.49-4.59-3.76-6.8-3.76a5.67,5.67,0,0,0-3,.85,6.07,6.07,0,0,0-2.92,5.79c.19,1.7,1.35,4.84,7,6.77A23.37,23.37,0,0,0,188.3,151.76Z"/><path class="cls-2" d="M180.46,138.72c2,0,4,1.66,5.4,3.15,1.83,2,4.67,6.19,3.74,7.45,0,0,0,.53-1.3.53a21.08,21.08,0,0,1-6.12-1.42c-7.51-2.56-6.4-7.48-3.7-9.13a3.67,3.67,0,0,1,2-.58m0-3.8a7.51,7.51,0,0,0-4,1.13,8,8,0,0,0-3.82,7.61c.23,2.16,1.63,6.11,8.28,8.37a24.34,24.34,0,0,0,7.34,1.63,5.19,5.19,0,0,0,4-1.51,4.2,4.2,0,0,0,.83-1.28c2-4.09-2.82-9.83-4.43-11.58-2.68-2.9-5.44-4.37-8.2-4.37Z"/><path class="cls-5" d="M182.69,161.9a2.67,2.67,0,0,0,2.47-1.28c2-2.89-2.15-9.24-2.65-10-2.16-3.17-4.52-4.79-7-4.79a5.7,5.7,0,0,0-2.24.47,6.06,6.06,0,0,0-3.75,5.28c-.07,1.72.62,5,5.92,7.74C179.91,161.64,181.72,161.9,182.69,161.9Z"/><path class="cls-2" d="M175.52,147.75c2.26,0,4.16,2.12,5.41,3.95,1.51,2.23,3.71,6.82,2.59,7.92,0,0,0,.38-.83.38s-2.68-.45-6.37-2.36c-7-3.64-5.22-8.35-2.3-9.58a3.91,3.91,0,0,1,1.5-.31m0-3.81a7.71,7.71,0,0,0-3,.61,8,8,0,0,0-4.91,7c-.08,2.17.71,6.28,7,9.5,4.77,2.47,6.84,2.79,8.11,2.79a4.58,4.58,0,0,0,4-2.11c2.63-3.73-1.31-10.16-2.65-12.14-2.54-3.73-5.42-5.62-8.56-5.62Z"/><path class="cls-5" d="M173.1,169.48a2.57,2.57,0,0,0,2.4-1.27c1.84-2.72-1.93-8.5-2.38-9.18-2-2.93-4.13-4.41-6.41-4.41a5.29,5.29,0,0,0-2.09.43,5.66,5.66,0,0,0-3.46,4.93c-.06,1.59.55,4.63,5.38,7.16C170.57,169.24,172.21,169.48,173.1,169.48Z"/><path class="cls-2" d="M166.71,156.52c2,0,3.72,1.91,4.83,3.57,1.35,2,3.3,6.15,2.31,7.15,0,0,0,.34-.75.34s-2.38-.41-5.67-2.13c-6.3-3.29-4.67-7.53-2.06-8.65a3.46,3.46,0,0,1,1.34-.28m0-3.81a7.23,7.23,0,0,0-2.84.59,7.58,7.58,0,0,0-4.61,6.61c-.08,2,.65,5.9,6.4,8.91,4.35,2.27,6.26,2.56,7.44,2.56a4.46,4.46,0,0,0,4-2.06c1.69-2.38.5-5.53.08-6.62A25.14,25.14,0,0,0,174.7,158c-2.34-3.49-5-5.26-8-5.26Z"/><path class="cls-10" d="M170.61,121.29a15.26,15.26,0,0,0,4.25-13.18c-2.55-16.21-29.32-31.53-30.45-32.17l-.08,0-.07,0c-.23-.1-5.56-2.5-9.75-2.5-3.25,0-4.7,1.44-5.34,2.65-1.7,3.19.16,8.58,5.83,17,17.29,25.56,33.19,28.77,33.86,28.9l1,.19Z"/><path class="cls-2" d="M134.51,75.26c3.82,0,9,2.33,9,2.33S186.06,101.7,169.2,120c0,0-15.58-2.89-32.62-28.09-9.14-13.52-6.49-16.65-2.07-16.65m0-3.81c-4.42,0-6.3,2.3-7,3.67-2.11,4-.33,9.64,6,18.92,17.72,26.21,34.38,29.58,35.08,29.71l2.07.38,1.42-1.55a17.27,17.27,0,0,0,4.74-14.76c-1.16-7.38-6.89-15.31-17-23.58a114.28,114.28,0,0,0-14.38-10l-.14-.08-.16-.07c-.6-.27-6-2.68-10.53-2.68Z"/><path class="cls-5" d="M151,106a6.26,6.26,0,1,0-6-6.25A6.12,6.12,0,0,0,151,106Z"/><path class="cls-2" d="M151,95.36a4.36,4.36,0,1,1-4.08,4.35A4.22,4.22,0,0,1,151,95.36m0-3.81a8.16,8.16,0,1,0,7.88,8.16A8,8,0,0,0,151,91.55Z"/><path class="cls-8" d="M108.28,192.47a11.92,11.92,0,0,0,2.55-.3c1.45-.26,37.54-7.11,53.31-39.47L183,125.3a1.9,1.9,0,0,0-.56-2.7l-27.86-17.14a1.85,1.85,0,0,0-1-.29l-.21,0c-.5,0-12.19,1.46-21.26,8.81-8.48,6.89-12.57,21.48-13.24,24.06a111.17,111.17,0,0,0-13.06,25.4c-.78,1.9-7.71,19.42-3.15,26.2A6.38,6.38,0,0,0,108.28,192.47Z"/><path class="cls-2" d="M153.59,107.08l27.86,17.14-19,27.52c-15.49,32-52.08,38.57-52.08,38.57a10.11,10.11,0,0,1-2.13.26c-11.46,0-.67-26.47-.67-26.47a108.83,108.83,0,0,1,13-25.21s4-16.32,12.69-23.41,20.27-8.4,20.27-8.4m0-3.81-.43,0c-.51,0-12.75,1.53-22.24,9.23-8.6,7-12.86,21.25-13.8,24.71a114.53,114.53,0,0,0-13.06,25.5,88.36,88.36,0,0,0-3.37,10.38c-2.1,8.31-2,14.07.4,17.6a8.33,8.33,0,0,0,7.19,3.65,13.71,13.71,0,0,0,2.89-.33,85.64,85.64,0,0,0,21.2-7.63c15.15-7.72,26.7-19,33.42-32.74l18.79-27.29a3.81,3.81,0,0,0,.59-2.95,3.76,3.76,0,0,0-1.73-2.45l-27.85-17.15a3.8,3.8,0,0,0-2-.56Z"/><path class="cls-9" d="M67.27,197.62c1.46,0,2.27,0,2.27,0l.49,0,.43-.24c17-10,18.64-19.12,17-25.06-3-11.05-19.34-18.11-29.27-18.11a16.42,16.42,0,0,0-4.36.53c-12.43,3.47-24,17.18-26.83,20.77-1.1-.06-2.69-.1-4.42-.1C3,175.37,2.27,179.05,2,180.43c-.55,2.66,2.05,5,8.69,7.89C30.61,197,59,197.62,67.27,197.62Z"/><path class="cls-2" d="M58.22,156.08c15.89,0,47.21,18.59,11.28,39.61,0,0-.8,0-2.23,0-8,0-36.2-.64-55.84-9.14-18.37-7.94,1-9.3,11.18-9.3,2.65,0,4.68.09,5.28.18,0,0,12.91-17.13,26.48-20.91a14.57,14.57,0,0,1,3.85-.46m0-3.81a18.14,18.14,0,0,0-4.87.6c-12.2,3.4-23.45,16.07-27.2,20.65-1.14,0-2.45-.06-3.54-.06a97.23,97.23,0,0,0-12.29.72C5.74,174.82,1,176,.11,180.05c-1.09,5.3,6,8.37,9.81,10,20.27,8.78,49,9.46,57.35,9.46,1.46,0,2.29,0,2.32,0l1,0,.85-.49c10-5.83,21.14-15.27,17.91-27.2C86.05,159.69,69,152.27,58.22,152.27Z"/><path class="cls-2" d="M162.74,188.78l-1.13-1.88c-2-3.37-8.8-6.89-10.83-7.9-1.94-2.51-6.3-4.35-9.2-5.35,6.51-11.08,10-20.77,0-32.42-9.6-11.15-27.08-12-29.34-12a5.08,5.08,0,0,0-.89-.08c-4.82,0-14.12,6.88-20,13.25-4.48,4.88-6.61,9-6.34,12.18.6,6.94,6.1,11.53,8.75,13.74l.62.52c-.17.62-.59,1.7-1,2.69-.85,2.21-2,5.25-3.21,9.46-2.37,8.39.12,13.58,7.6,15.85,5.23,1.6,39.58,2.45,43.48,2.54h.51Z"/><path class="cls-2" d="M111.38,131.14a2.57,2.57,0,0,1,.65.08s18.47.22,28,11.34,6,19.8-1.55,32.26c0,0,8.89,2.45,10.9,5.79,0,0,8.45,4,10.45,7.34l-18.46,9.34s-37.82-.89-42.94-2.45-8.68-4.67-6.23-13.34,4.9-12.46,4.23-13.57-8.68-5.79-9.34-13.58c-.65-7.49,18.26-23.21,24.26-23.21m0-4.08c-6,0-16.17,8.14-21.47,13.91-4.88,5.32-7.18,9.94-6.86,13.73.63,7.37,6.19,12.38,9,14.75-.15.41-.33.86-.49,1.29-.82,2.13-2.06,5.35-3.27,9.65-2.66,9.41.44,15.76,9,18.36,5.38,1.63,37.62,2.47,44,2.62l1,0,.91-.46,18.46-9.34,3.91-2-2.25-3.76c-2.18-3.64-8.38-7-11.3-8.49-1.82-2.08-4.83-3.67-7.52-4.78,5.94-10.67,8.8-20.84-1.39-32.68-9.94-11.56-27.7-12.65-30.67-12.75a6.53,6.53,0,0,0-1.1-.09Z"/><path class="cls-2" d="M159.3,195.35c2.88,0,5-.08,5.8-1.9s-.68-3.71-1.5-4.71c-2.15-2.61-4.31-5-7-5a5,5,0,0,0-3.13,1.16,6.5,6.5,0,0,0-2.52,4.8,5.72,5.72,0,0,0,1,3.71,2.52,2.52,0,0,0,.38.56c.86.94,2.46,1.37,5.21,1.37Z"/><path class="cls-2" d="M156.6,185.82c1.67,0,3.33,1.67,5.43,4.22,2.88,3.5.62,3.19-3.91,3.29h-.61c-3.9,0-3.81-.93-3.81-.93-.92-.93-1.34-4,1-5.86a3,3,0,0,1,1.87-.73m0-4.08a7.05,7.05,0,0,0-4.38,1.59,8.53,8.53,0,0,0-3.31,6.28,7.82,7.82,0,0,0,1.27,4.92,4.92,4.92,0,0,0,.61.85c1.3,1.43,3.3,2,6.72,2h.7l1.12,0c3.07,0,6.24-.1,7.62-3.09s-.83-5.7-1.77-6.85c-2.38-2.89-5-5.71-8.58-5.71Z"/><path class="cls-2" d="M153.32,197.52c2.88,0,5-.07,5.8-1.9s-.68-3.7-1.5-4.7c-2.15-2.62-4.31-5-7-5a5,5,0,0,0-3.13,1.17,6.52,6.52,0,0,0-2.53,4.79,5.81,5.81,0,0,0,1,3.71,2.35,2.35,0,0,0,.39.56c.86.95,2.46,1.37,5.21,1.37Z"/><path class="cls-2" d="M150.62,188c1.67,0,3.33,1.68,5.43,4.23,2.88,3.49.62,3.18-3.91,3.29h-.61c-3.9,0-3.81-.93-3.81-.93-.92-.92-1.34-4,1-5.86a3,3,0,0,1,1.87-.73m0-4.08a7,7,0,0,0-4.38,1.6,8.53,8.53,0,0,0-3.31,6.28,7.85,7.85,0,0,0,1.27,4.91,4.56,4.56,0,0,0,.61.85c1.29,1.43,3.3,2,6.72,2h.7l1.12,0c3.07,0,6.24-.09,7.62-3.08s-.82-5.7-1.77-6.86c-2.48-3-5-5.71-8.58-5.71Z"/><path class="cls-2" d="M143.26,199.7c2.88,0,5-.08,5.8-1.9s-.67-3.71-1.5-4.7c-2.15-2.62-4.31-5-7-5a5,5,0,0,0-3.13,1.16,6.54,6.54,0,0,0-2.53,4.8,5.84,5.84,0,0,0,1,3.71,2.83,2.83,0,0,0,.39.56c.86.94,2.47,1.37,5.21,1.37Z"/><path class="cls-2" d="M140.56,190.17c1.67,0,3.33,1.67,5.43,4.22,2.88,3.5.62,3.19-3.91,3.29h-.61c-3.9,0-3.81-.93-3.81-.93-.92-.93-1.33-4,1-5.87a3.06,3.06,0,0,1,1.87-.72m0-4.08a7,7,0,0,0-4.38,1.59,8.53,8.53,0,0,0-3.31,6.28,7.82,7.82,0,0,0,1.27,4.92,4.92,4.92,0,0,0,.61.85c1.3,1.42,3.31,2,6.72,2h.7l1.12,0c3.07-.05,6.24-.1,7.62-3.09s-.82-5.7-1.77-6.85c-2.38-2.89-5-5.71-8.58-5.71Z"/><path class="cls-2" d="M136.43,186.78s3.49-.1,7,3.39"/><path class="cls-2" d="M143.42,192.22a2.07,2.07,0,0,0,1.44-.6,2,2,0,0,0,0-2.89,12.46,12.46,0,0,0-8.49-4,2,2,0,0,0-2,2.1,2,2,0,0,0,2.07,2,8.51,8.51,0,0,1,5.52,2.8A2.07,2.07,0,0,0,143.42,192.22Z"/><path class="cls-2" d="M146,183.92s3.5-.1,7,3.39"/><path class="cls-2" d="M153,189.35a2,2,0,0,0,1.44-3.48c-4.07-4.07-8.31-4-8.5-4A2,2,0,0,0,146,186h0a8.49,8.49,0,0,1,5.51,2.79A2,2,0,0,0,153,189.35Z"/><path class="cls-2" d="M130.66,201.42l-1.13-1.88c-2-3.37-8.8-6.89-10.83-7.9-1.93-2.51-6.3-4.35-9.2-5.35,6.51-11.08,10-20.77,0-32.42-9.6-11.15-27.08-12-29.34-12.05a5.08,5.08,0,0,0-.89-.08c-4.82,0-14.11,6.88-20,13.25-4.48,4.88-6.61,9-6.34,12.18.6,6.94,6.1,11.53,8.75,13.74l.62.52c-.17.61-.57,1.66-1,2.69-.85,2.22-2,5.26-3.21,9.46-2.37,8.39.12,13.58,7.6,15.86C71,211,105.37,211.88,109.27,212h.51Z"/><path class="cls-2" d="M79.3,143.78a2.57,2.57,0,0,1,.65.08s18.47.22,28,11.34,6,19.8-1.55,32.26c0,0,8.9,2.45,10.9,5.79,0,0,8.45,4,10.45,7.34l-18.46,9.34S71.5,209,66.38,207.49s-8.67-4.68-6.23-13.35,4.9-12.46,4.23-13.57S55.7,174.78,55,167c-.65-7.49,18.27-23.21,24.26-23.21m0-4.08c-6,0-16.16,8.14-21.47,13.91-4.87,5.32-7.18,9.94-6.86,13.73.63,7.38,6.19,12.38,9,14.76l-.49,1.29c-.82,2.13-2.06,5.34-3.27,9.64-2.66,9.42.44,15.76,9,18.36,5.38,1.63,37.62,2.47,44,2.62l1,0,.91-.46,18.46-9.34,3.91-2-2.25-3.76c-2.18-3.63-8.38-7-11.3-8.49-1.82-2.08-4.83-3.67-7.52-4.78,5.94-10.67,8.8-20.83-1.38-32.68-10-11.56-27.71-12.65-30.68-12.75a6.53,6.53,0,0,0-1.1-.09Z"/><path class="cls-2" d="M127.22,208c2.88,0,5-.08,5.8-1.9s-.67-3.71-1.49-4.7c-2.16-2.62-4.32-5-7-5a5,5,0,0,0-3.12,1.16,6.5,6.5,0,0,0-2.53,4.8,5.78,5.78,0,0,0,1,3.71,2.91,2.91,0,0,0,.38.56c.86.94,2.46,1.37,5.21,1.37Z"/><path class="cls-2" d="M124.52,198.46c1.67,0,3.33,1.67,5.43,4.22,2.88,3.5.62,3.19-3.91,3.29h-.61c-3.9,0-3.81-.93-3.81-.93-.92-.93-1.33-4,1-5.86a3,3,0,0,1,1.87-.73m0-4.08a7,7,0,0,0-4.38,1.6,8.5,8.5,0,0,0-3.31,6.27,7.88,7.88,0,0,0,1.27,4.92,4.5,4.5,0,0,0,.61.84c1.29,1.44,3.31,2.05,6.72,2.05h.71l1.11,0c3.07-.05,6.24-.1,7.62-3.09s-.82-5.7-1.77-6.85c-2.48-3-5-5.71-8.58-5.71Z"/><path class="cls-2" d="M121.24,210.17c2.88,0,5-.08,5.8-1.91s-.67-3.7-1.5-4.7c-2.15-2.62-4.31-5-7-5a5,5,0,0,0-3.13,1.17,6.54,6.54,0,0,0-2.53,4.8,5.8,5.8,0,0,0,1,3.7,2.31,2.31,0,0,0,.38.56c.86,1,2.47,1.37,5.21,1.37Z"/><path class="cls-2" d="M118.54,200.63c1.67,0,3.33,1.68,5.43,4.23,2.88,3.49.62,3.18-3.91,3.29h-.61c-3.9,0-3.81-.93-3.81-.93-.92-.92-1.33-4,1-5.86a3,3,0,0,1,1.87-.73m0-4.08a7,7,0,0,0-4.38,1.6,8.53,8.53,0,0,0-3.31,6.28,7.84,7.84,0,0,0,1.27,4.91,4.56,4.56,0,0,0,.61.85c1.3,1.43,3.31,2,6.72,2h.7l1.12,0c3.07,0,6.24-.09,7.62-3.08s-.82-5.71-1.77-6.85c-2.48-3-5-5.72-8.58-5.72Z"/><path class="cls-2" d="M111.18,212.34c2.88,0,5-.08,5.8-1.9s-.67-3.71-1.5-4.7c-2.15-2.62-4.31-5-7-5a5,5,0,0,0-3.14,1.16,6.52,6.52,0,0,0-2.52,4.8,5.72,5.72,0,0,0,1,3.71,2.63,2.63,0,0,0,.38.56c.86.95,2.47,1.37,5.21,1.37Z"/><path class="cls-2" d="M108.49,202.81c1.66,0,3.32,1.67,5.42,4.22,2.88,3.5.62,3.19-3.9,3.29h-.62c-3.9,0-3.81-.93-3.81-.93-.92-.93-1.33-4,1-5.86a3,3,0,0,1,1.88-.73m0-4.08a7,7,0,0,0-4.39,1.6,8.51,8.51,0,0,0-3.31,6.27,7.88,7.88,0,0,0,1.27,4.92,4.92,4.92,0,0,0,.61.85c1.3,1.43,3.31,2,6.72,2h.71l1.11,0c3.07,0,6.24-.1,7.62-3.09s-.82-5.7-1.77-6.85c-2.48-3-5-5.71-8.57-5.71Z"/><path class="cls-2" d="M104.35,199.42s3.5-.1,7,3.4"/><path class="cls-2" d="M111.34,204.86a2,2,0,0,0,1.44-.6,2,2,0,0,0,0-2.88c-4.07-4.08-8.31-4-8.49-4a2,2,0,0,0,.06,4.07h0a8.51,8.51,0,0,1,5.51,2.8A2,2,0,0,0,111.34,204.86Z"/><path class="cls-2" d="M113.91,196.56s3.49-.1,7,3.39"/><path class="cls-2" d="M120.9,202a2,2,0,0,0,1.44-3.48c-4.08-4.08-8.32-4-8.49-4a2,2,0,0,0,.09,4.08,8.48,8.48,0,0,1,5.52,2.79A2,2,0,0,0,120.9,202Z"/><path class="cls-4" d="M154.33,85l-1.77-2.13c-12.45-15-30.25-23.64-48.84-23.64-2,0-4,.1-6,.3-20.9,2.07-37.25,11.74-47.27,28-8,13-11.71,30.16-10,47a72.25,72.25,0,0,0,13.35,35.39l1.85,2.54Z"/><path class="cls-2" d="M103.72,62.07c18.26,0,35.08,8.66,46.64,22.62L56.05,168.16a69.27,69.27,0,0,1-12.82-34C40.34,105,53.56,66.76,98,62.36q2.89-.28,5.74-.29m0-5.71c-2.09,0-4.21.11-6.3.32C75.6,58.84,58.51,69,48,86c-8.37,13.56-12.18,31.33-10.45,48.75a75.17,75.17,0,0,0,13.88,36.79l3.69,5.08,4.71-4.16L154.15,89l4.14-3.66L154.76,81c-13-15.68-31.6-24.68-51-24.68Z"/><path class="cls-3" d="M100.61,79.38c4.51,0,10.58-1.84,13.27-5.87,3.41-5.12.61-10-1.07-13-.2-.36-.4-.7-.57-1-1.56-2.89-7.41-12.42-7.66-12.83a50,50,0,0,0-3.93-5.75,4.89,4.89,0,0,0-3.51-1.81c-1,0-2.73.4-3.71,3.12-1,2.89-3.19,15.14-3.6,21.49-.08,1.21-.2,2.28-.3,3.22-.45,4-.77,6.93,3.78,10.34A12.05,12.05,0,0,0,100.61,79.38Z"/><path class="cls-2" d="M97.14,41.16a3,3,0,0,1,2,1.15,52,52,0,0,1,3.69,5.44s6.06,9.85,7.6,12.73,4.82,7.28,1.74,11.9c-2,3-7.07,5-11.57,5a10.2,10.2,0,0,1-6.08-1.68c-4.51-3.38-3.08-5.44-2.66-11.8s2.56-18.37,3.48-20.93c.47-1.29,1.11-1.77,1.79-1.77m0-4.08c-3.73,0-5.25,3.42-5.62,4.47C90.41,44.62,88.22,57,87.8,63.6c-.08,1.16-.2,2.21-.3,3.13-.46,4.15-.9,8.08,4.59,12.2a14.06,14.06,0,0,0,8.52,2.49c7.22,0,12.72-3.4,15-6.78,4.11-6.17.79-12-1-15.11-.19-.35-.38-.67-.55-1-1.58-2.95-7.46-12.53-7.69-12.9a50.82,50.82,0,0,0-4.19-6.11,6.79,6.79,0,0,0-5-2.46Z"/><path class="cls-3" d="M70.31,100.29c6.57,0,14.42-6.93,15-13.23.55-6.13-4.26-9.11-7.13-10.89l-1-.63c-2.74-1.8-12.44-7.39-12.85-7.62a50,50,0,0,0-6.2-3.19,6.52,6.52,0,0,0-2.05-.36,3.59,3.59,0,0,0-2.85,1.22,4.47,4.47,0,0,0-.81,3.74c.46,3,4.41,14.83,7.08,20.61.51,1.1.92,2.09,1.27,3,1.53,3.75,2.63,6.46,8.26,7.29A8.87,8.87,0,0,0,70.31,100.29Z"/><path class="cls-2" d="M56.08,66.4a4.28,4.28,0,0,1,1.4.27,51.54,51.54,0,0,1,5.84,3s10,5.77,12.74,7.56,7.72,4.11,7.21,9.63c-.47,5.21-7.48,11.38-13,11.38a6.37,6.37,0,0,1-1-.07c-5.58-.82-5.3-3.31-8-9.1S54.84,71.71,54.43,69c-.3-2,.53-2.62,1.65-2.62m0-4.07a5.68,5.68,0,0,0-4.4,1.93,6.42,6.42,0,0,0-1.28,5.38c.5,3.22,4.47,15.13,7.25,21.15.49,1.06.89,2,1.24,2.89,1.57,3.88,3.06,7.53,9.84,8.53a10.31,10.31,0,0,0,1.58.12c7.61,0,16.36-7.76,17-15.09s-5-10.91-8.08-12.81c-.34-.21-.66-.4-1-.6C75.51,72,65.76,66.39,65.39,66.17a48.2,48.2,0,0,0-6.6-3.36,8.34,8.34,0,0,0-2.71-.48Z"/><path class="cls-3" d="M57.31,137.31a10.58,10.58,0,0,0,4.5-1.18c2.82-1.31,5.22-4.4,6.58-8.45,1.43-4.28,1.35-8.56-.2-11.47C65.41,111,59.9,111,57.83,111c-.54,0-1.07,0-1.57,0l-1.18,0c-3.3,0-14.45.66-14.93.68a51.65,51.65,0,0,0-6.92.75,4.55,4.55,0,0,0-3.52,2.87c-.28.93-.28,2.39,1.26,4.11,2.06,2.28,11.83,10,17.24,13.33,1,.64,1.92,1.25,2.7,1.79C53.13,136.11,54.88,137.31,57.31,137.31Z"/><path class="cls-2" d="M57.83,113c3,0,6.6.45,8.56,4.13,2.62,4.9-.32,14.73-5.44,17.11a8.71,8.71,0,0,1-3.64,1c-2.49,0-4.17-1.82-8-4.21-5.42-3.37-15-10.94-16.8-13s-.51-3.18,1.25-3.63a50.4,50.4,0,0,1,6.53-.69s11.53-.68,14.8-.68h0c.81,0,1.75,0,2.75,0m0-4.08c-.56,0-1.11,0-1.63,0l-1.13,0c-3.35,0-14.56.66-15,.69a49.12,49.12,0,0,0-7.37.81c-3.47.9-4.59,3-4.95,4.25s-.6,3.51,1.69,6.06S41.5,131,47.14,134.52c1,.62,1.85,1.21,2.61,1.74,2.31,1.59,4.5,3.09,7.56,3.09A12.68,12.68,0,0,0,62.67,138c3.33-1.55,6.12-5.07,7.65-9.66,1.61-4.79,1.48-9.68-.33-13.07C66.63,109,60,109,57.83,109Z"/><path class="cls-1" d="M126.63,71.45l42.62-2.59a1.84,1.84,0,0,0,.82-.26L200.7,49.94a1.76,1.76,0,0,0,.81-1.12c.39-1.74,3.77-17.15,2.31-21.79-1.26-4-4.21-13.41-15.51-16.85a49.1,49.1,0,0,0-11.66-2c-3.16-.24-5.44-.41-8.13-1.9-1.62-.89-3-1.77-4-2.48-1.82-1.2-3-2-4.28-2-1,0-2.31.47-2.91,2.72a20.63,20.63,0,0,0-.1,9.53,16.67,16.67,0,0,0-11.09,5c-.77.81-1.44,1.55-2.05,2.23-3.36,3.75-4.62,5.15-13.12,5.25a1.77,1.77,0,0,0-1.75,1.77,8.86,8.86,0,0,0,4.25,6.94,23.8,23.8,0,0,0-4.64,3c-3.73,3.16-5.11,6.81-4,10.57a.58.58,0,0,0,0,.14,7.2,7.2,0,0,0-2.15,2.5A19.09,19.09,0,0,0,121.06,57c-.4,2.16-.74,4-2.26,5.65a1.76,1.76,0,0,0,.11,2.51L125.34,71a1.75,1.75,0,0,0,1.18.45Z"/><path class="cls-2" d="M160.22,3.54c1.26,0,3.44,2,7.44,4.25,5.81,3.21,10,1,20.14,4.08s13,11.36,14.33,15.69-2.35,20.87-2.35,20.87L169.14,67.09l-42.62,2.6-6.42-5.81c3.21-3.46,2.1-7.54,4.2-11.61,1.78-3.45,7-3.72,8.57-3.72h.45a3.4,3.4,0,0,0-2.88-1.33,9.42,9.42,0,0,0-3.92,1.08c-2.22-7.41,8.53-11.86,8.53-11.86a8.82,8.82,0,0,0,3,.61,3.23,3.23,0,0,0,2.79-1.1C131,34.6,131,28.3,131,28.3c10.87-.13,11.24-2.6,16.43-8a15.21,15.21,0,0,1,11-4.52,11.27,11.27,0,0,1,1.36.07C158.27,13.1,158.15,8.16,159,5c.27-1,.65-1.41,1.21-1.41m0-3.54c-1.06,0-3.64.39-4.62,4a23,23,0,0,0-.46,8.45,18.08,18.08,0,0,0-10.3,5.35c-.79.83-1.48,1.6-2.09,2.27-3.23,3.61-4.09,4.58-11.82,4.66a3.54,3.54,0,0,0-3.5,3.54A10.4,10.4,0,0,0,130.36,35a24.35,24.35,0,0,0-2.69,1.95c-3.93,3.33-5.6,7.35-4.78,11.43a8.52,8.52,0,0,0-1.73,2.32,20.77,20.77,0,0,0-1.84,6.06c-.41,2.24-.7,3.57-1.81,4.76a3.57,3.57,0,0,0-.94,2.56,3.52,3.52,0,0,0,1.16,2.47l6.42,5.81a3.53,3.53,0,0,0,2.37.91h.22l42.62-2.59a3.59,3.59,0,0,0,1.62-.51l30.64-18.66a3.51,3.51,0,0,0,1.61-2.24c.92-4.1,3.8-17.86,2.27-22.71-1.23-3.91-4.49-14.3-16.67-18a50.34,50.34,0,0,0-12.05-2.11c-3-.23-5.05-.38-7.41-1.68-1.55-.86-2.8-1.69-3.9-2.41C163.46,1,162,0,160.22,0Z"/><path class="cls-3" d="M51.23,112.48a11.12,11.12,0,0,0,3.85-.8c2.86-1,5.46-3.84,7.14-7.7,1.76-4.06,2.07-8.26.8-11.22-2.35-5.51-7.89-5.84-11.2-6l-1.18-.08C47.38,86.35,36.2,86,35.73,86c0,0-1.51-.05-3.14-.05a25.72,25.72,0,0,0-3.78.19,4.3,4.3,0,0,0-3.54,2.38c-.33.84-.46,2.2.86,3.94C28,94.92,37,103.4,42.08,107.21c1,.73,1.81,1.41,2.54,2C46.82,111.05,48.55,112.48,51.23,112.48Z"/><path class="cls-2" d="M32.59,87.72c1.61,0,3.09.06,3.09.06s11.56.33,14.8.62,8.74-.05,10.92,5.06S59.79,108.1,54.48,110a9.52,9.52,0,0,1-3.25.69c-2.77,0-4.24-2-8.09-4.92-5.1-3.83-14-12.2-15.6-14.38s-.23-3.22,1.56-3.52a26.13,26.13,0,0,1,3.49-.17m0-3.53a25.12,25.12,0,0,0-4.07.22c-3.27.55-4.47,2.41-4.89,3.47s-.82,3.13,1.09,5.66,11,11.12,16.3,15.08c.95.71,1.76,1.38,2.48,2,2.37,2,4.42,3.66,7.73,3.66a13,13,0,0,0,4.45-.9C59,112.14,62,109,63.84,104.69c2-4.5,2.26-9.22.81-12.62C61.87,85.56,55.4,85.16,51.92,85l-1.13-.08c-3.31-.29-14.54-.62-15-.63-.06,0-1.56-.06-3.22-.06Z"/><path class="cls-3" d="M78.07,82.66c6.16,0,13.6-5.14,15-10.38,1.57-5.78-2.57-9.48-5-11.69-.31-.27-.61-.54-.88-.8-2.38-2.24-11-9.42-11.31-9.72a49,49,0,0,0-5.51-4.18,5.48,5.48,0,0,0-2.6-.76c-1.61,0-3.36,1.07-3.42,4.06s1.76,15.31,3.39,21.45c.31,1.18.53,2.23.73,3.16.87,4,1.44,6.66,6.69,8.41A9.29,9.29,0,0,0,78.07,82.66Z"/><path class="cls-2" d="M67.74,46.9a3.76,3.76,0,0,1,1.75.54,51,51,0,0,1,5.23,4S83.58,58.85,86,61.08s6.89,5.38,5.43,10.74c-1.25,4.62-8,9.07-13.31,9.07a7.41,7.41,0,0,1-2.38-.36c-5.36-1.78-4.65-4.18-6.28-10.35S66,52,66.08,49.23c0-1.72.75-2.33,1.66-2.33m0-3.53c-2.52,0-5.1,1.78-5.19,5.78-.08,3.23,1.76,15.56,3.45,21.94.3,1.14.52,2.17.72,3.08.88,4.11,1.64,7.65,7.85,9.71a11.06,11.06,0,0,0,3.5.54c7,0,15.09-5.67,16.72-11.68,1.86-6.83-3-11.15-5.57-13.46l-.84-.77C86,56.23,77.35,49,77,48.74a49.35,49.35,0,0,0-5.82-4.4,7.15,7.15,0,0,0-3.45-1Z"/><path class="cls-3" d="M56.87,143.35c2.26,0,4.12-.95,6.22-3.16s3.16-5.89,2.93-10.08c-.24-4.43-1.85-8.32-4.3-10.4a8.91,8.91,0,0,0-5.9-2.2A17.51,17.51,0,0,0,49,119.32l-1.1.46c-3,1.2-13.18,5.92-13.61,6.11a51.66,51.66,0,0,0-6.12,3.22,4.31,4.31,0,0,0-2.11,3.72c.08.89.58,2.16,2.54,3.14,2.74,1.36,14.62,4.89,20.86,6,1.2.22,2.25.46,3.18.67A18.93,18.93,0,0,0,56.87,143.35Z"/><path class="cls-2" d="M55.82,119.28a7.11,7.11,0,0,1,4.76,1.78c4.23,3.59,5.11,13.82,1.23,17.91-1.88,2-3.29,2.61-4.94,2.61s-3.85-.73-7.1-1.32c-6.27-1.14-18-4.66-20.39-5.88s-1.64-2.77-.17-3.84a51.35,51.35,0,0,1,5.83-3s10.48-4.88,13.51-6.08c1.92-.76,4.54-2.14,7.27-2.14m0-3.54a19.25,19.25,0,0,0-7.52,2l-1,.44c-3.09,1.23-13.27,6-13.67,6.15a50,50,0,0,0-6.46,3.4c-2.67,2-2.91,4.16-2.82,5.3a5.67,5.67,0,0,0,3.51,4.57c2.9,1.44,14.84,5,21.33,6.19,1.16.21,2.19.44,3.1.65a20.54,20.54,0,0,0,4.63.73c2.75,0,5.06-1.15,7.5-3.72S68,134.69,67.79,130c-.27-4.9-2.11-9.26-4.93-11.64a10.65,10.65,0,0,0-7-2.63Z"/><path class="cls-4" d="M151.87,84.8,151.2,84c-12.12-14.62-29.42-23-47.48-23-1.94,0-3.9.1-5.84.29-20.34,2-36.22,11.41-45.94,27.14-7.86,12.72-11.42,29.43-9.79,45.87a70.47,70.47,0,0,0,13,34.52l.7,1Z"/><path class="cls-2" d="M103.72,62.07c18.26,0,35.08,8.66,46.64,22.62L56.05,168.16a69.27,69.27,0,0,1-12.82-34C40.34,105,53.56,66.76,98,62.36q2.89-.28,5.74-.29m0-2.17c-2,0-4,.1-6,.29C77.09,62.24,60.91,71.8,51,87.84c-8,12.91-11.6,29.88-9.95,46.54a71.62,71.62,0,0,0,13.23,35.06l1.41,1.94,1.79-1.59,94.32-83.48,1.57-1.39L152,83.3c-12.33-14.87-29.94-23.4-48.32-23.4Z"/><path class="cls-9" d="M136.2,112.08a1,1,0,0,0,.5-.14c.08-.06,8.27-5.06,13.82-5.38a1,1,0,0,0,.81-.56.94.94,0,0,0-.13-1L140.08,91.09a.93.93,0,0,0-.74-.36H127.79a1,1,0,0,0-.88.59l-4,9.68a1,1,0,0,0,.29,1.11l12.4,9.76A.93.93,0,0,0,136.2,112.08Z"/><path class="cls-2" d="M127.79,91.68h11.55l11.12,13.93c-5.86.34-14.26,5.52-14.26,5.52l-12.4-9.77,4-9.68m0-1.9A1.92,1.92,0,0,0,126,91l-4,9.68a1.91,1.91,0,0,0,.59,2.22L135,112.62a1.91,1.91,0,0,0,2.18.13c2.22-1.37,9-5,13.37-5.24a1.91,1.91,0,0,0,1.38-3.09L140.83,90.5a1.9,1.9,0,0,0-1.49-.72Z"/><path class="cls-3" d="M100.61,78.3c4.36,0,10-1.85,12.37-5.39,3-4.57.54-8.94-1.11-11.83-.21-.37-.42-.72-.59-1-1.54-2.87-7.38-12.37-7.62-12.78a52.34,52.34,0,0,0-3.81-5.58,3.84,3.84,0,0,0-2.71-1.46c-.83,0-2,.41-2.68,2.4-.92,2.56-3.12,14.69-3.55,21.19-.08,1.24-.2,2.32-.3,3.27-.44,3.94-.7,6.31,3.35,9.35A11,11,0,0,0,100.61,78.3Z"/><path class="cls-2" d="M97.14,41.16a3,3,0,0,1,2,1.15,52,52,0,0,1,3.69,5.44s6.06,9.85,7.6,12.73,4.82,7.28,1.74,11.9c-2,3-7.07,5-11.57,5a10.2,10.2,0,0,1-6.08-1.68c-4.51-3.38-3.08-5.44-2.66-11.8s2.56-18.37,3.48-20.93c.47-1.29,1.11-1.77,1.79-1.77m0-1.9c-.93,0-2.63.39-3.58,3-1,2.89-3.19,15.12-3.59,21.46C89.89,65,89.77,66,89.66,67c-.44,4-.76,6.85,3.73,10.22a12,12,0,0,0,7.22,2.06c4.47,0,10.49-1.82,13.16-5.82,3.37-5.05.58-9.91-1.08-12.82-.2-.36-.4-.71-.57-1-1.55-2.89-7.4-12.42-7.64-12.81A52.25,52.25,0,0,0,100.55,41a4.78,4.78,0,0,0-3.41-1.76Z"/><path class="cls-3" d="M70.31,99.2c6,0,13.39-6.52,13.91-12.24.5-5.46-3.78-8.11-6.61-9.87l-1-.64c-2.71-1.79-12.38-7.36-12.79-7.59a48.94,48.94,0,0,0-6-3.09,5.28,5.28,0,0,0-1.7-.32,2.51,2.51,0,0,0-2,.85,3.42,3.42,0,0,0-.57,2.86c.41,2.69,4.26,14.4,7,20.32.52,1.13.93,2.13,1.29,3,1.49,3.67,2.39,5.88,7.41,6.62A8.2,8.2,0,0,0,70.31,99.2Z"/><path class="cls-2" d="M56.08,66.4a4.28,4.28,0,0,1,1.4.27,51.54,51.54,0,0,1,5.84,3s10,5.77,12.74,7.56,7.72,4.11,7.21,9.63c-.47,5.21-7.48,11.38-13,11.38a6.37,6.37,0,0,1-1-.07c-5.58-.82-5.3-3.31-8-9.1S54.84,71.71,54.43,69c-.3-2,.53-2.62,1.65-2.62m0-1.9a3.49,3.49,0,0,0-2.75,1.17,4.39,4.39,0,0,0-.78,3.64c.47,3,4.41,14.8,7.08,20.57.51,1.11.91,2.1,1.27,3,1.51,3.71,2.6,6.38,8.15,7.2a8.69,8.69,0,0,0,1.26.09c6.51,0,14.29-6.86,14.86-13.11.55-6-4.22-9-7.06-10.76l-1-.63c-2.74-1.8-12.43-7.38-12.83-7.61a48.92,48.92,0,0,0-6.19-3.17,6,6,0,0,0-2-.37Z"/><path class="cls-3" d="M57.31,136.23a9.61,9.61,0,0,0,4-1.09c2.56-1.19,4.75-4,6-7.81s1.26-8-.13-10.6c-2.19-4.12-6.17-4.64-9.4-4.64l-1.54,0-1.21,0c-3.27,0-14.39.65-14.86.68a50.28,50.28,0,0,0-6.72.72,3.54,3.54,0,0,0-2.75,2.12,3.2,3.2,0,0,0,1,3.07c1.82,2,11.47,9.69,17,13.14,1.05.65,2,1.27,2.74,1.81C53.67,135.16,55.22,136.23,57.31,136.23Z"/><path class="cls-2" d="M57.83,113c3,0,6.6.45,8.56,4.13,2.62,4.9-.32,14.73-5.44,17.11a8.71,8.71,0,0,1-3.64,1c-2.49,0-4.17-1.82-8-4.21-5.42-3.37-15-10.94-16.8-13s-.51-3.18,1.25-3.63a50.4,50.4,0,0,1,6.53-.69s11.53-.68,14.8-.68h0c.81,0,1.75,0,2.75,0m0-1.9-1.57,0-1.19,0c-3.28,0-14.43.66-14.89.69a48.07,48.07,0,0,0-6.92.75,4.41,4.41,0,0,0-3.42,2.77c-.27.89-.27,2.31,1.23,4,2,2.28,11.81,9.95,17.21,13.31,1,.64,1.92,1.25,2.71,1.79,2.19,1.51,3.93,2.71,6.32,2.71A10.61,10.61,0,0,0,61.75,136c2.79-1.3,5.17-4.35,6.51-8.38,1.42-4.24,1.35-8.48-.19-11.36-2.75-5.13-8.19-5.13-10.24-5.13Z"/><path class="cls-3" d="M35.74,174.56c3.16,0,7.41-1.87,8.77-4.89,1.53-3.37-.61-6-1.88-7.55l-.42-.53c-1.18-1.53-5.47-6.47-5.65-6.68a30.54,30.54,0,0,0-2.85-3,3.23,3.23,0,0,0-2-.77c-.45,0-1.95.17-2.34,2.32a76.54,76.54,0,0,0,0,12.79c.08.71.11,1.33.14,1.88.13,2.42.22,4.17,3.26,5.75A6.43,6.43,0,0,0,35.74,174.56Z"/><path class="cls-2" d="M31.75,152.53a2,2,0,0,1,1.13.49,29.56,29.56,0,0,1,2.65,2.78s4.44,5.11,5.6,6.61,3.48,3.74,2.14,6.7c-1,2.29-4.61,4.09-7.53,4.09a5.12,5.12,0,0,1-2.33-.5c-2.93-1.52-2.3-2.84-2.67-6.55a76.41,76.41,0,0,1,0-12.41c.16-.88.54-1.21,1-1.21m0-2.72a3.79,3.79,0,0,0-3.68,3.44,77.69,77.69,0,0,0,0,13.17c.07.67.1,1.25.13,1.82.13,2.42.27,4.94,4,6.87a7.69,7.69,0,0,0,3.59.81c3.66,0,8.41-2.13,10-5.69,1.87-4.14-.79-7.4-2.06-9l-.41-.51c-1.2-1.55-5.51-6.52-5.68-6.71a29.82,29.82,0,0,0-3.05-3.17,4.62,4.62,0,0,0-2.8-1.06Z"/><path class="cls-3" d="M16,181.1c2.23,0,5.23-.93,6.56-3,1.69-2.61.23-5.1-.56-6.44l-.26-.46c-.74-1.34-3.51-5.73-3.63-5.92a23.46,23.46,0,0,0-1.9-2.7,2.69,2.69,0,0,0-1.92-.95,2.23,2.23,0,0,0-2.11,1.74,61.15,61.15,0,0,0-1.57,10.09c0,.56-.08,1-.12,1.47-.19,1.93-.34,3.45,2,5.14A6,6,0,0,0,16,181.1Z"/><path class="cls-2" d="M14.26,163a1.43,1.43,0,0,1,.93.52,23.25,23.25,0,0,1,1.74,2.5s2.86,4.52,3.59,5.85,2.27,3.34.87,5.5c-.93,1.43-3.31,2.36-5.42,2.36a4.69,4.69,0,0,1-2.73-.74c-2.11-1.55-1.46-2.5-1.3-5.45a60.46,60.46,0,0,1,1.49-9.71c.21-.6.51-.83.83-.83m0-2.72A3.56,3.56,0,0,0,10.87,163a61.18,61.18,0,0,0-1.65,10.46c0,.52-.07,1-.11,1.41-.2,2-.42,4.22,2.52,6.37A7.31,7.31,0,0,0,16,182.46c2.67,0,6.08-1.11,7.7-3.6,2.15-3.31.34-6.38-.52-7.86-.09-.16-.18-.3-.25-.44-.76-1.37-3.55-5.79-3.66-6a22.11,22.11,0,0,0-2.08-2.94,4,4,0,0,0-2.9-1.37Z"/><path class="cls-9" d="M161,188.28l-.45-.75c-1.94-3.25-9.22-6.89-10.59-7.56-1.91-2.79-7.81-4.87-10.22-5.63,6.94-11.56,10.84-20.78.93-32.31-5.08-5.91-12.6-8.75-18-10.1a51.86,51.86,0,0,0-10.53-1.53,3.54,3.54,0,0,0-.75-.07c-4.28,0-13.48,6.77-19.06,12.85-2.92,3.17-6.32,7.7-6,11.24.55,6.44,5.79,10.81,8.31,12.91a11.64,11.64,0,0,1,1.15,1,14.36,14.36,0,0,1-1.14,3.57c-.84,2.19-2,5.2-3.17,9.35-2.87,10.15,2.49,13,6.77,14.35,5.17,1.58,41.61,2.45,43.16,2.49h.2Z"/><path class="cls-2" d="M111.38,131.14a2.57,2.57,0,0,1,.65.08s18.47.22,28,11.34,6,19.8-1.55,32.26c0,0,8.89,2.45,10.9,5.79,0,0,8.45,4,10.45,7.34l-18.46,9.34s-37.82-.89-42.94-2.45-8.68-4.67-6.23-13.34,4.9-12.46,4.23-13.57-8.68-5.79-9.34-13.58c-.65-7.49,18.26-23.21,24.26-23.21m0-1.63c-4.56,0-13.85,6.78-19.67,13.12-3,3.29-6.55,8-6.22,11.86.58,6.78,6,11.3,8.6,13.46.28.24.6.5.82.7a29,29,0,0,1-1,3c-.85,2.21-2,5.24-3.2,9.43-2.29,8.13.1,13.16,7.33,15.35,5.18,1.58,39.48,2.43,43.37,2.52h.41l.36-.18,18.47-9.35,1.56-.79-.9-1.5c-2-3.33-8.86-6.86-10.75-7.78-1.93-2.59-6.73-4.51-9.54-5.45,6.79-11.45,10.34-20.74.33-32.38-9.54-11.09-27-11.86-29.07-11.91a4.63,4.63,0,0,0-.85-.08Z"/><path class="cls-5" d="M159.28,194.4c2.72,0,4.36-.07,5-1.35s-.35-2.46-1.37-3.7c-2.41-2.93-4.21-4.62-6.27-4.62a4.07,4.07,0,0,0-2.54,1,5.56,5.56,0,0,0-2.17,4.1,4.8,4.8,0,0,0,.84,3.16,1.62,1.62,0,0,0,.28.42c.65.72,2.08,1.06,4.5,1.06Z"/><path class="cls-2" d="M156.6,185.82c1.67,0,3.33,1.67,5.43,4.22,2.88,3.5.62,3.19-3.91,3.29h-.61c-3.9,0-3.81-.93-3.81-.93-.92-.93-1.34-4,1-5.86a3,3,0,0,1,1.87-.73m0-2.18a5.15,5.15,0,0,0-3.21,1.19,6.65,6.65,0,0,0-2.58,4.9,5.88,5.88,0,0,0,1,3.79,2.73,2.73,0,0,0,.4.58c.9,1,2.49,1.41,5.31,1.41h.66l1.13,0c2.93-.05,5-.08,5.93-2s-.68-3.82-1.52-4.84c-2.18-2.65-4.36-5-7.11-5Z"/><path class="cls-5" d="M153.3,196.57c2.72,0,4.36-.06,5-1.35.53-1.14-.35-2.45-1.37-3.69-2-2.44-4-4.63-6.27-4.63a4.09,4.09,0,0,0-2.54,1,5.56,5.56,0,0,0-2.17,4.1,4.78,4.78,0,0,0,.84,3.15,1.4,1.4,0,0,0,.28.42c.65.72,2.08,1.06,4.5,1.06Z"/><path class="cls-2" d="M150.62,188c1.67,0,3.33,1.68,5.43,4.23,2.88,3.49.62,3.18-3.91,3.29h-.61c-3.9,0-3.81-.93-3.81-.93-.92-.92-1.34-4,1-5.86a3,3,0,0,1,1.87-.73m0-2.18a5.17,5.17,0,0,0-3.21,1.2,6.65,6.65,0,0,0-2.58,4.89,5.88,5.88,0,0,0,1,3.79,2.5,2.5,0,0,0,.4.58c.9,1,2.48,1.42,5.31,1.42h.66l1.13,0c2.93,0,5-.08,5.92-2s-.67-3.82-1.51-4.85c-2.18-2.64-4.36-5-7.11-5Z"/><path class="cls-5" d="M143.24,198.75c2.72,0,4.36-.07,5-1.35s-.35-2.46-1.37-3.7c-2.41-2.93-4.21-4.62-6.27-4.62a4.07,4.07,0,0,0-2.54,1,5.56,5.56,0,0,0-2.17,4.1,4.8,4.8,0,0,0,.84,3.16,1.62,1.62,0,0,0,.28.42c.65.72,2.08,1.05,4.5,1.05Z"/><path class="cls-2" d="M140.56,190.17c1.67,0,3.33,1.67,5.43,4.22,2.88,3.5.62,3.19-3.91,3.29h-.61c-3.9,0-3.81-.93-3.81-.93-.92-.93-1.33-4,1-5.87a3.06,3.06,0,0,1,1.87-.72m0-2.18a5.15,5.15,0,0,0-3.21,1.19,6.65,6.65,0,0,0-2.58,4.9,5.94,5.94,0,0,0,1,3.79,2.73,2.73,0,0,0,.4.58c.9,1,2.49,1.41,5.31,1.41h.66l1.13,0c2.93-.05,5-.08,5.93-2s-.68-3.82-1.52-4.84c-2.18-2.65-4.36-5-7.11-5Z"/><path class="cls-2" d="M143.42,191.26a1.05,1.05,0,0,0,.77-.32,1.09,1.09,0,0,0,0-1.53c-3.79-3.79-7.64-3.72-7.8-3.71a1.07,1.07,0,0,0-1,1.11,1.12,1.12,0,0,0,1.11,1.06c.15,0,3.12,0,6.2,3.07A1.05,1.05,0,0,0,143.42,191.26Z"/><path class="cls-2" d="M153,188.4a1.07,1.07,0,0,0,.76-.32,1.08,1.08,0,0,0,0-1.54c-3.78-3.78-7.63-3.71-7.79-3.71a1.08,1.08,0,0,0-1,1.12A1.11,1.11,0,0,0,146,185c.13,0,3.12,0,6.2,3.07A1.09,1.09,0,0,0,153,188.4Z"/><path class="cls-5" d="M54.93,168.62c11.66,0,32.05-6.46,39.89-14.49,9.77-10,14-29.37,14-31.76.37-1.69,9.78-11.82,18.68-20.62,1.31-.89,14.05-9.85,15.35-21.76.72-6.6,2.39-8.94,3.59-8.94a.9.9,0,0,1,.28,0l1.29.68.25-1.44a12.38,12.38,0,0,0-1.89-9c-1.85-2.53-4.82-4-8.82-4.47a13.48,13.48,0,0,0-1.41-.08c-9.72,0-13.32,11.23-15.7,18.67-.5,1.56-.93,2.92-1.36,4-1.13,2.82-6,5.19-11.09,7.7-5.53,2.71-11.79,5.78-15,10.28-2.94,4.1-4.13,11.73-5.38,19.81-1.37,8.87-2.8,18-6.6,21.42-5,4.47-17.72,10.93-27.45,10.93-3.64,0-6.46-.9-8.38-2.68l-.51-.47-.64.27a10.08,10.08,0,0,0-5.49,6c-.92,3.18,0,6.81,2.85,10.79C43.71,166.91,48.29,168.62,54.93,168.62Z"/><path class="cls-2" d="M136.11,57.9a11.4,11.4,0,0,1,1.29.07c11.93,1.3,9.76,12.15,9.76,12.15a1.67,1.67,0,0,0-.75-.16c-1.24,0-3.71,1.17-4.67,9.91-1.3,11.93-15,21-15,21s-19.08,18.87-19.08,21.47-4.34,21.46-13.66,31c-6.55,6.71-25.63,14.16-39.11,14.16-5.69,0-10.39-1.33-12.71-4.62-7.8-11.06,2.17-15.18,2.17-15.18,2.28,2.11,5.49,3,9.12,3,9.81,0,22.63-6.3,28.17-11.2,7.59-6.73,6.07-33,12.15-41.42s23.63-11.7,26.23-18.21c2.5-6.26,5.21-22,16.05-22m0-2.17c-10.51,0-14.25,11.68-16.73,19.41-.5,1.55-.93,2.89-1.34,3.92-1,2.44-5.85,4.83-10.56,7.14-5.64,2.76-12,5.89-15.42,10.62-3.1,4.31-4.3,12.06-5.57,20.27s-2.74,17.67-6.25,20.78c-4.92,4.35-17.27,10.65-26.73,10.65-3.36,0-5.93-.8-7.65-2.38l-1-.95-1.28.53a11.31,11.31,0,0,0-6.12,6.73c-1,3.51,0,7.45,3,11.72,2.59,3.67,7.47,5.54,14.48,5.54,13.46,0,33.22-7.2,40.67-14.82,9.28-9.5,14-28.16,14.27-32.24,1-2.22,10-11.83,18.3-20.06,1.75-1.21,14.41-10.32,15.73-22.48.72-6.55,2.22-7.78,2.48-8l2.34,1.23.57-2.85c.05-.22,1.07-5.54-2.07-9.83-2-2.78-5.26-4.43-9.58-4.9-.52-.05-1-.08-1.53-.08Z"/><path class="cls-8" d="M108.28,191.52a11.26,11.26,0,0,0,2.34-.28c.33-.06,37.16-7,52.7-39l18.91-27.46a1,1,0,0,0,.15-.74,1,1,0,0,0-.43-.61l-27.86-17.14a.89.89,0,0,0-.5-.15h-.1c-.49.06-11.92,1.43-20.77,8.61-8.48,6.88-12.48,21.81-13,23.74a111.85,111.85,0,0,0-13,25.3c-.3.73-7.62,18.87-3.26,25.35A5.44,5.44,0,0,0,108.28,191.52Z"/><path class="cls-2" d="M153.59,107.08l27.86,17.14-19,27.52c-15.49,32-52.08,38.57-52.08,38.57a10.11,10.11,0,0,1-2.13.26c-11.46,0-.67-26.47-.67-26.47a108.83,108.83,0,0,1,13-25.21s4-16.32,12.69-23.41,20.27-8.4,20.27-8.4m0-1.91-.21,0c-.5,0-12.19,1.46-21.26,8.81-8.48,6.89-12.57,21.48-13.24,24.06a111.12,111.12,0,0,0-13,25.36c-.87,2.14-7.7,19.5-3.16,26.24a6.38,6.38,0,0,0,5.61,2.81,11.5,11.5,0,0,0,2.51-.3,82.87,82.87,0,0,0,20.72-7.46c18.7-9.53,28.07-22.64,32.63-32L183,125.3a1.9,1.9,0,0,0-.56-2.7l-27.86-17.14a1.85,1.85,0,0,0-1-.29Z"/><path class="cls-2" d="M153.44,167.54h.87l-.11-1.91c-.2,0-20.43.88-39.33-17.85l-1.34,1.35C131,166.48,149.25,167.54,153.44,167.54Z"/><path class="cls-2" d="M141.35,177.94c.49,0,.78,0,.87,0l-.1-1.9c-.21,0-20.44.87-39.33-17.86l-1.34,1.35C119,176.87,137.16,177.94,141.35,177.94Z"/><path class="cls-2" d="M127.42,186.68c.49,0,.78,0,.87,0l-.11-1.9c-.2,0-20.43.88-39.32-17.85l-1.34,1.35C105,185.62,123.23,186.68,127.42,186.68Z"/><path class="cls-9" d="M128.93,200.92l-.45-.75c-1.94-3.24-9.22-6.89-10.59-7.56-1.91-2.79-7.81-4.87-10.22-5.63,7-11.56,10.84-20.78.93-32.31-5.08-5.91-12.6-8.76-18-10.1A51.89,51.89,0,0,0,80.06,143a3.7,3.7,0,0,0-.76-.07c-4.28,0-13.48,6.77-19.06,12.85-2.91,3.17-6.32,7.7-6,11.25.55,6.43,5.79,10.8,8.31,12.9a11.64,11.64,0,0,1,1.15,1,14.36,14.36,0,0,1-1.14,3.57c-.84,2.19-2,5.2-3.17,9.36-2.86,10.14,2.49,13,6.77,14.35,5.17,1.57,41.61,2.44,43.16,2.48h.21Z"/><path class="cls-2" d="M79.3,143.78a2.57,2.57,0,0,1,.65.08s18.47.22,28,11.34,6,19.8-1.55,32.26c0,0,8.9,2.45,10.9,5.79,0,0,8.45,4,10.45,7.34l-18.46,9.34S71.5,209,66.38,207.49s-8.67-4.68-6.23-13.35,4.9-12.46,4.23-13.57S55.7,174.78,55,167c-.65-7.49,18.27-23.21,24.26-23.21m0-1.63c-4.56,0-13.85,6.78-19.66,13.12-3,3.29-6.56,8-6.23,11.87.58,6.77,6,11.28,8.6,13.45l.82.7a29,29,0,0,1-1,3c-.85,2.21-2,5.23-3.2,9.42-2.29,8.14.11,13.16,7.33,15.36,5.18,1.57,39.48,2.42,43.37,2.51h.41l.37-.18L128.52,202l1.56-.79-.9-1.5c-2-3.33-8.85-6.85-10.75-7.78-1.93-2.59-6.73-4.51-9.53-5.45,6.78-11.45,10.33-20.74.32-32.38-9.54-11.09-27-11.86-29.07-11.91a4.63,4.63,0,0,0-.85-.08Z"/><path class="cls-5" d="M127.2,207c2.72,0,4.37-.07,5-1.35s-.34-2.46-1.37-3.7c-2-2.43-4-4.62-6.27-4.62a4.09,4.09,0,0,0-2.54,1,5.52,5.52,0,0,0-2.16,4.1,4.75,4.75,0,0,0,.83,3.16,1.62,1.62,0,0,0,.28.42c.65.72,2.08,1.06,4.5,1.06Z"/><path class="cls-2" d="M124.52,198.46c1.67,0,3.33,1.67,5.43,4.22,2.88,3.5.62,3.19-3.91,3.29h-.61c-3.9,0-3.81-.93-3.81-.93-.92-.93-1.33-4,1-5.86a3,3,0,0,1,1.87-.73m0-2.18a5.11,5.11,0,0,0-3.21,1.2,6.65,6.65,0,0,0-2.58,4.89,5.94,5.94,0,0,0,1,3.79,2.73,2.73,0,0,0,.4.58c.9,1,2.49,1.41,5.31,1.41h.66l1.13,0c2.93,0,5.05-.08,5.93-2s-.68-3.82-1.52-4.84c-2.18-2.64-4.36-5-7.11-5Z"/><path class="cls-5" d="M121.23,209.21c2.71,0,4.35-.06,5-1.35.5-1.08-.19-2.26-1.37-3.69-2.41-2.93-4.21-4.63-6.27-4.63a4.09,4.09,0,0,0-2.54,1,5.56,5.56,0,0,0-2.17,4.1,4.76,4.76,0,0,0,.84,3.15,1.62,1.62,0,0,0,.28.42c.65.72,2.08,1.06,4.5,1.06Z"/><path class="cls-2" d="M118.54,200.63c1.67,0,3.33,1.68,5.43,4.23,2.88,3.49.62,3.18-3.91,3.29h-.61c-3.9,0-3.81-.93-3.81-.93-.92-.92-1.33-4,1-5.86a3,3,0,0,1,1.87-.73m0-2.17a5.15,5.15,0,0,0-3.21,1.19,6.65,6.65,0,0,0-2.58,4.9,5.91,5.91,0,0,0,1,3.78,2.5,2.5,0,0,0,.4.58c.9,1,2.49,1.42,5.31,1.42h.66l1.13,0c2.93,0,5-.08,5.93-2s-.68-3.82-1.52-4.85c-2.18-2.64-4.36-5-7.11-5Z"/><path class="cls-5" d="M111.17,211.39c2.72,0,4.36-.07,5-1.35.5-1.08-.19-2.26-1.37-3.7-2-2.43-4-4.62-6.26-4.62a4.1,4.1,0,0,0-2.55,1,5.6,5.6,0,0,0-2.16,4.1,4.73,4.73,0,0,0,.83,3.16,1.62,1.62,0,0,0,.28.42c.65.72,2.08,1.06,4.5,1.06Z"/><path class="cls-2" d="M108.49,202.81c1.66,0,3.32,1.67,5.42,4.22,2.88,3.5.62,3.19-3.9,3.29h-.62c-3.9,0-3.81-.93-3.81-.93-.92-.93-1.33-4,1-5.86a3,3,0,0,1,1.88-.73m0-2.18a5.11,5.11,0,0,0-3.22,1.2,6.65,6.65,0,0,0-2.58,4.89,5.94,5.94,0,0,0,1,3.79,2.73,2.73,0,0,0,.4.58c.9,1,2.49,1.41,5.31,1.41h.66l1.13,0c2.93,0,5-.08,5.93-2s-.68-3.82-1.52-4.84c-2.18-2.64-4.36-5-7.1-5Z"/><path class="cls-2" d="M111.34,203.91a1.09,1.09,0,0,0,.77-1.86c-3.79-3.79-7.63-3.72-7.79-3.71a1.09,1.09,0,1,0,.05,2.17c.13,0,3.12,0,6.2,3.08A1.11,1.11,0,0,0,111.34,203.91Z"/><path class="cls-2" d="M120.9,201a1.09,1.09,0,0,0,.77-1.86c-3.79-3.78-7.63-3.71-7.8-3.71a1.09,1.09,0,0,0,.06,2.18c.14,0,3.12,0,6.2,3.07A1.09,1.09,0,0,0,120.9,201Z"/><path class="cls-2" d="M105.69,178.46c1.37,0,2.35-1.65,3-3.13a4.33,4.33,0,0,0,1.33,2.23,2.5,2.5,0,0,0,2.19.45.53.53,0,0,0,.41-.64.54.54,0,0,0-.64-.42,1.46,1.46,0,0,1-1.29-.25c-1-.77-1.26-2.91-1.28-3.67a.54.54,0,0,0-.48-.53.56.56,0,0,0-.59.41c-.46,1.83-1.59,4.46-2.62,4.46h-.07c-1.18-.15-2.21-2.69-2.57-4.27a.54.54,0,0,0-1.05,0c-.3,1-1.42,3.56-3,3.69s-2.76-2.58-3.09-3.63a.54.54,0,0,0-.68-.36.56.56,0,0,0-.36.68c.06.18,1.37,4.4,4,4.4H99c1.68-.13,2.79-1.73,3.41-3,.53,1.44,1.52,3.4,3,3.59Z"/><path class="cls-2" d="M101.5,183.19h0c1.48,0,2.85-1.64,3.68-2.86.29,1.19.93,2.65,2.35,2.74h.11c2.13,0,4.29-3.85,4.53-4.29a.54.54,0,1,0-1-.52c-.85,1.56-2.51,3.73-3.57,3.73h0c-1.15-.07-1.52-2.43-1.56-3.25a.54.54,0,0,0-.43-.5.55.55,0,0,0-.6.28c-.72,1.37-2.32,3.56-3.54,3.6-1,0-1.8-2.89-2-4.86a.54.54,0,1,0-1.08.11C98.54,178.33,99.15,183.19,101.5,183.19Z"/><path class="cls-2" d="M178.79,121.11l21.71.54s-2.8,12.25-1.33,15.32L197,136.7s1.06,3.06-2.8,7.32h.15c.65,0,3.26-.3,4.64-4.93l10.79,1.33-4.66,12.39-4-2.93a56.94,56.94,0,0,0-20.29-3.6h-.63l-1.46-25.18m0-3a3,3,0,0,0-3,3.17l1.47,25.17a3,3,0,0,0,3,2.82h.63a55.73,55.73,0,0,1,18.83,3.24l3.68,2.71a3,3,0,0,0,1.77.58,2.7,2.7,0,0,0,.85-.13,3,3,0,0,0,2-1.81l4.66-12.39a3,3,0,0,0-2.43-4l-8.06-1a3,3,0,0,0-.25-.75c-.5-1.36.22-7.62,1.53-13.4a3,3,0,0,0-2.84-3.65l-21.71-.54Z"/><path class="cls-9" d="M201.17,149.89a57.1,57.1,0,0,0-20.92-3.6l-1.46-25.18,21.71.54s-2.8,12.25-1.33,15.32L197,136.7s1.06,3.06-2.8,7.32c0,0,3.2.4,4.79-4.92l10.79,1.33-4.66,12.39Z"/><path class="cls-2" d="M209.69,148.64a.87.87,0,0,0,.75-.41.88.88,0,0,0-.28-1.23l-5.45-3.46a.89.89,0,0,0-1,1.5l5.46,3.46A.86.86,0,0,0,209.69,148.64Z"/><path class="cls-5" d="M210.38,156.87a1.18,1.18,0,0,0,1-.46c1.48-1.49-1-6.55-1-6.6-1.22-2.48-2.71-3.73-4.42-3.73a3.69,3.69,0,0,0-.92.12,3.65,3.65,0,0,0-2.68,2.85c-.19,1,0,3.15,3.16,5.39C207.83,156.07,209.42,156.87,210.38,156.87Z"/><path class="cls-2" d="M206,146.78c1.79,0,3,1.82,3.79,3.34.85,1.72,1.95,5.17,1.06,5.84,0,0-.05.2-.43.2-.55,0-1.76-.39-4.46-2.3-4.62-3.25-2.87-6.39-.69-7a2.73,2.73,0,0,1,.73-.1m0-1.41a4.22,4.22,0,0,0-1.1.15,4.37,4.37,0,0,0-3.2,3.41c-.21,1.21,0,3.62,3.45,6.09,3.25,2.29,4.56,2.55,5.27,2.55a1.84,1.84,0,0,0,1.53-.71c1.74-1.87-.61-6.79-.9-7.36-1.69-3.41-3.68-4.13-5-4.13Z"/><path class="cls-5" d="M215.91,151.42a1.31,1.31,0,0,0,1.11-.51c1.64-1.66-1.07-7.27-1.1-7.33-1.36-2.75-3-4.15-4.91-4.15a4.13,4.13,0,0,0-4,3.31c-.21,1.16,0,3.49,3.51,6C213.09,150.53,214.86,151.42,215.91,151.42Z"/><path class="cls-2" d="M211,140.21c2,0,3.37,2,4.21,3.71.95,1.91,2.17,5.74,1.18,6.49,0,0-.05.22-.49.22-.6,0-1.94-.44-4.94-2.55-5.13-3.62-3.19-7.11-.77-7.75a2.94,2.94,0,0,1,.81-.12m0-1.56a4.7,4.7,0,0,0-1.22.16,4.86,4.86,0,0,0-3.55,3.79c-.24,1.35-.06,4,3.83,6.76,3.61,2.54,5.06,2.84,5.84,2.84a2.06,2.06,0,0,0,1.71-.79c1.93-2.08-.67-7.54-1-8.18-1.87-3.79-4.08-4.58-5.61-4.58Z"/><path class="cls-5" d="M219.13,141.75a1.7,1.7,0,0,0,1.65-.83c1.69-2.27-2.54-8.56-2.58-8.62-1.91-2.78-3.92-4.19-6-4.19a4.56,4.56,0,0,0-1.83.39,4.94,4.94,0,0,0-3,4.32c-.05,1.44.57,4.21,5.25,6.59C215.67,141,217.81,141.75,219.13,141.75Z"/><path class="cls-2" d="M212.21,129.06c2.17,0,4,2,5.21,3.78,1.46,2.13,3.59,6.52,2.53,7.59,0,0,0,.37-.82.37s-2.58-.44-6.11-2.24c-6.79-3.46-5.06-8-2.26-9.19a3.68,3.68,0,0,1,1.45-.31m0-1.9a5.64,5.64,0,0,0-2.2.46,5.89,5.89,0,0,0-3.62,5.17c-.06,1.66.62,4.85,5.77,7.47,4.29,2.19,6,2.44,7,2.44a2.65,2.65,0,0,0,2.47-1.29c2-2.83-2.12-8.93-2.62-9.65-2.09-3-4.37-4.6-6.77-4.6Z"/><path class="cls-5" d="M209.38,138.6c1.06,0,1.46-.39,1.61-.71,1.4-1.85-2.73-6.23-2.77-6.28-1.68-1.74-3.35-2.62-5-2.62a4.49,4.49,0,0,0-1.86.41,3.75,3.75,0,0,0-2.37,3.47c.08,1.32,1,3.16,5,4.49A19.61,19.61,0,0,0,209.38,138.6Z"/><path class="cls-2" d="M203.24,129.75c1.76,0,3.35,1.26,4.43,2.39,1.4,1.45,3.52,4.51,2.66,5.36,0,0,0,.34-1,.34a18.44,18.44,0,0,1-5.16-1.2c-6.1-2-4.87-5.47-2.52-6.55a3.64,3.64,0,0,1,1.54-.34m0-1.52a5.2,5.2,0,0,0-2.18.48,4.51,4.51,0,0,0-2.8,4.21c.08,1.54,1.1,3.7,5.47,5.16a20,20,0,0,0,5.65,1.28,2.3,2.3,0,0,0,2.25-1.05c1.72-2.34-2.37-6.72-2.86-7.22-1.83-1.9-3.69-2.86-5.53-2.86Z"/><path class="cls-10" d="M114.87,144.79a12.13,12.13,0,0,0,3.69-.52C125.91,141.89,134,129.2,134.8,128c.81-.94,8.38-9.94,7.15-16.07-1.28-6.38-9.5-16-19-16-.43,0-.86,0-1.3.06-10.56,1-23.09,8.19-26.57,25.68-1.18,5.94,0,11.29,3.46,15.49A22.26,22.26,0,0,0,114.87,144.79Z"/><path class="cls-2" d="M123,97c9.27,0,16.8,9.52,17.92,15.16,1.18,5.89-7,15.21-7,15.21s-8.44,13.53-15.69,15.89a11.05,11.05,0,0,1-3.36.46c-8.32,0-21.69-6.85-18.71-21.85C99.59,104.59,112,97.92,121.76,97q.6-.06,1.2-.06m0-2.17c-.46,0-.93,0-1.4.06-11,1-23.94,8.48-27.54,26.56-1.24,6.27,0,11.93,3.69,16.39a23.38,23.38,0,0,0,17.16,8.06,13.12,13.12,0,0,0,4-.57c3.41-1.11,7.31-4.31,11.58-9.52a78.9,78.9,0,0,0,5.2-7.15,49.23,49.23,0,0,0,4-5.55c2.8-4.55,3.91-8.38,3.32-11.37-1.38-6.9-9.88-16.91-20.05-16.91h0v0Z"/><path class="cls-5" d="M107.73,116.74A5.72,5.72,0,1,0,102,111,5.73,5.73,0,0,0,107.73,116.74Z"/><path class="cls-2" d="M107.73,106.11a4.91,4.91,0,1,1-4.9,4.91,4.9,4.9,0,0,1,4.9-4.91m0-1.63a6.54,6.54,0,1,0,6.54,6.54,6.54,6.54,0,0,0-6.54-6.54Z"/><path class="cls-5" d="M135.46,107.34a3.07,3.07,0,0,0,2.64-1.2,3.16,3.16,0,0,0,.05-3.19,7.59,7.59,0,0,0-2.59-3,7.41,7.41,0,0,0-4-1.39,3.07,3.07,0,0,0-2.64,1.2,3.16,3.16,0,0,0-.06,3.19,7.55,7.55,0,0,0,2.6,3,7.39,7.39,0,0,0,4,1.39Z"/><path class="cls-2" d="M131.55,99.28a6.65,6.65,0,0,1,3.62,1.27c2.23,1.54,3.29,3.87,2.37,5.2a2.41,2.41,0,0,1-2.08.91,6.68,6.68,0,0,1-3.63-1.27c-2.22-1.54-3.29-3.87-2.36-5.2a2.4,2.4,0,0,1,2.08-.91m0-1.36a3.72,3.72,0,0,0-3.2,1.49,3.87,3.87,0,0,0-.12,3.86,8.25,8.25,0,0,0,2.83,3.24,8,8,0,0,0,4.4,1.51,3.72,3.72,0,0,0,3.2-1.49,3.87,3.87,0,0,0,.11-3.86,8.24,8.24,0,0,0-2.83-3.24,8,8,0,0,0-4.39-1.51Z"/><path class="cls-5" d="M103.55,142a3.83,3.83,0,0,0,3.68-2c.93-2-.47-4.6-3.11-5.83a6.69,6.69,0,0,0-2.77-.63,3.84,3.84,0,0,0-3.68,2c-.93,2,.46,4.6,3.1,5.83A6.63,6.63,0,0,0,103.55,142Z"/><path class="cls-2" d="M101.35,134.21a5.83,5.83,0,0,1,2.47.57c2.29,1.06,3.52,3.25,2.76,4.88a3.16,3.16,0,0,1-3,1.6,5.91,5.91,0,0,1-2.48-.57c-2.28-1.06-3.51-3.25-2.76-4.88a3.2,3.2,0,0,1,3-1.6m0-1.43A4.53,4.53,0,0,0,97,135.21c-1.11,2.38.4,5.36,3.45,6.78a7.39,7.39,0,0,0,3.08.7,4.54,4.54,0,0,0,4.33-2.43c1.11-2.38-.41-5.36-3.45-6.77a7.25,7.25,0,0,0-3.08-.71Z"/><path class="cls-9" d="M135.5,152.37c.74,0,2.46,0,13.7-28.48l.25-.65-.54-.43c-2.61-2.15-9.66-8-10.79-9.36s-3.72-2.29-6.52-2.29a14.2,14.2,0,0,0-6.22,1.47c-5.23,2.56-16.32,13.29-12.75,24.61,1.49,4.72,5.55,8.66,12.08,11.69a47.34,47.34,0,0,0,10.61,3.43h.18Z"/><path class="cls-2" d="M131.6,112.11c2.72,0,4.92.9,5.79,1.94,1.44,1.73,10.92,9.49,10.92,9.49s-11,27.88-12.81,27.88h0c-1.72-.29-18.58-3.83-21.93-14.47s7.18-21,12.26-23.47a13.21,13.21,0,0,1,5.8-1.37m0-1.9a15.22,15.22,0,0,0-6.64,1.56c-5.45,2.67-17,13.88-13.24,25.76,3.9,12.38,23.25,15.73,23.44,15.77l.18,0h.16c1.44,0,2.36-1.11,4.47-5.41,1.16-2.35,2.62-5.6,4.37-9.68,2.95-6.92,5.71-13.92,5.74-14l.51-1.29-1.07-.88c-3.62-3-9.71-8.08-10.67-9.23-1.33-1.6-4.18-2.63-7.25-2.63Z"/><path class="cls-10" d="M147.63,161.81a13.19,13.19,0,0,0,7.08-1.77c5.12-3.4,8.62-14.89,8.94-16,.42-.89,4.28-9.42,2-13.86-1.85-3.62-8-8.64-14.72-8.64a12,12,0,0,0-4.28.77c-7.9,3-15.94,11.27-14.83,25.43C132.64,158.13,140.85,161.81,147.63,161.81Z"/><path class="cls-2" d="M151,122.43c6.15,0,12.16,4.67,14,8.17,2.17,4.26-2.06,13.16-2.06,13.16s-3.55,12.19-8.61,15.56a12.32,12.32,0,0,1-6.6,1.62c-6.34,0-14.16-3.43-14.93-13.25-1.09-14,7-21.76,14.28-24.55a11,11,0,0,1,4-.71m0-1.74a12.84,12.84,0,0,0-4.59.83c-8.19,3.12-16.53,11.67-15.39,26.31.8,10.25,8.95,14.84,16.66,14.84a14,14,0,0,0,7.56-1.91c5.28-3.51,8.73-14.57,9.27-16.39.68-1.45,4.38-9.85,2-14.56C164.49,126,158,120.7,151,120.69Z"/><path class="cls-5" d="M139.23,141.44a4.7,4.7,0,0,0,1.24-.17,4.56,4.56,0,0,0-1.23-8.94,4.36,4.36,0,0,0-1.24.17,4.56,4.56,0,0,0-3.15,5.62A4.57,4.57,0,0,0,139.23,141.44Z"/><path class="cls-2" d="M139.24,133a3.89,3.89,0,1,1-1.06.14,3.86,3.86,0,0,1,1.06-.14m0-1.3a5.21,5.21,0,0,0,0,10.41,5.24,5.24,0,0,0,1.42-.2,5.2,5.2,0,0,0-1.41-10.21Z"/><path class="cls-5" d="M158.43,128.25c1.53,0,2.69-.63,3-1.65a2.53,2.53,0,0,0-.65-2.46,6,6,0,0,0-2.63-1.71,6.53,6.53,0,0,0-2.1-.36c-1.53,0-2.69.63-3,1.65a2.53,2.53,0,0,0,.65,2.46,6,6,0,0,0,2.63,1.7,6.55,6.55,0,0,0,2.1.37Z"/><path class="cls-2" d="M156.09,122.61a6.26,6.26,0,0,1,1.93.33c2,.7,3.35,2.26,2.94,3.48-.28.83-1.28,1.29-2.53,1.29a6,6,0,0,1-1.93-.34c-2-.7-3.35-2.25-2.94-3.48a2.49,2.49,0,0,1,2.53-1.28m0-1.08c-1.77,0-3.13.77-3.55,2a3.1,3.1,0,0,0,.74,3,6.49,6.49,0,0,0,2.87,1.86,7.11,7.11,0,0,0,2.28.4c1.76,0,3.12-.77,3.55-2a3.06,3.06,0,0,0-.75-3,6.42,6.42,0,0,0-2.86-1.87,7.14,7.14,0,0,0-2.28-.39Z"/><path class="cls-5" d="M141.34,161.71c2,0,3.51-1,3.76-2.53.28-1.72-1.35-3.42-3.64-3.79a5.57,5.57,0,0,0-.9-.08c-2,0-3.52,1-3.76,2.53-.28,1.72,1.35,3.42,3.64,3.8A6.82,6.82,0,0,0,141.34,161.71Z"/><path class="cls-2" d="M140.56,155.88a4.59,4.59,0,0,1,.81.07c2,.32,3.39,1.73,3.16,3.14-.19,1.22-1.55,2-3.19,2a4.59,4.59,0,0,1-.81-.07c-2-.32-3.4-1.73-3.17-3.14.2-1.22,1.56-2.05,3.2-2.05m0-1.14c-2.26,0-4,1.24-4.32,3-.34,2.06,1.47,4,4.11,4.45a6.61,6.61,0,0,0,1,.08c2.26,0,4-1.24,4.32-3,.33-2.07-1.47-4-4.11-4.46a6.71,6.71,0,0,0-1-.08Z"/><path class="cls-9" d="M186.65,137.07l-2.74-5.31-.25-.14a28.65,28.65,0,0,0-12.95-3.06,26.38,26.38,0,0,0-8,1.22c-1,.13-9,1.32-12.62,7.06-3.86,6-4.78,17.69-.45,21.33a10.89,10.89,0,0,0,5.61,2.64,9.71,9.71,0,0,1,4,1.54,28.85,28.85,0,0,0,9.54,3.63l.65.11Z"/><path class="cls-2" d="M170.71,129.51a27.89,27.89,0,0,1,12.48,2.94l2.38,4.59L169,165a28.12,28.12,0,0,1-9.17-3.48c-3.8-2.53-5.54-.79-9.49-4.12s-3-14.39.63-20.09,12-6.64,12-6.64a25.51,25.51,0,0,1,7.77-1.2m0-1.9a27.43,27.43,0,0,0-8.18,1.23c-1.39.2-9.41,1.54-13.21,7.49s-5.35,18.29-.26,22.57a11.9,11.9,0,0,0,6,2.84,8.74,8.74,0,0,1,3.63,1.4,29.89,29.89,0,0,0,9.9,3.77l1.3.23.67-1.13,16.61-28,.54-.91-.48-.94-2.38-4.58-.26-.51-.5-.28a29.68,29.68,0,0,0-13.41-3.18Z"/><path class="cls-5" d="M186.28,140c1.74,0,2.76-.27,3.2-.86a1.1,1.1,0,0,0,.23-.56c.65-2.24-4.42-5.87-4.47-5.91a8.06,8.06,0,0,0-4.46-1.74,3.77,3.77,0,0,0-2.67,1.06,4.11,4.11,0,0,0-1.1,4.21c.38,1.12,1.65,3.08,6,3.58A32,32,0,0,0,186.28,140Z"/><path class="cls-2" d="M180.78,131.7a7.54,7.54,0,0,1,4,1.61c1.74,1.22,4.65,4,4.14,5.12,0,0,.21.78-2.65.78a30.78,30.78,0,0,1-3.23-.22c-6.24-.72-6.21-4.71-4.4-6.44a3,3,0,0,1,2.13-.85m0-1.56a4.56,4.56,0,0,0-3.21,1.28,4.85,4.85,0,0,0-1.3,5c.44,1.3,1.87,3.56,6.6,4.1a28.86,28.86,0,0,0,3.41.23c2,0,3.22-.36,3.83-1.16a2,2,0,0,0,.37-.88c.7-2.75-4.2-6.3-4.79-6.71a8.83,8.83,0,0,0-4.91-1.88Z"/><path class="cls-5" d="M188.3,150.84a2.49,2.49,0,0,0,1.91-.62,1.32,1.32,0,0,0,.31-.52c1.4-2.6-3.88-8.44-3.93-8.5-2.13-2.3-4.19-3.47-6.13-3.47a4.79,4.79,0,0,0-2.49.72,5.13,5.13,0,0,0-2.49,4.91c.16,1.48,1.21,4.24,6.38,6A22.78,22.78,0,0,0,188.3,150.84Z"/><path class="cls-2" d="M180.46,138.72c2,0,4,1.66,5.4,3.15,1.83,2,4.67,6.19,3.74,7.45,0,0,0,.53-1.3.53a21.08,21.08,0,0,1-6.12-1.42c-7.51-2.56-6.4-7.48-3.7-9.13a3.67,3.67,0,0,1,2-.58m0-2a5.73,5.73,0,0,0-3,.86,6.17,6.17,0,0,0-3,5.86c.19,1.73,1.36,4.9,7,6.84a23.18,23.18,0,0,0,6.76,1.53,3.4,3.4,0,0,0,2.63-.93,2.41,2.41,0,0,0,.51-.81c1.6-3.21-3.51-8.9-4.13-9.56-2.32-2.51-4.62-3.79-6.85-3.79Z"/><path class="cls-5" d="M182.69,161a1.73,1.73,0,0,0,1.69-.85c1.78-2.35-2.58-8.93-2.63-9-2-2.92-4.08-4.39-6.23-4.39a4.85,4.85,0,0,0-1.89.39,5.15,5.15,0,0,0-3.19,4.48c-.05,1.5.57,4.38,5.43,6.89C179.09,160.18,181.31,161,182.69,161Z"/><path class="cls-2" d="M175.52,147.75c2.26,0,4.16,2.12,5.41,3.95,1.51,2.23,3.71,6.82,2.59,7.92,0,0,0,.38-.83.38s-2.68-.45-6.37-2.36c-7-3.64-5.22-8.35-2.3-9.58a3.91,3.91,0,0,1,1.5-.31m0-2a5.63,5.63,0,0,0-2.27.47,6.12,6.12,0,0,0-3.8,5.35c-.06,1.73.62,5,6,7.81,4.48,2.31,6.3,2.58,7.28,2.58a2.76,2.76,0,0,0,2.54-1.32c2.06-2.94-2.15-9.32-2.66-10.07-2.17-3.2-4.55-4.82-7-4.82Z"/><path class="cls-5" d="M173.1,168.46a1.54,1.54,0,0,0,1.52-.76c1.59-2.12-2.3-8-2.35-8.1-1.76-2.63-3.64-4-5.56-4A4.21,4.21,0,0,0,165,156a4.64,4.64,0,0,0-2.85,4c0,1.35.51,3.95,4.84,6.22C169.89,167.74,171.88,168.46,173.1,168.46Z"/><path class="cls-2" d="M166.71,156.52c2,0,3.72,1.91,4.83,3.57,1.35,2,3.3,6.15,2.31,7.15,0,0,0,.34-.75.34s-2.38-.41-5.67-2.13c-6.3-3.29-4.67-7.53-2.06-8.65a3.46,3.46,0,0,1,1.34-.28m0-1.78a5.19,5.19,0,0,0-2,.43,5.52,5.52,0,0,0-3.38,4.82c-.06,1.56.55,4.54,5.31,7,4,2.09,5.63,2.33,6.5,2.33a2.46,2.46,0,0,0,2.29-1.2c1.82-2.64-1.93-8.38-2.38-9.05-1.94-2.89-4.06-4.36-6.3-4.36Z"/><path class="cls-10" d="M169.84,120.59a14.26,14.26,0,0,0,4-12.32c-1-6.64-6.42-14-16-21.75a114.41,114.41,0,0,0-14-9.68c-.29-.13-5.42-2.45-9.39-2.45-2.2,0-3.69.71-4.43,2.11-1.47,2.77.42,8,5.78,15.9,17,25.2,32.53,28.34,33.19,28.46l.47.08Z"/><path class="cls-2" d="M134.51,75.26c3.82,0,9,2.33,9,2.33S186.06,101.7,169.2,120c0,0-15.58-2.89-32.62-28.09-9.14-13.52-6.49-16.65-2.07-16.65m0-1.73c-3.17,0-4.57,1.39-5.19,2.56-1.66,3.12.19,8.46,5.83,16.79,17.24,25.5,33.07,28.7,33.74,28.83l.94.17.65-.7a15.12,15.12,0,0,0,4.21-13c-2.53-16.13-29.23-31.41-30.37-32l-.06,0-.08,0c-.22-.1-5.52-2.49-9.67-2.49Z"/><path class="cls-5" d="M151,104.87a5.17,5.17,0,1,0-4.89-5.16A5,5,0,0,0,151,104.87Z"/><path class="cls-2" d="M151,95.36a4.36,4.36,0,1,1-4.08,4.35A4.22,4.22,0,0,1,151,95.36m0-1.63a6,6,0,1,0,5.71,6,5.85,5.85,0,0,0-5.71-6Z"/><path class="cls-1" d="M216.65,52.61a3.49,3.49,0,0,0,1.49-.34,2.08,2.08,0,0,0,.43-.3c.33-.32,8.07-7.8,9.77-12.92a3,3,0,0,0-.25-2.81,2.82,2.82,0,0,0-2.37-1.09c-3.77,0-12.53,5.75-12.72,11.22-.09,2.51.35,4.23,1.35,5.26A3.18,3.18,0,0,0,216.65,52.61Z"/><path class="cls-2" d="M225.72,36.92c.88,0,1.32.47.95,1.57-1.59,4.76-9.32,12.2-9.32,12.2a1.78,1.78,0,0,1-.7.15c-.81,0-2-.62-1.88-4.41.15-4.35,8-9.51,10.95-9.51m0-3.53c-4.38,0-14.25,6.24-14.48,12.91-.11,3,.49,5.16,1.83,6.55a4.92,4.92,0,0,0,3.58,1.53,5.23,5.23,0,0,0,2.28-.53,3.27,3.27,0,0,0,.86-.61c.86-.82,8.42-8.2,10.23-13.63a4.71,4.71,0,0,0-.5-4.4,4.5,4.5,0,0,0-3.8-1.82Z"/><path class="cls-3" d="M211,47.77a2,2,0,0,0,1.13-.34c.28-.18,6.74-4.62,5.39-15-1.21-9.28-6.78-13.94-9.56-13.94a2.47,2.47,0,0,0-1.39.41c-1.28.85-1.31,2.4-1.34,4.73,0,1.79-.05,4.23-.73,5.5-1.72,3.22-3.17,9.09-3,11.28.05.79.17,2.88,8.63,7.11A2.09,2.09,0,0,0,211,47.77Z"/><path class="cls-2" d="M207.91,20.57c1.44,0,6.43,3.63,7.54,12.16,1.2,9.2-4.5,13-4.5,13s-7.4-3.7-7.5-5.4,1.2-7.2,2.8-10.2.5-8.9,1.4-9.5a.48.48,0,0,1,.26-.06m0-4.08a4.58,4.58,0,0,0-2.53.75c-2.17,1.45-2.2,3.86-2.24,6.41,0,1.3,0,3.73-.49,4.56-1.78,3.35-3.44,9.59-3.27,12.36.08,1.42.23,4.06,9.74,8.81a4.1,4.1,0,0,0,4.09-.25c.32-.22,7.79-5.34,6.28-16.92A22.67,22.67,0,0,0,215,20.91c-2.2-2.77-4.85-4.42-7.09-4.42Z"/><path class="cls-4" d="M185.61,92.46c19.23,0,34.89-13.62,34.89-30.36A26.83,26.83,0,0,0,217.62,50a4.36,4.36,0,0,0,.25-1.44A4.74,4.74,0,0,0,213.64,44c-6.56-7.7-17-12.28-28-12.28-19.24,0-34.89,13.62-34.89,30.36S166.37,92.46,185.61,92.46Z"/><path class="cls-2" d="M185.61,32.83c11.33,0,21.35,4.82,27.48,12.23a3.7,3.7,0,0,1,3.69,3.5,3.24,3.24,0,0,1-.36,1.48,25.94,25.94,0,0,1,3,12.06c0,16.16-15.14,29.27-33.8,29.27s-33.8-13.11-33.8-29.27,15.13-29.27,33.8-29.27m0-2.18c-19.84,0-36,14.11-36,31.45s16.14,31.44,36,31.44,36-14.1,36-31.44a28,28,0,0,0-2.79-12.19,5.55,5.55,0,0,0,.17-1.35A5.8,5.8,0,0,0,214.21,43c-6.78-7.76-17.41-12.37-28.6-12.37Z"/><path class="cls-5" d="M193.36,67.36c5.2,0,9.42-5.37,9.42-12s-4.22-12-9.42-12-9.42,5.37-9.42,12S188.16,67.36,193.36,67.36Z"/><path class="cls-2" d="M193.36,44.38c4.68,0,8.47,4.93,8.47,11s-3.79,11-8.47,11-8.47-4.93-8.47-11,3.79-11,8.47-11m0-1.9c-5.72,0-10.38,5.79-10.38,12.92s4.66,12.91,10.38,12.91,10.37-5.79,10.37-12.91-4.65-12.92-10.37-12.92Z"/><path class="cls-2" d="M206.91,54.31H207a1.08,1.08,0,0,0,1-1.2,8,8,0,0,1,2.65-6.43A1.09,1.09,0,0,0,209.25,45a10,10,0,0,0-3.42,8.33A1.09,1.09,0,0,0,206.91,54.31Z"/><path class="cls-1" d="M205.45,53.61a2,2,0,0,0,1.66-.92c.91-1.3.86-3.63-.14-6.38C204.66,40,200.65,31.46,192.58,31c-.45,0-.88,0-1.28,0-2.86,0-4.88.68-6,2a3.74,3.74,0,0,0-.87,2.92,1.09,1.09,0,0,0,1.07.9.86.86,0,0,0,.28,0h0a2.84,2.84,0,0,1,.44-.06,6.36,6.36,0,0,0-3.74,5.46,1.09,1.09,0,0,0,.37.9,1.08,1.08,0,0,0,.72.27l.23,0A17.07,17.07,0,0,1,187,43a18.28,18.28,0,0,1,8.15,1.84C197,46.11,202,49.72,203,51.78c.83,1.59,1.87,1.83,2.41,1.83Z"/><path class="cls-2" d="M191.3,32c.38,0,.78,0,1.21,0,7.75.48,11.5,9.32,13.44,14.64,1.35,3.72.58,5.84-.5,5.84-.47,0-1-.4-1.44-1.24-1.45-2.78-8.35-7.38-8.35-7.38a19.29,19.29,0,0,0-8.7-2,17.84,17.84,0,0,0-3.4.29c.48-6.17,8.35-5.08,6.05-6.05a7.6,7.6,0,0,0-2.92-.6,5.22,5.22,0,0,0-1.2.12S184.85,32,191.3,32m0-2.18c-3.2,0-5.49.82-6.84,2.42a4.82,4.82,0,0,0-1.11,3.81,2.23,2.23,0,0,0,.41,1,7.27,7.27,0,0,0-2.37,5,2.17,2.17,0,0,0,.73,1.81,2.2,2.2,0,0,0,1.44.54,1.73,1.73,0,0,0,.45-.05,16.6,16.6,0,0,1,3-.24,17.17,17.17,0,0,1,7.6,1.69c2.67,1.8,6.71,4.95,7.52,6.51a3.93,3.93,0,0,0,3.37,2.41A3.12,3.12,0,0,0,208,53.31c1.12-1.59,1.11-4.28,0-7.37-1.54-4.23-5.62-15.46-15.34-16.07-.47,0-.92-.05-1.35-.05Z"/><path class="cls-2" d="M202.56,56.24c0,2.94-1.25,5.33-2.79,5.33S197,59.18,197,56.24s1.25-5.32,2.78-5.32S202.56,53.3,202.56,56.24Z"/><path class="cls-6" d="M185.17,76s-19.73-1.3-22,12.47,4.65,16,7.07,19.92,15.45,14,15.45,14,16-6.52,24.76-34.07Z"/><path class="cls-7" d="M181.77,122.89c8.47,0,15.38-4.43,17.2-11,1.17-4.2.18-8.7-2.77-12.68a23.45,23.45,0,0,0-12.59-8.31,25.27,25.27,0,0,0-6.76-.93c-8.46,0-15.38,4.43-17.2,11-2.38,8.57,4.52,18,15.36,21a25.33,25.33,0,0,0,6.76.93Z"/><path class="cls-2" d="M176.85,90.9a24.37,24.37,0,0,1,6.51.9c10.35,2.87,16.93,11.74,14.7,19.81-1.76,6.36-8.47,10.33-16.29,10.33a24.76,24.76,0,0,1-6.51-.89c-10.35-2.87-16.93-11.74-14.7-19.82,1.76-6.36,8.47-10.33,16.29-10.33m0-1.9c-8.9,0-16.18,4.71-18.12,11.73-2.51,9.07,4.68,19,16,22.15a26.27,26.27,0,0,0,7,1c8.9,0,16.18-4.71,18.12-11.72,1.24-4.48.2-9.28-2.93-13.5A24.32,24.32,0,0,0,183.87,90a26.41,26.41,0,0,0-7-1Z"/><path class="cls-5" d="M224.14,103.75c1.78,0,3.48-2.15,5.27-4.42.35-.44.69-.88,1-1.27a23.62,23.62,0,0,0,4.87-9.91,1,1,0,0,0-.5-1L222.91,81a.91.91,0,0,0-.43-.1A.93.93,0,0,0,222,81a.94.94,0,0,0-.49.75c-1.38,16.39-.18,20,1,21.29a2.14,2.14,0,0,0,1.6.73Z"/><path class="cls-2" d="M222.48,81.81,234.36,88a22.8,22.8,0,0,1-4.66,9.47c-1.73,2.08-3.93,5.35-5.56,5.35-1.92,0-3-4.55-1.66-21m0-1.9a2,2,0,0,0-.92.23,1.91,1.91,0,0,0-1,1.51c-1.4,16.62-.22,20.4,1.26,22a3.07,3.07,0,0,0,2.3,1c2.24,0,4.07-2.32,6-4.78.34-.44.68-.86,1-1.25a24.58,24.58,0,0,0,5.07-10.35,1.9,1.9,0,0,0-1-2l-11.89-6.17a1.89,1.89,0,0,0-.87-.21Z"/><path class="cls-5" d="M201.31,103.25c1.48,0,2.77-1.66,4-3.26,2.15-2.77,5.26-10.13,5.39-10.44a1,1,0,0,0-.27-1.1l-12-10.08a1,1,0,0,0-.61-.22,1,1,0,0,0-.41.09,1,1,0,0,0-.54.86,143.26,143.26,0,0,0,1.21,18.66c.42,2.55,1.16,5.49,3.24,5.49Z"/><path class="cls-2" d="M197.81,79.1l12,10.08s-3.16,7.52-5.26,10.23c-1.11,1.42-2.26,2.89-3.27,2.89s-1.73-1.2-2.3-4.7a144.81,144.81,0,0,1-1.2-18.5m0-1.9a1.91,1.91,0,0,0-1.91,1.9,145.3,145.3,0,0,0,1.23,18.81c.31,1.88,1,6.29,4.18,6.29,1.95,0,3.38-1.84,4.77-3.62,2.23-2.87,5.38-10.35,5.52-10.66a1.92,1.92,0,0,0-.54-2.2L199,77.64a1.91,1.91,0,0,0-1.22-.44Z"/><path class="cls-5" d="M183.2,90.63a1.33,1.33,0,0,0,.64-.17c1.89-1.11,7.57-7.59,8.22-8.33a.94.94,0,0,0,0-1.24c-3.55-4.09-8.13-9-9.78-9a1.2,1.2,0,0,0-1.19.93c-.35,1.41-.67,15,1.06,17.23a1.3,1.3,0,0,0,1,.55Z"/><path class="cls-2" d="M182.28,72.87c1.56,0,9.06,8.64,9.06,8.64s-6.17,7.07-8,8.12a.41.41,0,0,1-.17.05c-1.64,0-1.62-14.85-1.19-16.59a.26.26,0,0,1,.27-.22m0-1.9a2.13,2.13,0,0,0-2.11,1.65,51.5,51.5,0,0,0-.27,8.7c.22,7.72,1.08,8.82,1.5,9.35a2.22,2.22,0,0,0,2.93.61c1.92-1.13,6.95-6.81,8.44-8.52a1.9,1.9,0,0,0,0-2.5C184.71,71,183.07,71,182.28,71Z"/><path class="cls-5" d="M202.1,118.48c2.72,0,7.15-2.76,7.65-3.08a1,1,0,0,0,.44-.86c0-.36-.62-8.74-1.7-12-.41-1.23-1.11-1.48-1.63-1.48-1.49,0-3,1.92-6.79,12.43-.67,1.83-.7,3.14-.09,4A2.41,2.41,0,0,0,202.1,118.48Z"/><path class="cls-2" d="M206.86,102c.29,0,.53.26.72.83,1.06,3.16,1.66,11.73,1.66,11.73s-4.62,2.93-7.14,2.93c-1.39,0-2.15-.89-1.13-3.68,2.34-6.41,4.58-11.81,5.89-11.81m0-1.9c-2.05,0-3.57,1.81-7.68,13.06-.29.78-1.16,3.18,0,4.87a3.37,3.37,0,0,0,2.9,1.37c2.93,0,7.31-2.69,8.16-3.23a1.91,1.91,0,0,0,.88-1.74c-.06-.9-.65-8.91-1.75-12.2a2.65,2.65,0,0,0-2.53-2.13Z"/><path class="cls-5" d="M180.73,121.43c3.56,0,9-3.71,10.82-6.63a1,1,0,0,0,.13-.65c-.07-.42-1.69-10.36-2.62-12.69-.36-.91-.76-1.91-1.8-1.91-1.3,0-2.31,1.07-7.91,12.37-1.93,3.91-2.39,6.57-1.41,8.15A3,3,0,0,0,180.73,121.43Z"/><path class="cls-2" d="M187.26,100.5c.4,0,.63.59.92,1.32.9,2.25,2.56,12.48,2.56,12.48-1.76,2.86-7,6.18-10,6.18-2.42,0-3.51-2.09-.52-8.13,4.58-9.27,6.2-11.85,7-11.85m0-1.9c-1.9,0-3,1.26-8.76,12.9-2.12,4.28-2.55,7.16-1.37,9.07a4,4,0,0,0,3.6,1.81c3.91,0,9.66-3.89,11.63-7.08a1.86,1.86,0,0,0,.25-1.3c-.17-1.07-1.71-10.51-2.68-12.92-.37-.93-1-2.48-2.67-2.48Z"/><path class="cls-8" d="M182.16,134.36c9.48,0,14.86-2.51,18-5.06a1.3,1.3,0,0,0,.18.23,7.66,7.66,0,0,0,5.49,2.07,12,12,0,0,0,8.59-3.82,10.22,10.22,0,0,0,2.71-8c-.73-8.78-8-8.92-13.81-9-1,0-1.89,0-2.79-.09-.35,0-.72,0-1.09,0a66,66,0,0,0-11.14,1.45,42,42,0,0,1-5.65.85h-.25a63.42,63.42,0,0,1-2.92-6c-1-2.14-1.88-4.16-2.53-5.3-1.2-2.1-5.35-6.57-7.84-9.24l-1.36-1.48c.63-1.8,6.31-7.77,9.57-10A13.44,13.44,0,0,0,179,79.54c.66-.62.87-.77,1.17-.77,1.2,0,4.31,2,8.62,5.1,8.71,6.21,20.61,10.21,30.3,10.21A25.21,25.21,0,0,0,226.88,93a24.9,24.9,0,0,0,4.17-1.76.82.82,0,0,0,0,.27,1.2,1.2,0,0,0,.73.9,8.65,8.65,0,0,0,3.32.62c4.93,0,11.43-3.55,14.84-11.5,4-9.43.38-21.21.23-21.7l-.09-.22C245,50.12,238,45.32,229.29,45.32c-11.4,0-22.2,8.58-25.08,11.58-1.11,1.16-2,2.2-2.82,3.12-2.12,2.43-3.11,3.5-4.45,3.5a3,3,0,0,1-.7-.08c-1-.22-2.51-1.32-4.45-2.72a68,68,0,0,0-18.31-9.9,22.4,22.4,0,0,0-7.41-1.29c-7.82,0-15.76,4.3-22.95,12.43-4.69,5.3-7.57,19.06-2,27.2,4.69,6.79,12.31,8.91,15,9.47,1.09,6.44,9,17.47,10.63,19.76-1.41,11.84,10.28,15.69,10.4,15.72a1.27,1.27,0,0,0,.28.06C179.07,134.29,180.66,134.36,182.16,134.36Z"/><path class="cls-2" d="M229.29,46.55c7,0,14.17,3.36,19.73,13.62,0,0,3.73,11.72-.19,20.85-3.17,7.4-9.17,10.76-13.71,10.76a7.42,7.42,0,0,1-2.85-.53s5.58-5.4,3.91-6.33a.83.83,0,0,0-.38-.12c-1.09,0-.47,4.12-9.3,7a24,24,0,0,1-7.45,1c-9.36,0-21.09-3.93-29.59-10-5.65-4-8-5.34-9.33-5.34s-1.8,1.18-3.52,2.36c-3.53,2.42-11.17,10.24-10.05,11.54s7.82,8.19,9.31,10.79,4.65,10.62,5.77,11.73a1.45,1.45,0,0,0,1,.22c2.92,0,11.14-2.29,16.79-2.29l1,0c6.51.38,14.71-.93,15.45,8,.54,6.51-5.24,10.45-10.08,10.45a6.45,6.45,0,0,1-4.63-1.7s3.17-3.73,2.42-5.21c0-.09-.08-.12-.13-.12-.75,0-2.75,9.8-21.31,9.8-1.44,0-3-.07-4.62-.19,0,0-11.17-3.54-9.49-14.89,0,0-10.42-14-10.8-20.48,0,0-9.68-1.3-15.08-9.12S139.76,67.61,144,62.77c3.53-4,11.6-12,22-12a20.84,20.84,0,0,1,7,1.22c13.77,4.84,19.54,11.91,22.89,12.66a5,5,0,0,0,1,.11c2.68,0,4.14-2.83,8.15-7,2.74-2.85,13.2-11.2,24.2-11.2m0-2.45c-11.83,0-23,8.85-26,11.95-1.13,1.18-2.05,2.23-2.86,3.17-1.77,2-2.73,3.08-3.53,3.08a2.69,2.69,0,0,1-.44,0,18.84,18.84,0,0,1-4-2.52,68.8,68.8,0,0,0-18.62-10.06,23.62,23.62,0,0,0-7.82-1.36c-8.18,0-16.43,4.44-23.86,12.84-4.89,5.53-8.2,19.79-2.05,28.7,4.52,6.55,11.62,9,15,9.79,1.51,6.49,8.22,16.09,10.39,19.09-.9,9.94,6.9,15.16,11.3,16.55a2.68,2.68,0,0,0,.55.11c1.66.13,3.28.19,4.81.19,7.07,0,12.79-1.37,17-4.07.3-.19.59-.39.87-.59a9.11,9.11,0,0,0,5.78,1.9,13.31,13.31,0,0,0,9.5-4.21,11.43,11.43,0,0,0,3-8.89c-.83-9.88-9.36-10-15-10.16-1,0-1.87,0-2.74-.09-.37,0-.76,0-1.16,0a66.81,66.81,0,0,0-11.36,1.47c-2,.37-3.88.72-5,.8-.65-1.17-1.73-3.58-2.5-5.28-1-2.17-1.9-4.22-2.58-5.41-1.17-2-4.59-5.8-8-9.46l-.77-.83A44.42,44.42,0,0,1,178,81.92a15,15,0,0,0,1.8-1.48l.47-.43c1.39.31,6.17,3.71,7.77,4.86,8.91,6.34,21.09,10.44,31,10.44a26.76,26.76,0,0,0,8.21-1.17,30,30,0,0,0,3.19-1.25,2.51,2.51,0,0,0,.88.62,9.73,9.73,0,0,0,3.79.72c5.33,0,12.34-3.79,16-12.25,4.21-9.85.42-22,.26-22.55a1.78,1.78,0,0,0-.18-.43c-5.36-9.89-12.72-14.9-21.88-14.9Z"/><path class="cls-2" d="M229.52,58.66a8.29,8.29,0,0,0-4.69-.36c-1.83.36-1.62-2,1-3a5.43,5.43,0,0,1,6.67,3.08c.83,2.4,1.61,3.44.57,4S231.39,59.44,229.52,58.66Z"/><path class="cls-3" d="M165.59,48.54a9.6,9.6,0,0,0,8.55-5.89.69.69,0,0,0,0-.1c2.17-7,.95-7.88.55-8.17-.18-.13-.52-.33-1-.61-2-1.2-7.25-4.39-8-7.33a25,25,0,0,1-.63-4.19c-.22-2.4-.41-4.46-2.17-4.46a2.14,2.14,0,0,0-.73.14c-2.6,1-9.55,6.49-8.93,15.32.6,8.6,7.38,14.87,11.61,15.26Q165.21,48.54,165.59,48.54Z"/><path class="cls-2" d="M162.92,18.74c1.47,0,.9,4.3,1.88,8,1.06,3.93,8.32,7.71,9.38,8.47s-.91,7.11-.91,7.11a8.67,8.67,0,0,1-7.68,5.32c-.22,0-.43,0-.64,0-3.33-.3-10.13-5.75-10.74-14.37s6.35-13.62,8.32-14.37a1,1,0,0,1,.39-.08m0-1.91a3,3,0,0,0-1.07.21c-2.07.8-10.25,6.18-9.54,16.28.65,9.22,7.82,15.71,12.47,16.14.26,0,.54,0,.81,0A10.59,10.59,0,0,0,175,43l.07-.19c2.37-7.67.9-8.72.19-9.22-.22-.16-.54-.36-1-.65-1.71-1-6.92-4.19-7.61-6.77a24.52,24.52,0,0,1-.6-4c-.22-2.37-.5-5.32-3.12-5.33Z"/></g></g></svg>