<svg xmlns="http://www.w3.org/2000/svg" viewBox="0 0 153.04 199.8"><defs><style>.cls-1{fill:#fff;}.cls-2{fill:#231f20;}.cls-3{fill:#3aa448;}.cls-4{fill:#f3dcbc;}.cls-5{fill:#8a4c20;}.cls-6{fill:#fff200;}.cls-7{fill:#415da9;}.cls-8{fill:#4a2510;}.cls-9{fill:#fed091;}.cls-10{fill:#ed1c24;}.cls-11{fill:#b92025;}.cls-12{fill:#670c13;}</style></defs><g id="Layer_2" data-name="Layer 2"><g id="Vector_Graphics" data-name="Vector Graphics"><path class="cls-1" d="M123.49,70.83a16,16,0,0,1-1.67-.09c-4.5-.49-10-3.52-10.24-3.65l-.62-.35-7-15.82.14-6.69-4.58-6.41,8.12-5.13.72.07c.26,0,.51.07.74.12l.3-.68-.56-4.33,0-.27c.6-4.62,3.34-7.48,7.17-7.48a8.82,8.82,0,0,1,2.38.34,6.51,6.51,0,0,1,4.22,4c.7-2.13,2.76-4.64,5.86-4.64A7.16,7.16,0,0,1,133.4,22a8.32,8.32,0,0,1,2.54,6.19,4.55,4.55,0,0,1,3-1.1,6.47,6.47,0,0,1,3.48,1.15,6,6,0,0,1,2.75,4.57,11.34,11.34,0,0,1-.75,5.1,6.11,6.11,0,0,1,.86-.06c2.35,0,5,1.41,5.59,5.35.77,5.67-7.09,9.3-10.45,10.84l-.56.26c-.35.17-.35.17-.7.78a17.52,17.52,0,0,1-4.28,5,14.74,14.74,0,0,1-3.82,2.41,6.5,6.5,0,0,1-1,5.8C128.75,69.93,126.47,70.83,123.49,70.83Z"/><path class="cls-2" d="M128.54,21.9A5.12,5.12,0,0,1,132,23.52c4,3.74.41,11.93-.81,13.86-1,1.53-2.32,3-1.76,3a2.39,2.39,0,0,0,.85-.32c2.13-1.12,5.26-6.78,5.66-8,.31-.91,1.12-2.95,3-2.95a4.42,4.42,0,0,1,2.34.82c3.64,2.33,1.21,8.9-1.93,12.14-2.47,2.56-5.08,3.54-4.52,3.54.15,0,.53-.08,1.19-.2,3.13-.61,6.07-3.95,7.08-4.86a3.54,3.54,0,0,1,2.18-.68c1.46,0,3.11.8,3.48,3.52.61,4.45-7.69,7.89-9.81,8.89s-.81,2-5.46,6.08a13.66,13.66,0,0,1-9,3.2,12.15,12.15,0,0,1-2.74-.27,3.86,3.86,0,0,0-1-.13c-.7,0-1,.28-.06.92s5.13.74,7.14.74H129c1,4.3-1.93,5.83-5.48,5.83a14.05,14.05,0,0,1-1.44-.08c-4.13-.44-9.44-3.39-9.44-3.39L106.13,50.5l.15-6.93-3.69-5.16,5.6-3.54c4.42.44,4.72,7.23,4.72,7.23a7.41,7.41,0,0,1,1-.07,12.73,12.73,0,0,1,8.09,3.45c-2.68-4.89-6.38-5.18-7.21-5.18h-.18c-1-6.17-3.44-6.88-3.44-6.88l.41-.91L111,27.87c.43-3.31,2.13-5.63,5.06-5.63a6.86,6.86,0,0,1,1.82.27c4,1.11,4.15,8.59,4.15,11.12,0,2-.57,4-.17,4,.11,0,.29-.15.57-.5,1.32-1.62,1.72-9.5,2.13-11.63.27-1.46,1.75-3.64,4-3.64m0-4.25h0a8.05,8.05,0,0,0-6,2.81A7.9,7.9,0,0,0,119,18.41a11.06,11.06,0,0,0-3-.42c-4.9,0-8.55,3.67-9.27,9.34l-.07.54.07.55.28,2.13-1.17.73-5.6,3.54-3.8,2.4,2.61,3.66,2.87,4-.12,5.51,0,.94.38.87,6.48,14.73.58,1.31,1.25.7c.62.34,6.2,3.38,11,3.9a17.8,17.8,0,0,0,1.9.1c3.65,0,6.51-1.18,8.26-3.41a8.11,8.11,0,0,0,1.65-5.9,17.28,17.28,0,0,0,2.87-2A19.86,19.86,0,0,0,141,56.1l0,0,.29-.14C145.08,54.19,154,50.1,153,42.87c-.5-3.66-2.71-6.24-5.82-7a11.6,11.6,0,0,0,.13-3.37,8.25,8.25,0,0,0-3.72-6.12,8.55,8.55,0,0,0-4.62-1.49,6.74,6.74,0,0,0-1.29.13,9.65,9.65,0,0,0-2.8-4.65,9.23,9.23,0,0,0-6.3-2.75Z"/><path class="cls-3" d="M88.29,101.12l17.58-38.44,20.3,1.42-1.32,2.7c-.5,1-12.25,24.86-25.48,38.7l-1.08,1.12Z"/><path class="cls-2" d="M107.12,64.79,123,65.91s-12,24.42-25.13,38.19l-7-3.85,16.21-35.46m-2.51-4.23-1.17,2.55L87.23,98.57,85.67,102,89,103.8l7,3.85,2.73,1.5,2.15-2.25c13.45-14.07,25.33-38.19,25.83-39.21l2.65-5.4-6-.42-15.9-1.11-2.8-.2Z"/><path class="cls-3" d="M123,65.91s-12,24.42-25.13,38.19l-7-3.85,16.21-35.46Z"/><path class="cls-4" d="M72.65,196C67.5,196,62,193.86,59,190.73a26.15,26.15,0,0,1-6.62-14c-3.75-8.63-.7-10.95-.34-11.19l1.15-.75.1,1.37C54.89,187.3,65.6,191.27,70.13,192a17,17,0,0,0,2.66.22,15.36,15.36,0,0,0,7.65-1.93l1.91-1.22-.71,2.15c-1,3-4.26,4.74-9,4.74Z"/><path class="cls-2" d="M52.49,166.25C54,186.05,63.6,191.77,70,192.8a17.29,17.29,0,0,0,2.79.23A16.07,16.07,0,0,0,80.87,191c-.94,2.88-4.3,4.18-8.22,4.18-4.63,0-10-1.82-13.06-5a25.53,25.53,0,0,1-6.41-13.62c-3.66-8.35-.69-10.3-.69-10.3m1.41-2.85-2.29,1.5c-.68.44-3.87,3.11,0,12.08a27.06,27.06,0,0,0,6.82,14.31c3.15,3.28,8.87,5.48,14.23,5.48,5.1,0,8.66-1.93,9.76-5.3l1.42-4.31L80,189.61a14.78,14.78,0,0,1-7.21,1.8,15.42,15.42,0,0,1-2.53-.21c-4.34-.69-14.61-4.53-16.15-25.07l-.21-2.73Z"/><path class="cls-5" d="M72.58,191.82a27.44,27.44,0,0,1-5.6-.63c-4.29-.89-8.08-5.14-10.66-11.95-2.69-7.05-3.49-15.33-1.73-17.71a14.64,14.64,0,0,1,6.46-5l1.06-.35v.15a13.27,13.27,0,0,1,1.76-3l.44-.57,15.26,9.27.53,4-.06.18a6.42,6.42,0,0,1-5.85,4.43,8.92,8.92,0,0,1-4-1.06l.84.46,1.47.76a11.36,11.36,0,0,1,1.44-.09,9,9,0,0,1,3.18.55c6.12,2.26,8.64,6.27,7.49,11.91C83.53,188.69,79.14,191.82,72.58,191.82Z"/><path class="cls-2" d="M64.51,153.89l14.31,8.7.45,3.43S78,169.9,74.19,169.9c-2.11,0-5-1.19-8.88-4.91,0,0-.34,2.86,5.38,5.84,0,0-4.35,1.49-4.92,3.66,0,0,3.9-2.9,8.2-2.9a8.2,8.2,0,0,1,2.9.5c5.27,1.94,8.13,5.37,7,11-.92,4.53-4.46,7.94-11.27,7.94a26.69,26.69,0,0,1-5.44-.61c-10.41-2.18-14.53-24.83-11.9-28.38a13.82,13.82,0,0,1,6.07-4.69s0,2.51,1.14,3.09c0,0-1-2.52,2.06-6.53m-.4-2.13-.88,1.14a14.74,14.74,0,0,0-1.63,2.62l-.81.27a15.45,15.45,0,0,0-6.85,5.26c-2.14,2.88-.89,11.88,1.62,18.48,2.69,7.08,6.69,11.5,11.25,12.45a28.48,28.48,0,0,0,5.77.65c9.9,0,12.29-6.46,12.86-9.23.85-4.16.16-9.75-7.88-12.78a8.13,8.13,0,0,0,3.25-4.09l.12-.35-.05-.37-.46-3.43-.1-.77-.66-.41-14.31-8.69-1.24-.75Z"/><path class="cls-4" d="M80.87,191A16.61,16.61,0,0,1,70,192.8c-6.4-1-16-6.75-17.51-26.55,0,0-3,1.95.69,10.3a25.53,25.53,0,0,0,6.41,13.62C65.2,196,78.82,197.26,80.87,191Z"/><path class="cls-2" d="M72.65,196h0C67.5,196,62,193.86,59,190.73a26.15,26.15,0,0,1-6.62-14c-3.75-8.63-.7-10.95-.34-11.19l1.15-.75.1,1.37C54.89,187.3,65.6,191.27,70.13,192a17,17,0,0,0,2.66.22,15.36,15.36,0,0,0,7.65-1.93l1.91-1.22-.71,2.15C80.66,194.24,77.38,196,72.65,196ZM55.31,181.64a23.19,23.19,0,0,0,4.86,8c2.72,2.83,7.74,4.73,12.48,4.73A10.42,10.42,0,0,0,78.27,193a18.17,18.17,0,0,1-5.48.85,18.93,18.93,0,0,1-2.91-.24C66.41,193,59.6,190.77,55.31,181.64Z"/><path class="cls-5" d="M65.77,174.49s5.84-4.35,11.1-2.4,8.13,5.37,7,11-6.29,9.5-16.71,7.33S52.61,165.57,55.24,162a13.82,13.82,0,0,1,6.07-4.69s0,2.51,1.14,3.09c0,0-1-2.52,2.06-6.53l14.31,8.7.45,3.43s-3.09,9.39-14-1c0,0-.34,2.86,5.38,5.84C70.69,170.83,66.34,172.32,65.77,174.49Z"/><path class="cls-2" d="M72.58,191.82a27.44,27.44,0,0,1-5.6-.63c-4.29-.89-8.08-5.14-10.66-11.95-2.69-7.05-3.49-15.33-1.73-17.71a14.64,14.64,0,0,1,6.46-5l1.06-.35v.15a13.27,13.27,0,0,1,1.76-3l.44-.57,15.26,9.27.53,4-.06.18a6.42,6.42,0,0,1-5.85,4.43,8.92,8.92,0,0,1-4-1.06l.84.46,1.47.76a9.86,9.86,0,0,1,4.62.46c6.12,2.26,8.64,6.27,7.49,11.91C83.53,188.69,79.14,191.82,72.58,191.82Zm-12-33.3a13.61,13.61,0,0,0-4.71,4c-1.12,1.51-.8,9,1.94,16.17,1.38,3.63,4.45,9.88,9.48,10.94a26.39,26.39,0,0,0,5.27.59c5.8,0,9.52-2.59,10.48-7.29s-1.14-8.09-6.47-10.07A7.75,7.75,0,0,0,74,172.4c-4,0-7.68,2.72-7.72,2.74l-1.85,1.38.59-2.23c.43-1.65,2.41-2.88,3.87-3.57-4.56-2.85-4.39-5.51-4.35-5.82l.19-1.61,1.17,1.12c3.25,3.11,6,4.69,8.32,4.69,2.78,0,4-2.51,4.25-3.17l-.37-2.85L64.72,155c-2.2,3.17-1.54,5.07-1.51,5.15l.7,1.92-1.82-.9A3.41,3.41,0,0,1,60.6,158.52Z"/><path class="cls-4" d="M91.15,195.94c-5.63,0-11.41-2.23-14.74-5.69a27.86,27.86,0,0,1-7-14.61c-4-9.42-.45-12.37.31-12.87a2.35,2.35,0,0,1,1.27-.38,2.33,2.33,0,0,1,2.32,2.15c1.51,20,11.38,23.76,15.56,24.43a15.19,15.19,0,0,0,2.42.2,14,14,0,0,0,6.83-1.69,2.32,2.32,0,0,1,2.68.12,2.33,2.33,0,0,1,.79,2.56c-1.19,3.63-5.09,5.78-10.44,5.78Z"/><path class="cls-2" d="M71,164.72c1.49,19.8,11.1,25.52,17.51,26.55a17.23,17.23,0,0,0,2.79.22,16.13,16.13,0,0,0,8.08-2.05c-.94,2.88-4.31,4.18-8.22,4.18-4.63,0-10-1.82-13.06-5A25.56,25.56,0,0,1,71.68,175c-3.66-8.36-.69-10.3-.69-10.3m0-4.66a4.66,4.66,0,0,0-2.54.76c-1.45,1-5.74,4.82-1.29,15.46a30.37,30.37,0,0,0,7.57,15.58c3.74,3.89,10.19,6.41,16.42,6.41,6.41,0,11.13-2.76,12.65-7.39a4.65,4.65,0,0,0-4.39-6.15,4.57,4.57,0,0,0-2.52.77,11.94,11.94,0,0,1-5.6,1.34,14.16,14.16,0,0,1-2.05-.16c-3.63-.59-12.23-3.93-13.61-22.31A4.68,4.68,0,0,0,71,160.06Z"/><path class="cls-5" d="M91.08,191.81a29.1,29.1,0,0,1-5.91-.67c-4.82-1-9-5.58-11.78-12.89-2.56-6.75-3.87-16-1.52-19.15a16.16,16.16,0,0,1,7.2-5.51,2,2,0,0,1,.49-.11,14.1,14.1,0,0,1,1.61-2.54A2.29,2.29,0,0,1,83,150a2.34,2.34,0,0,1,1.21.34l14.3,8.7a2.31,2.31,0,0,1,1.1,1.68l.46,3.43a2.45,2.45,0,0,1-.1,1,8.72,8.72,0,0,1-2.48,3.69c7.38,3.29,8,8.88,7.13,13.1C103.38,188.14,98.31,191.8,91.08,191.81Z"/><path class="cls-2" d="M83,152.36l14.3,8.7.46,3.43s-1.28,3.88-5.08,3.88c-2.11,0-5-1.19-8.88-4.91,0,0-.34,2.86,5.38,5.84,0,0-4.35,1.48-4.92,3.66,0,0,3.9-2.91,8.19-2.91a8.23,8.23,0,0,1,2.91.51c5.26,1.94,8.12,5.37,7,11-.93,4.53-4.46,7.94-11.27,7.94a26.06,26.06,0,0,1-5.44-.62c-10.41-2.17-14.53-24.83-11.9-28.37a13.9,13.9,0,0,1,6.06-4.7s0,2.52,1.15,3.09c0,0-1-2.52,2.06-6.52m0-4.65a4.65,4.65,0,0,0-3.69,1.81,17.82,17.82,0,0,0-1.34,2,18.79,18.79,0,0,0-8,6.2c-.54.74-2.21,3-1.53,9.82a46.39,46.39,0,0,0,2.75,11.54c3.12,8.2,7.77,13.16,13.47,14.35a31.62,31.62,0,0,0,6.39.71c8.42,0,14.34-4.36,15.83-11.66,1.22-6-.88-11-5.82-14.24a10,10,0,0,0,1.1-2.29,4.5,4.5,0,0,0,.19-2.06l-.45-3.44a4.68,4.68,0,0,0-2.2-3.36l-14.3-8.7a4.73,4.73,0,0,0-2.42-.67Z"/><path class="cls-4" d="M99.37,189.44a16.61,16.61,0,0,1-10.87,1.83c-6.41-1-16-6.75-17.51-26.55,0,0-3,1.94.69,10.3a25.56,25.56,0,0,0,6.41,13.62C83.7,194.47,97.31,195.73,99.37,189.44Z"/><path class="cls-2" d="M91.15,195.94h0c-5.63,0-11.41-2.23-14.74-5.69a27.86,27.86,0,0,1-7-14.61c-4-9.42-.45-12.37.31-12.87a2.32,2.32,0,0,1,3.59,1.77c1.51,20,11.38,23.76,15.56,24.43a15.19,15.19,0,0,0,2.42.2,14,14,0,0,0,6.83-1.69,2.33,2.33,0,0,1,3.47,2.68C100.4,193.79,96.5,195.94,91.15,195.94Z"/><path class="cls-5" d="M84.27,173s5.83-4.35,11.1-2.4,8.12,5.37,7,11-6.3,9.5-16.71,7.32S71.11,164,73.74,160.49a13.9,13.9,0,0,1,6.06-4.7s0,2.52,1.15,3.09c0,0-1-2.52,2.06-6.52l14.3,8.7.46,3.43s-3.09,9.38-14-1c0,0-.34,2.86,5.38,5.84C89.19,169.3,84.84,170.78,84.27,173Z"/><path class="cls-2" d="M91.08,191.81a29.1,29.1,0,0,1-5.91-.67c-4.82-1-9-5.58-11.78-12.89-2.56-6.75-3.87-16-1.52-19.15a16.16,16.16,0,0,1,7.2-5.51,2,2,0,0,1,.49-.11,14.1,14.1,0,0,1,1.61-2.54,2.32,2.32,0,0,1,3-.57l14.3,8.7a2.31,2.31,0,0,1,1.1,1.68l.46,3.43a2.45,2.45,0,0,1-.1,1,8.72,8.72,0,0,1-2.48,3.69c7.38,3.29,8,8.88,7.13,13.1C103.38,188.14,98.31,191.8,91.08,191.81ZM78.25,159.28a11.83,11.83,0,0,0-2.64,2.59c-.74,1.3-.44,9.13,2.88,16.53,2.11,4.69,4.82,7.6,7.63,8.19a24.78,24.78,0,0,0,5,.56c5.07,0,8.18-2.1,9-6.07.56-2.73.43-6.15-5.51-8.34a5.94,5.94,0,0,0-2.1-.36c-3.44,0-6.77,2.42-6.81,2.45A2.33,2.33,0,0,1,82,172.37,6.27,6.27,0,0,1,84.59,169c-3.24-2.76-3.16-5.27-3.09-5.86a2.33,2.33,0,0,1,3.92-1.4c3.87,3.71,6.22,4.26,7.27,4.26a3.08,3.08,0,0,0,2.69-1.87l-.22-1.7-11.42-6.95a4.51,4.51,0,0,0-.61,2.54,2.17,2.17,0,0,1-.45,2.56,2.38,2.38,0,0,1-2.77.34A3.79,3.79,0,0,1,78.25,159.28Z"/><path class="cls-4" d="M72.65,197.48c-5.63,0-11.41-2.24-14.74-5.7a27.73,27.73,0,0,1-7-14.61c-4-9.42-.46-12.37.3-12.87a2.35,2.35,0,0,1,1.27-.38,2.18,2.18,0,0,1,1,.25,2.33,2.33,0,0,1,1.3,1.91c1.5,20,11.38,23.75,15.55,24.43a16.55,16.55,0,0,0,2.42.19A14,14,0,0,0,79.62,189a2.33,2.33,0,0,1,3.47,2.69c-1.19,3.62-5.09,5.78-10.44,5.78Z"/><path class="cls-2" d="M52.49,166.25C54,186.05,63.6,191.77,70,192.8a17.29,17.29,0,0,0,2.79.23A16.07,16.07,0,0,0,80.87,191c-.94,2.88-4.3,4.18-8.22,4.18-4.63,0-10-1.82-13.06-5a25.53,25.53,0,0,1-6.41-13.62c-3.66-8.35-.69-10.3-.69-10.3m0-4.65a4.59,4.59,0,0,0-2.55.76c-1.45.94-5.73,4.82-1.29,15.46a30.38,30.38,0,0,0,7.57,15.57c3.75,3.9,10.19,6.41,16.42,6.41,6.41,0,11.14-2.76,12.65-7.38a4.65,4.65,0,0,0-4.39-6.16,4.5,4.5,0,0,0-2.52.78,12.13,12.13,0,0,1-5.6,1.33,12.87,12.87,0,0,1-2.05-.16c-3.63-.59-12.22-3.93-13.61-22.31a4.65,4.65,0,0,0-4.63-4.3Z"/><path class="cls-5" d="M72.58,193.34a29.77,29.77,0,0,1-5.91-.66c-4.81-1-9-5.59-11.77-12.9-2.57-6.74-3.88-16-1.53-19.15a16.22,16.22,0,0,1,7.2-5.51,2.16,2.16,0,0,1,.49-.11,15.47,15.47,0,0,1,1.61-2.54,2.31,2.31,0,0,1,1.84-.9,2.4,2.4,0,0,1,1.21.33L80,160.6a2.33,2.33,0,0,1,1.1,1.68l.46,3.44a2.26,2.26,0,0,1-.1,1A8.6,8.6,0,0,1,79,170.44c7.39,3.3,8,8.88,7.13,13.1C84.88,189.67,79.81,193.34,72.58,193.34Z"/><path class="cls-2" d="M64.51,153.89l14.31,8.7.45,3.43S78,169.9,74.19,169.9c-2.11,0-5-1.19-8.88-4.91,0,0-.34,2.86,5.38,5.84,0,0-4.35,1.49-4.92,3.66,0,0,3.9-2.9,8.2-2.9a8.2,8.2,0,0,1,2.9.5c5.27,1.94,8.13,5.37,7,11-.92,4.53-4.46,7.94-11.27,7.94a26.69,26.69,0,0,1-5.44-.61c-10.41-2.18-14.53-24.83-11.9-28.38a13.82,13.82,0,0,1,6.07-4.69s0,2.51,1.14,3.09c0,0-1-2.52,2.06-6.53m0-4.65a4.63,4.63,0,0,0-3.68,1.81,17.53,17.53,0,0,0-1.35,2,18.79,18.79,0,0,0-8,6.2c-.54.74-2.2,3-1.52,9.82a46.54,46.54,0,0,0,2.74,11.55c3.12,8.2,7.78,13.15,13.47,14.34a31.62,31.62,0,0,0,6.39.71c8.42,0,14.34-4.36,15.83-11.66,1.22-6-.88-11-5.82-14.24a10.18,10.18,0,0,0,1.1-2.28,4.7,4.7,0,0,0,.2-2.07L83.43,162a4.65,4.65,0,0,0-2.2-3.36l-14.3-8.69a4.62,4.62,0,0,0-2.42-.68Z"/><path class="cls-4" d="M80.87,191A16.61,16.61,0,0,1,70,192.8c-6.4-1-16-6.75-17.51-26.55,0,0-3,1.95.69,10.3a25.53,25.53,0,0,0,6.41,13.62C65.2,196,78.82,197.26,80.87,191Z"/><path class="cls-2" d="M72.65,197.48h0c-5.63,0-11.41-2.24-14.74-5.7a27.73,27.73,0,0,1-7-14.61c-4-9.42-.46-12.37.3-12.87a2.34,2.34,0,0,1,3.6,1.78c1.5,20,11.38,23.75,15.55,24.43a16.55,16.55,0,0,0,2.42.19A14,14,0,0,0,79.62,189a2.33,2.33,0,0,1,3.47,2.69C81.9,195.32,78,197.48,72.65,197.48Z"/><path class="cls-5" d="M65.77,174.49s5.84-4.35,11.1-2.4,8.13,5.37,7,11-6.29,9.5-16.71,7.33S52.61,165.57,55.24,162a13.82,13.82,0,0,1,6.07-4.69s0,2.51,1.14,3.09c0,0-1-2.52,2.06-6.53l14.31,8.7.45,3.43s-3.09,9.39-14-1c0,0-.34,2.86,5.38,5.84C70.69,170.83,66.34,172.32,65.77,174.49Z"/><path class="cls-2" d="M72.58,193.34a29.77,29.77,0,0,1-5.91-.66c-4.81-1-9-5.59-11.77-12.9-2.57-6.74-3.88-16-1.53-19.15a16.22,16.22,0,0,1,7.2-5.51,2.16,2.16,0,0,1,.49-.11,15.47,15.47,0,0,1,1.61-2.54,2.33,2.33,0,0,1,3-.57L80,160.6a2.33,2.33,0,0,1,1.1,1.68l.46,3.44a2.26,2.26,0,0,1-.1,1A8.6,8.6,0,0,1,79,170.44c7.39,3.3,8,8.88,7.13,13.1C84.88,189.67,79.81,193.34,72.58,193.34ZM59.75,160.81a12,12,0,0,0-2.64,2.59c-.74,1.3-.44,9.13,2.88,16.52,2.11,4.7,4.82,7.62,7.63,8.2a24.13,24.13,0,0,0,5,.57c5.07,0,8.18-2.11,9-6.08.56-2.73.43-6.14-5.51-8.34a5.92,5.92,0,0,0-2.09-.36c-3.45,0-6.78,2.43-6.82,2.45a2.32,2.32,0,0,1-3.63-2.46,6.31,6.31,0,0,1,2.57-3.33c-3.23-2.76-3.16-5.27-3.09-5.85a2.35,2.35,0,0,1,1.53-1.92,2.31,2.31,0,0,1,2.39.51c3.88,3.71,6.22,4.27,7.27,4.27a3.1,3.1,0,0,0,2.69-1.87L76.66,164l-11.42-6.94a4.34,4.34,0,0,0-.6,2.53,2.17,2.17,0,0,1-.45,2.56,2.41,2.41,0,0,1-2.78.35A3.86,3.86,0,0,1,59.75,160.81Z"/><path class="cls-4" d="M91.15,194.93c-5.29,0-10.92-2.16-14-5.38a26.64,26.64,0,0,1-6.74-14.19c-3.87-9-.52-11.48-.13-11.74l1.87-1.22.16,2.22c1.56,20.75,12,24.64,16.41,25.35a16,16,0,0,0,2.58.21,14.72,14.72,0,0,0,7.37-1.85l3.11-2-1.15,3.51c-1.05,3.23-4.51,5.08-9.47,5.08Z"/><path class="cls-2" d="M71,164.72c1.49,19.8,11.1,25.52,17.51,26.55a17.23,17.23,0,0,0,2.79.22,16.13,16.13,0,0,0,8.08-2.05c-.94,2.88-4.31,4.18-8.22,4.18-4.63,0-10-1.82-13.06-5A25.56,25.56,0,0,1,71.68,175c-3.66-8.36-.69-10.3-.69-10.3m2.29-4.64-3.73,2.44c-.8.52-4.52,3.59-.43,13.2a28.24,28.24,0,0,0,7.07,14.74c3.38,3.51,9.25,5.79,15,5.79,5.49,0,9.5-2.24,10.72-6l2.3-7-6.22,4a13.71,13.71,0,0,1-6.66,1.64,14.57,14.57,0,0,1-2.37-.19c-4.11-.66-13.82-4.33-15.3-24.15l-.34-4.44Z"/><path class="cls-5" d="M91.08,190.79a27.88,27.88,0,0,1-5.71-.64c-4.46-.93-8.38-5.29-11-12.26-2.43-6.39-3.71-15.43-1.66-18.19a15.23,15.23,0,0,1,6.71-5.16l.92-.3A13.72,13.72,0,0,1,82,151.56l.72-.94,15.85,9.64.58,4.35-.1.29a7.63,7.63,0,0,1-3.73,4.24l.54.18c8,3,8.64,8.41,7.81,12.49C102.47,187.52,97.89,190.79,91.08,190.79Z"/><path class="cls-2" d="M83,152.36l14.3,8.7.46,3.43s-1.28,3.88-5.08,3.88c-2.11,0-5-1.19-8.88-4.91,0,0-.34,2.86,5.38,5.84,0,0-4.35,1.48-4.92,3.66,0,0,3.9-2.91,8.19-2.91a8.23,8.23,0,0,1,2.91.51c5.26,1.94,8.12,5.37,7,11-.93,4.53-4.46,7.94-11.27,7.94a26.06,26.06,0,0,1-5.44-.62c-10.41-2.17-14.53-24.83-11.9-28.37a13.9,13.9,0,0,1,6.06-4.7s0,2.52,1.15,3.09c0,0-1-2.52,2.06-6.52m-.65-3.47-1.43,1.86a15.49,15.49,0,0,0-1.56,2.42l-.4.13a16.2,16.2,0,0,0-7.34,5.62c-2.42,3.25-1.11,12.62,1.48,19.43,2,5.25,5.69,11.77,12,13.09a29.83,29.83,0,0,0,6,.67c7.39,0,12.56-3.76,13.85-10,1.2-5.89-1.24-10.53-6.89-13.24a9.12,9.12,0,0,0,2.23-3.52l.19-.57-.08-.6-.46-3.43-.17-1.25-1.07-.65-14.31-8.7-2-1.22Z"/><path class="cls-4" d="M99.37,189.44a16.61,16.61,0,0,1-10.87,1.83c-6.41-1-16-6.75-17.51-26.55,0,0-3,1.94.69,10.3a25.56,25.56,0,0,0,6.41,13.62C83.7,194.47,97.31,195.73,99.37,189.44Z"/><path class="cls-5" d="M84.27,173s5.83-4.35,11.1-2.4,8.12,5.37,7,11-6.3,9.5-16.71,7.32S71.11,164,73.74,160.49a13.9,13.9,0,0,1,6.06-4.7s0,2.52,1.15,3.09c0,0-1-2.52,2.06-6.52l14.3,8.7.46,3.43s-3.09,9.38-14-1c0,0-.34,2.86,5.38,5.84C89.19,169.3,84.84,170.78,84.27,173Z"/><path class="cls-4" d="M72.65,196.47c-5.28,0-10.91-2.17-14-5.39A26.73,26.73,0,0,1,51.9,176.9c-3.87-9-.52-11.49-.13-11.75l1.87-1.22.17,2.22c1.56,20.75,12,24.64,16.4,25.35a16.13,16.13,0,0,0,2.58.21,15,15,0,0,0,7.38-1.84l3.1-2-1.15,3.51c-1.05,3.23-4.5,5.09-9.47,5.09Z"/><path class="cls-2" d="M52.49,166.25C54,186.05,63.6,191.77,70,192.8a17.29,17.29,0,0,0,2.79.23A16.07,16.07,0,0,0,80.87,191c-.94,2.88-4.3,4.18-8.22,4.18-4.63,0-10-1.82-13.06-5a25.53,25.53,0,0,1-6.41-13.62c-3.66-8.35-.69-10.3-.69-10.3m2.29-4.64-3.73,2.44c-.79.52-4.52,3.59-.43,13.2A28.2,28.2,0,0,0,57.69,192c3.38,3.52,9.25,5.79,15,5.79,5.49,0,9.5-2.24,10.73-6l2.29-7-6.21,4a13.9,13.9,0,0,1-6.67,1.64,15.88,15.88,0,0,1-2.37-.19c-4.1-.67-13.81-4.34-15.3-24.16l-.34-4.44Z"/><path class="cls-5" d="M72.58,192.33a27.93,27.93,0,0,1-5.71-.65c-4.46-.93-8.38-5.28-11-12.26-2.43-6.39-3.7-15.42-1.66-18.19a15.16,15.16,0,0,1,6.71-5.15l.92-.31a13.72,13.72,0,0,1,1.66-2.68l.72-.93L80,161.79l.58,4.36-.1.28a7.65,7.65,0,0,1-3.72,4.25l.53.17c8,3,8.64,8.42,7.81,12.49C84,189.05,79.4,192.33,72.58,192.33Z"/><path class="cls-2" d="M64.51,153.89l14.31,8.7.45,3.43S78,169.9,74.19,169.9c-2.11,0-5-1.19-8.88-4.91,0,0-.34,2.86,5.38,5.84,0,0-4.35,1.49-4.92,3.66,0,0,3.9-2.9,8.2-2.9a8.2,8.2,0,0,1,2.9.5c5.27,1.94,8.13,5.37,7,11-.92,4.53-4.46,7.94-11.27,7.94a26.69,26.69,0,0,1-5.44-.61c-10.41-2.18-14.53-24.83-11.9-28.38a13.82,13.82,0,0,1,6.07-4.69s0,2.51,1.14,3.09c0,0-1-2.52,2.06-6.53m-.65-3.47-1.43,1.87a15,15,0,0,0-1.56,2.41l-.4.13a16.34,16.34,0,0,0-7.34,5.62c-2.41,3.25-1.11,12.62,1.48,19.44,2,5.24,5.7,11.77,12,13.08a29,29,0,0,0,6,.67c7.39,0,12.57-3.75,13.85-10,1.2-5.89-1.24-10.53-6.89-13.24a8.87,8.87,0,0,0,2.23-3.52l.19-.57-.08-.6-.46-3.43L81.26,161l-1.08-.66-14.3-8.69-2-1.23Z"/><path class="cls-4" d="M80.87,191A16.61,16.61,0,0,1,70,192.8c-6.4-1-16-6.75-17.51-26.55,0,0-3,1.95.69,10.3a25.53,25.53,0,0,0,6.41,13.62C65.2,196,78.82,197.26,80.87,191Z"/><path class="cls-5" d="M65.77,174.49s5.84-4.35,11.1-2.4,8.13,5.37,7,11-6.29,9.5-16.71,7.33S52.61,165.57,55.24,162a13.82,13.82,0,0,1,6.07-4.69s0,2.51,1.14,3.09c0,0-1-2.52,2.06-6.53l14.31,8.7.45,3.43s-3.09,9.39-14-1c0,0-.34,2.86,5.38,5.84C70.69,170.83,66.34,172.32,65.77,174.49Z"/><path class="cls-2" d="M49.18,131.85c0-2.26-.82-8.73-4.06-11.44l-3.28-2.74L46,116.55c2.82-.76,10.7-3.07,13.29-4.55.64-.36,1.4-.84,2.22-1.36,3.37-2.11,7.18-4.51,10.21-4.51a4.66,4.66,0,0,1,2.49.67,4.38,4.38,0,0,1,2,2.9c.56,2.79-1.41,6.07-3.41,8.92-2.12,3-10.59,10.15-20.35,15.18l-3.2,1.66Z"/><path class="cls-2" d="M71.68,108.35a2.44,2.44,0,0,1,1.31.34c2.62,1.65-.2,6-2,8.65S60.84,127,51.41,131.83c0,0-.1-9.14-4.87-13.13,0,0,10.41-2.82,13.81-4.76,2.93-1.68,8.24-5.59,11.33-5.59m0-4.44h0c-3.4,0-7,2.1-11.39,4.85-.8.5-1.56,1-2.15,1.31-2.11,1.21-9,3.3-12.76,4.34l-8.24,2.23,6.55,5.48c2.57,2.15,3.24,7.92,3.27,9.77l.11,7.16,6.37-3.27C62.66,131,72,123.6,74.59,119.9c2.39-3.39,4.5-7,3.78-10.64a6.66,6.66,0,0,0-3-4.34,6.82,6.82,0,0,0-3.68-1Z"/><path class="cls-6" d="M108.13,130.89c-2.8,0-5-3.46-5.95-6.43-1.53-4.54-.81-8.32,1.75-9.19a3.32,3.32,0,0,1,1-.16c2.79,0,4.95,3.46,5.95,6.43a13.54,13.54,0,0,1,.76,5.19c-.23,2.82-1.67,3.71-2.51,4A3.37,3.37,0,0,1,108.13,130.89Z"/><path class="cls-2" d="M104.93,117c1.36,0,3.13,2.14,4.13,5.12,1.09,3.26.85,6.28-.55,6.75a1.21,1.21,0,0,1-.38.06c-1.36,0-3.13-2.14-4.13-5.11-1.1-3.26-.86-6.28.54-6.76a1.23,1.23,0,0,1,.39-.06m0-3.84h0a5.08,5.08,0,0,0-1.61.26c-3.64,1.23-4.86,6-3,11.63,1.26,3.73,4,7.73,7.78,7.73a5.17,5.17,0,0,0,1.61-.26c1-.35,3.49-1.6,3.81-5.67a15.37,15.37,0,0,0-.85-6c-1.26-3.74-4-7.73-7.77-7.73Z"/><path class="cls-3" d="M68.2,137.31a6.87,6.87,0,0,1-4.57-1.7l-1-.93.28-1.37a143.69,143.69,0,0,1,6.39-20.88l4-10.28,2.61,3.75a26.06,26.06,0,0,1,4.51,18.25c-.67,4.77-2.82,8.73-5.89,10.87A11.22,11.22,0,0,1,68.2,137.31Z"/><path class="cls-2" d="M73.86,107.29A23.63,23.63,0,0,1,78,123.81c-.58,4.11-2.36,7.46-4.87,9.21a8.75,8.75,0,0,1-4.9,1.86,4.33,4.33,0,0,1-3-1.08,139.93,139.93,0,0,1,6.28-20.51l2.33-6M72.64,97l-3.3,8.51-2.33,6v0a144.28,144.28,0,0,0-6.5,21.25l-.56,2.73L62,137.42a9.31,9.31,0,0,0,6.19,2.32A13.5,13.5,0,0,0,75.87,137c3.62-2.52,6.13-7.08,6.9-12.52a28.47,28.47,0,0,0-4.92-20L72.64,97Z"/><path class="cls-7" d="M83.3,164.61c-5.7,0-10.91-1.8-14.3-4.93-6.38-5.89-8.32-12.62-6.69-23.24l.52-3.42,3,1.65a4.82,4.82,0,0,0,2.38.61,9.17,9.17,0,0,0,5.08-1.93c2.6-1.81,4.44-5.27,5-9.48a24.18,24.18,0,0,0-5.19-18.17l-.88-1.1,1.27-3.26,12.69-3.53.8.37c.63.28,15.3,7.1,20.08,22.93,1.06,2.08,7.66,16.18-.3,30.14C101.23,161.09,91,164.61,83.3,164.61Z"/><path class="cls-2" d="M86.06,100.39s14.38,6.52,18.82,21.64c0,0,7.71,14.23-.15,28A24.49,24.49,0,0,1,83.3,162.18c-5,0-9.65-1.51-12.66-4.28-5-4.62-7.63-10.06-5.93-21.09a7.38,7.38,0,0,0,3.54.9,11.36,11.36,0,0,0,6.46-2.36c3.16-2.2,5.37-6.26,6.06-11.14a26.61,26.61,0,0,0-5.7-20l.32-.82,10.67-3m.4-5.15-1.7.47-10.67,3-2.35.65-.88,2.27-.32.82-1,2.61,1.76,2.19A21.71,21.71,0,0,1,76,123.53c-.5,3.49-2,6.42-4,7.83a6.94,6.94,0,0,1-3.69,1.49,2.56,2.56,0,0,1-1.22-.3L61,129.23l-1.05,6.84c-1.75,11.37.48,19,7.44,25.39C71.19,165,77,167,83.3,167A29.42,29.42,0,0,0,109,152.45c8.32-14.59,1.89-29.31.46-32.23-5.16-16.74-20.68-24-21.34-24.25l-1.61-.73Z"/><path class="cls-3" d="M78,123.81c-.58,4.11-2.36,7.46-4.87,9.21-4.38,3-6.9,1.64-7.85.78a139.93,139.93,0,0,1,6.28-20.51l2.33-6A23.63,23.63,0,0,1,78,123.81Z"/><path class="cls-7" d="M68.25,137.71a11.36,11.36,0,0,0,6.46-2.36c3.16-2.2,5.37-6.26,6.06-11.14a26.61,26.61,0,0,0-5.7-20l.32-.82,10.67-3s14.38,6.52,18.82,21.64c0,0,7.71,14.23-.15,28s-26.38,15-34.09,7.86c-5-4.62-7.63-10.06-5.93-21.09A7.38,7.38,0,0,0,68.25,137.71Z"/><path class="cls-3" d="M89.68,117.67a.92.92,0,0,1-.82-.51c-4.61-9.48-7.74-11.35-7.78-11.36a1,1,0,0,1-.46-.86.92.92,0,0,1,.57-.79l4.33-1.69a1,1,0,0,1,.33-.06.91.91,0,0,1,.23,0c5.65,1.45,11.54,12,11.78,12.48a.9.9,0,0,1-.62,1.33l-7.39,1.41Z"/><path class="cls-2" d="M85.85,103.31c5.34,1.37,11.22,12,11.22,12l-7.39,1.41c-4.88-10-8.16-11.76-8.16-11.76l4.33-1.69m0-1.82a1.69,1.69,0,0,0-.66.13l-4.33,1.68a1.85,1.85,0,0,0-1.21,1.62,1.76,1.76,0,0,0,1,1.68c.28.19,3.19,2.31,7.39,11a1.83,1.83,0,0,0,1.64,1,1.87,1.87,0,0,0,.34,0l7.39-1.42a1.79,1.79,0,0,0,1.3-1,1.81,1.81,0,0,0,0-1.65c-.64-1.17-6.43-11.4-12.35-12.92a1.82,1.82,0,0,0-.46-.06Z"/><path class="cls-6" d="M89.07,135.17c-3.69,0-6.7-3.28-6.7-7.3s3-7.29,6.7-7.29,6.7,3.27,6.7,7.29S92.76,135.17,89.07,135.17Z"/><path class="cls-2" d="M89.07,121.39c3.25,0,5.89,2.9,5.89,6.48s-2.64,6.49-5.89,6.49-5.89-2.91-5.89-6.49,2.64-6.48,5.89-6.48m0-1.62c-4.14,0-7.51,3.64-7.51,8.1S84.93,136,89.07,136s7.51-3.64,7.51-8.11-3.37-8.1-7.51-8.1Z"/><path class="cls-6" d="M108.13,129.88c-2.12,0-4-2.88-5-5.74-1.13-3.36-1.11-7.16,1.12-7.91a2.2,2.2,0,0,1,.68-.11c2.11,0,4,2.88,5,5.74a12.48,12.48,0,0,1,.71,4.79c-.18,2.24-1.22,2.91-1.83,3.12A2.14,2.14,0,0,1,108.13,129.88Z"/><path class="cls-2" d="M104.93,117c1.36,0,3.13,2.14,4.13,5.12,1.09,3.26.85,6.28-.55,6.75a1.21,1.21,0,0,1-.38.06c-1.36,0-3.13-2.14-4.13-5.11-1.1-3.26-.86-6.28.54-6.76a1.23,1.23,0,0,1,.39-.06m0-1.82h0a3.13,3.13,0,0,0-1,.16c-2.51.85-3.2,4.57-1.69,9.06,1,2.93,3.11,6.35,5.86,6.35a2.89,2.89,0,0,0,1-.15c.81-.28,2.21-1.15,2.44-3.91a13.35,13.35,0,0,0-.76-5.15c-1-2.93-3.11-6.36-5.85-6.36Z"/><path class="cls-2" d="M50.39,131.84c0-.09-.15-8.73-4.5-12.36l-1.48-1.25,1.87-.51c.1,0,10.32-2.8,13.57-4.66.65-.38,1.43-.86,2.27-1.39,3.07-1.93,6.88-4.33,9.56-4.33a3.47,3.47,0,0,1,1.85.49A3.17,3.17,0,0,1,75,109.94c.47,2.34-1.36,5.35-3.22,8-2.09,3-10.67,10-19.9,14.81l-1.46.75Z"/><path class="cls-2" d="M71.68,108.35a2.44,2.44,0,0,1,1.31.34c2.62,1.65-.2,6-2,8.65S60.84,127,51.41,131.83c0,0-.1-9.14-4.87-13.13,0,0,10.41-2.82,13.81-4.76,2.93-1.68,8.24-5.59,11.33-5.59m0-2h0c-3,0-6.76,2.38-10.1,4.48-.82.52-1.61,1-2.23,1.37-2.61,1.49-10.51,3.8-13.34,4.57l-3.74,1,3,2.49c3.3,2.77,4.1,9.31,4.13,11.6l0,3.27,2.9-1.49c9.36-4.83,18.12-12.06,20.27-15.13,2-2.81,3.93-6,3.38-8.76A4.13,4.13,0,0,0,74.07,107a4.39,4.39,0,0,0-2.39-.65Z"/><path class="cls-1" d="M24.71,156a4.15,4.15,0,0,1-1.81-.43c-3.83-1.84-5.08-5.81-3.19-10.1a13.16,13.16,0,0,1,3-4c.2-.2.44-.43.66-.67-1.33-.32-3.5-.61-5.07-.83a47.11,47.11,0,0,1-7.17-1.32c-6-1.89-9.4-5.33-9.11-9.19a5.69,5.69,0,0,1,2-4c-1.62-2.26-2.08-5.2-.88-7.36a5.54,5.54,0,0,1,4.13-2.7,5.2,5.2,0,0,1,5.07-4.46,4.41,4.41,0,0,1,1,.11l1.34.35a4.54,4.54,0,0,1,3.4-1.52,7.45,7.45,0,0,1,3.88,1.3c1.74,1.07,8.5,4.53,11.44,4.72a11.16,11.16,0,0,1,3.36.79l.54-.31a7.23,7.23,0,0,1,3.53-1A8.2,8.2,0,0,1,47,118.77c3.08,3.71,4.95,10.08,4.18,14.21-1.1,5.83-5.07,6.28-6.27,6.28a5.5,5.5,0,0,1-1.26-.14l-.6-.16a32.11,32.11,0,0,1-8.4,7.58A17.23,17.23,0,0,0,32.76,148,18.81,18.81,0,0,0,31.4,150c-1.62,2.66-3.63,6-6.69,6Z"/><path class="cls-2" d="M18,111.9a5.73,5.73,0,0,1,2.82,1c1.52.93,8.75,4.78,12.37,5s6.89,3.15,6.89,3.15a5.45,5.45,0,0,0-1.87-2.92,5.19,5.19,0,0,1,2.54-.71c5.55,0,9.34,10.3,8.43,15.18-.77,4.07-3.07,4.63-4.28,4.63a3.06,3.06,0,0,1-.74-.08,19.12,19.12,0,0,0,0-6.65c-.93,9.8-11.2,14.12-13,16.1-1.58,1.78-3.81,7.34-6.54,7.34a2.18,2.18,0,0,1-.93-.22c-3.15-1.52-3.5-4.55-2.22-7.47S26,142,26,140.08s-9.81-2-14.24-3.39-7.94-4-7.7-7.11A4,4,0,0,1,7.44,126c-2.45-1.52-3.73-4.79-2.57-6.89.88-1.57,2.81-1.77,3.71-1.77.31,0,.5,0,.5,0,0-3.6,2.05-4.37,3.23-4.37a1.75,1.75,0,0,1,.5.06c.93.23,2.68.7,2.68.7A2.78,2.78,0,0,1,18,111.9m0-4.05h0a6.48,6.48,0,0,0-3.94,1.31l-.31-.08a6.39,6.39,0,0,0-1.48-.17,7.06,7.06,0,0,0-4.88,2,7.52,7.52,0,0,0-1.79,2.8,7.32,7.32,0,0,0-4.3,3.42,8.67,8.67,0,0,0,.14,8.1A7.83,7.83,0,0,0,0,129.28c-.36,4.86,3.57,9.08,10.52,11.27A49.51,49.51,0,0,0,18,142l1.33.18a11.85,11.85,0,0,0-1.51,2.5c-2.33,5.3-.66,10.42,4.16,12.74a6.1,6.1,0,0,0,2.69.63c4.19,0,6.63-4,8.42-6.94.37-.6.86-1.42,1.11-1.72s1-.73,1.59-1.13a36.34,36.34,0,0,0,8.09-7,9.25,9.25,0,0,0,1,.07c3.27,0,7.16-2.09,8.25-7.94.89-4.72-1.14-11.69-4.61-15.87-2.8-3.39-5.78-4.1-7.79-4.1a9.25,9.25,0,0,0-4.25,1.08,13.08,13.08,0,0,0-3-.59c-2.27-.15-8.49-3.19-10.51-4.42a9.33,9.33,0,0,0-4.94-1.6Z"/><path class="cls-1" d="M44.2,130.51a19.12,19.12,0,0,1,0,6.65s4,1.05,5-4.55-4.09-18.32-11-14.47a5.45,5.45,0,0,1,1.87,2.92s-3.27-2.92-6.89-3.15-10.85-4.09-12.37-5-4-2-5.37.82c0,0-1.75-.47-2.68-.7s-3.73.11-3.73,4.31c0,0-3-.35-4.21,1.75S5,124.44,7.44,126a4,4,0,0,0-3.38,3.62c-.24,3.15,3.27,5.71,7.7,7.11S26,138.21,26,140.08s-3.16,3.26-4.44,6.18-.93,6,2.22,7.47,5.72-5.14,7.47-7.12S43.27,140.31,44.2,130.51Z"/><path class="cls-2" d="M22.26,118.53a.51.51,0,0,0,.45-.27.51.51,0,0,0-.21-.68A42.61,42.61,0,0,1,17,114a20.81,20.81,0,0,0-4.7-2.79,6.31,6.31,0,0,1-.6-.28.5.5,0,0,0-.69.17.51.51,0,0,0,.17.7c.17.1.4.2.71.34a19.16,19.16,0,0,1,4.49,2.66A41,41,0,0,0,22,118.47a.46.46,0,0,0,.23.06Z"/><path class="cls-2" d="M20.75,123a.5.5,0,0,0,0-1c-.06,0-4-.46-12.73-6a.49.49,0,0,0-.69.16.51.51,0,0,0,.15.7c9,5.72,13,6.13,13.18,6.14Z"/><path class="cls-2" d="M18.88,129.5a.49.49,0,0,0,.49-.42.5.5,0,0,0-.4-.58,71.66,71.66,0,0,1-9-2.32,60.3,60.3,0,0,1-6-2.42.49.49,0,0,0-.67.22.5.5,0,0,0,.22.68,60.07,60.07,0,0,0,6.13,2.47,71.85,71.85,0,0,0,9.18,2.36Z"/><path class="cls-2" d="M8.28,114.59s1.28,2.43,6.2,5.66l-7.82-4.51Z"/><path class="cls-2" d="M4,119.72s-1.41,2.69,4.05,6.06L1.4,123.36Z"/><path class="cls-2" d="M3.63,129.23s.6-3.65,6.13-2.5L3.29,124.3Z"/><path class="cls-2" d="M11.45,118.57s-3.91-2.43-6.47.07l-.54-2.43,2.69-1.15Z"/><path class="cls-2" d="M17.59,115.06s-2.23-2.36-2-3l-1.41.61Z"/><path class="cls-2" d="M9.83,113.72s2.5-2,6.81,1.14l-5-4.45Z"/><path class="cls-2" d="M32.62,121.82c.24-.39-1.33-1-2.52-1.48s-3.85-1.78-4.44-.15,3.26,1.85,4.52,1.93S32.18,122.56,32.62,121.82Z"/><path class="cls-2" d="M33.62,128.05c.13-.5-1.78-.63-3.26-.81s-4.84-.71-5,1.29,4.2,1,5.62.65S33.38,129,33.62,128.05Z"/><path class="cls-3" d="M51.41,131.83s-.1-9.14-4.87-13.13c0,0,10.41-2.82,13.81-4.76s10-6.91,12.64-5.25-.2,6-2,8.65S60.84,127,51.41,131.83Z"/><path class="cls-1" d="M123.49,69.71c-.5,0-1,0-1.55-.08-4.28-.46-9.59-3.39-9.82-3.51l-.29-.17L105.11,50.7l.15-6.82-4.11-5.75,6.8-4.3.34,0c2.94.29,4.35,2.73,5,4.87-.94-3.72-2.4-4.35-2.41-4.35l-1.11-.33.51-1,.29-.65-.59-4.5,0-.13c.52-4.08,2.79-6.51,6.06-6.51a7.93,7.93,0,0,1,2.09.3c2.76.76,4.36,3.82,4.78,9.1.1-.84.19-1.64.26-2.3.14-1.31.25-2.34.37-3,.35-1.8,2.16-4.46,5-4.46a6.11,6.11,0,0,1,4.11,1.89c3.15,2.91,2.29,8,1,11.5a17.32,17.32,0,0,0,1.26-2.48c1-3,2.72-3.64,4-3.64a5.45,5.45,0,0,1,2.88,1,5,5,0,0,1,2.24,3.76,12.25,12.25,0,0,1-2,7.26,4.16,4.16,0,0,1,.31-.3,4.48,4.48,0,0,1,2.86-.94c2.43,0,4.11,1.64,4.48,4.39.67,4.86-6.67,8.24-9.8,9.69l-.58.26a2.28,2.28,0,0,0-1.19,1.23,16.38,16.38,0,0,1-4,4.69,13.59,13.59,0,0,1-4.69,2.67h.31l.2.8a5.52,5.52,0,0,1-.75,4.9C128.09,69,126.11,69.71,123.49,69.71Z"/><path class="cls-2" d="M128.54,21.9A5.12,5.12,0,0,1,132,23.52c4,3.74.41,11.93-.81,13.86-1,1.53-2.32,3-1.76,3a2.39,2.39,0,0,0,.85-.32c2.13-1.12,5.26-6.78,5.66-8,.31-.91,1.12-2.95,3-2.95a4.42,4.42,0,0,1,2.34.82c3.64,2.33,1.21,8.9-1.93,12.14-2.47,2.56-5.08,3.54-4.52,3.54.15,0,.53-.08,1.19-.2,3.13-.61,6.07-3.95,7.08-4.86a3.54,3.54,0,0,1,2.18-.68c1.46,0,3.11.8,3.48,3.52.61,4.45-7.69,7.89-9.81,8.89s-.81,2-5.46,6.08a13.66,13.66,0,0,1-9,3.2,12.15,12.15,0,0,1-2.74-.27,3.86,3.86,0,0,0-1-.13c-.7,0-1,.28-.06.92s5.13.74,7.14.74H129c1,4.3-1.93,5.83-5.48,5.83a14.05,14.05,0,0,1-1.44-.08c-4.13-.44-9.44-3.39-9.44-3.39L106.13,50.5l.15-6.93-3.69-5.16,5.6-3.54c4.42.44,4.72,7.23,4.72,7.23a7.41,7.41,0,0,1,1-.07,12.73,12.73,0,0,1,8.09,3.45c-2.68-4.89-6.38-5.18-7.21-5.18h-.18c-1-6.17-3.44-6.88-3.44-6.88l.41-.91L111,27.87c.43-3.31,2.13-5.63,5.06-5.63a6.86,6.86,0,0,1,1.82.27c4,1.11,4.15,8.59,4.15,11.12,0,2-.57,4-.17,4,.11,0,.29-.15.57-.5,1.32-1.62,1.72-9.5,2.13-11.63.27-1.46,1.75-3.64,4-3.64m0-2h0c-3.18,0-5.24,2.68-5.84,4.83a6.61,6.61,0,0,0-4.26-4.16,9.12,9.12,0,0,0-2.36-.33c-3.77,0-6.48,2.83-7.07,7.39l0,.26,0,.26.53,4.09-.18.39-.17.38a6.85,6.85,0,0,0-.81-.13l-.69-.07-.59.37-5.6,3.54L99.7,37.84,101,39.59l3.29,4.61-.13,6.25v.45l.18.41,6.48,14.74.28.62.59.33c.23.13,5.72,3.16,10.2,3.64.57,0,1.13.09,1.66.09,3,0,5.2-.89,6.51-2.56a6.44,6.44,0,0,0,.94-5.77v0a14.71,14.71,0,0,0,3.87-2.43A17.08,17.08,0,0,0,139.06,55c.36-.62.37-.63.75-.82l.56-.26c3.34-1.54,11.15-5.14,10.39-10.74-.53-3.88-3.19-5.26-5.49-5.26a6.77,6.77,0,0,0-1,.08,11.42,11.42,0,0,0,.8-5.21,6,6,0,0,0-2.7-4.49,6.41,6.41,0,0,0-3.43-1.14,4.5,4.5,0,0,0-3.09,1.22A8.34,8.34,0,0,0,133.33,22a7,7,0,0,0-4.79-2.15Z"/><path class="cls-1" d="M122.05,45.48s-4-4-9.14-3.38c0,0-.3-6.79-4.72-7.23l-5.6,3.54,3.69,5.16-.15,6.93,6.48,14.73s5.31,3,9.44,3.39,8.1-.88,6.92-5.75c0,0-6.92.15-8.25-.73s-.19-1.1,1-.79a14.11,14.11,0,0,0,11.74-2.93c4.65-4.05,3.33-5.06,5.46-6.08s10.42-4.44,9.81-8.89-4.65-3.75-5.66-2.84-4,4.25-7.08,4.86.2-.1,3.33-3.34,5.57-9.81,1.93-12.14-5,.91-5.37,2.13-3.53,6.87-5.66,8-.3-.81.91-2.73S136,27.26,132,23.52s-7-.1-7.38,2-.81,10-2.13,11.63-.4-1-.4-3.54-.1-10-4.15-11.12-6.37,1.41-6.88,5.36l.61,4.65-.41.91s2.43.71,3.44,6.88C114.66,40.31,119,39.94,122.05,45.48Z"/><path class="cls-2" d="M85.38,34.66S92,44,93.67,49.49c0,0-6.28,4.52-6.16,9,0,0,3.52-6.79,10.69-8.8S113,52.38,113,59.67s-7.29,15.46-21.24,12.57l.16.34s-7.25.69-11.88-.68-7.24-2.43-8.25,2.29,1.27,12.75,12.7,12.65l9.2-3,2.74-2.43s2.32.84,2.72.91a25.71,25.71,0,0,1-3,7.42,41.32,41.32,0,0,1-4.86,6.94c-.6.81-2,2.5-1.81,4.52,0,0-8.5,2.09-13.56.81,0,0-4-12.41-14.7-17.2,0,0-1.76,4.59-9.11,4.66S40.65,83.7,39.44,79s.87-12.54,13.48-11.32L48.2,53.09Z"/><path class="cls-2" d="M79.89,105.43a19.24,19.24,0,0,1-4.71-.51l-1.63-.41L73,102.92c0-.1-3.21-9.46-10.9-14.22-1.88,1.92-5.1,3.73-10,3.77H52c-8.44,0-13.86-6.39-15.49-12.73a12.1,12.1,0,0,1,2-10.36c1.58-2,4.61-4.43,10.25-4.83l-4.22-13L86.34,30.79l1.5,2.1c.26.36,6,8.42,8.27,14.34.41-.15.83-.29,1.27-.41a15.54,15.54,0,0,1,4.23-.59c8.11,0,14.45,5.9,14.45,13.44,0,7.85-6.57,16.2-18.75,16.2A28.23,28.23,0,0,1,93,75.53l-.75.08c-.08,0-2,.18-4.49.18a30.52,30.52,0,0,1-8.53-1l-.71-.2a17,17,0,0,0-3.39-.83,4.79,4.79,0,0,0-.33,1,7.46,7.46,0,0,0,1.39,6c1.57,1.93,4.21,2.93,7.86,3l8.15-2.69c.58-.51,1.57-1.39,2.24-2l1.36-1.22,1.71.62c.85.32,1.94.69,2.29.79l2.93.49-.54,3a28.25,28.25,0,0,1-3.38,8.39A42,42,0,0,1,94.11,98l-.39.47-.09.12A4.49,4.49,0,0,0,92.5,101l.17,2.54-2.47.61A49.9,49.9,0,0,1,79.89,105.43Zm-1.76-6.15a16,16,0,0,0,1.76.08,40.31,40.31,0,0,0,6.88-.72,11.67,11.67,0,0,1,2-3.7l.08-.11c.14-.19.34-.43.59-.73a36.51,36.51,0,0,0,4.05-5.89c.28-.48.52-.95.75-1.38l-9.24,3H84.3c-7.11,0-10.91-2.86-12.85-5.25a13.53,13.53,0,0,1-2.6-11.07c1-4.85,3.93-5.86,6.19-5.86a19,19,0,0,1,5.21,1.08l.68.21a19.4,19.4,0,0,0,3.85.63l-.3-11c-.12-4.27,3.34-8.09,5.6-10.12a72.66,72.66,0,0,0-5.71-10L51.9,54.64l5.34,16.48-4.61-.45c-.77-.07-1.52-.11-2.22-.11-2.36,0-5.5.44-7.13,2.54a6.14,6.14,0,0,0-.91,5.13c.22.83,2.32,8.17,9.62,8.17h.1c5,0,6.28-2.67,6.29-2.7l1.15-3L62.46,82C71.8,86.21,76.51,95.41,78.13,99.28ZM86.5,68l5.9,1.23a24.62,24.62,0,0,0,4.91.53c8.24,0,12.69-5.22,12.69-10.13,0-4.61-4.27-7.37-8.39-7.37a9.42,9.42,0,0,0-2.59.36c-5.74,1.61-8.78,7.22-8.81,7.27l-5,9.71c.66,0,1.37.07,2.11.08Z"/><path class="cls-2" d="M59.76,74a7.48,7.48,0,0,1-2.38-.35c-2.61-.85-6.61-4.16-7.39-4.81l-1.47-1.24,4-15.45,3.77,4.74c1.43,1.79,2.18,2.26,2.64,2.39a.52.52,0,0,0,.11-.1,5.15,5.15,0,0,1,3.53-1.61A5.93,5.93,0,0,1,67,59.49c1.47,1.59,2.1,3.87,1.87,6.75C68.42,71.33,64,74,59.76,74Z"/><path class="cls-2" d="M54,58.77c2.17,2.73,3.59,3.49,5.21,3.59h.12c1.53,0,2.09-1.77,3.32-1.77s3.54,1,3.18,5.41c-.28,3.59-3.63,5-6,5a4.77,4.77,0,0,1-1.44-.2C56.14,70.05,52,66.51,52,66.51l2-7.74M51.16,45.5,48.1,57.23l-2,7.74-1,3.71L48,71.15c1.54,1.29,5.43,4.41,8.41,5.38a10.79,10.79,0,0,0,3.32.5c7.38,0,11.67-5.3,12.09-10.54.38-4.69-1.24-7.52-2.66-9.06a9,9,0,0,0-6.57-2.91,7.3,7.3,0,0,0-3.54.91L58.72,55,51.16,45.5Z"/><path class="cls-2" d="M110,72.28s.54,3.73-2.41,5.54-6.8,3.67-11.44.42c0,0-5.36,6.26-11.5,6.32S74.91,81,74.13,77.1s1.69-4.09,3.25-3.43,7.53,1.86,16.37-.12C93.75,73.55,100.8,77.22,110,72.28Z"/><path class="cls-2" d="M84.51,87.6c-7.86,0-12.37-5-13.35-9.9-.48-2.36-.15-4.24,1-5.6A4.88,4.88,0,0,1,76,70.34a6.43,6.43,0,0,1,2.56.54,18.93,18.93,0,0,0,5.88.73,40.06,40.06,0,0,0,8.65-1l1.08-.25,1,.52h0a12.69,12.69,0,0,0,5.11,1h0a17.52,17.52,0,0,0,8.3-2.22l3.82-2,.62,4.29a8.71,8.71,0,0,1-3.83,8.56,15,15,0,0,1-7.87,2.64,11.19,11.19,0,0,1-4.63-1c-2.38,2.17-6.86,5.52-12,5.57ZM77.18,76.8c.59,2.25,2.81,4.73,7.33,4.73h.12c3.52,0,7.22-3.15,8.82-4.81a45.51,45.51,0,0,1-9,1A26.47,26.47,0,0,1,77.18,76.8Z"/><path class="cls-2" d="M38.24,72.51l-.44-.46c-3.93-4.13-8-8.4-7.39-15.22C31,50.24,38,46.19,39.86,45.22c.62-10.17,5.35-23.09,12.21-32C57.25,6.57,63,3,68.62,3c.24,0,.48,0,.72,0,14,.74,19.8,15,20.91,22.4l.43,2.91-2.88.53c-5.17.94-15.27,4.17-24.87,15.13-7.93,9-10.09,22.51-10.11,22.64l-.47,3.07-3.06-.55A11.05,11.05,0,0,0,47.38,69c-3.17,0-3.9,1.84-4,2.21L42.26,77Z"/><path class="cls-2" d="M68.62,6.07l.56,0c15.24.8,18.07,19.82,18.07,19.82-8.09,1.49-18,6.31-26.6,16.12S49.82,66.2,49.82,66.2A14.71,14.71,0,0,0,47.38,66c-5.84,0-6.94,4.44-6.94,4.44-3.84-4-7.51-7.66-7-13.32s8.1-9.33,8.1-9.33.46,3.46.73,4.37a.83.83,0,0,0,.83.66,1,1,0,0,0,.31,0C39.68,38.36,53.59,6.07,68.62,6.07m0-6.07C62,0,55.44,3.94,49.67,11.39c-6.21,8-11.68,20.82-12.75,32-3.18,2-8.93,6.41-9.53,13.15-.73,8.19,4.23,13.4,8.22,17.58l.43.46,7.63,8,2.57-10.37a2.16,2.16,0,0,1,1.14-.21,7.88,7.88,0,0,1,1.38.13l6.11,1.08,1-6.13c0-.11,2.11-12.79,9.39-21.1,9-10.27,18.36-13.27,23.13-14.15l5.78-1.06L93.25,25C92,16.75,85.47.87,69.5,0l-.88,0Z"/><path class="cls-2" d="M74.54,38.1a14.09,14.09,0,0,1-12.28-7.84,14.42,14.42,0,0,1-1.17-10.32A12.33,12.33,0,0,1,67.38,12a12,12,0,0,1,5.51-1.32,14.09,14.09,0,0,1,12.28,7.84c3.49,6.83,1.19,15-5.12,18.24a12,12,0,0,1-5.51,1.32Z"/><path class="cls-2" d="M72.89,13.73a11,11,0,0,1,9.58,6.19c2.73,5.35,1,11.69-3.81,14.16a9,9,0,0,1-4.12,1A11,11,0,0,1,65,28.88c-2.73-5.35-1-11.68,3.8-14.16a9.06,9.06,0,0,1,4.13-1m0-6.06A15,15,0,0,0,66,9.32a15.35,15.35,0,0,0-7.84,9.83,17.44,17.44,0,0,0,1.4,12.49,17.15,17.15,0,0,0,15,9.49,15,15,0,0,0,6.89-1.65c7.81-4,10.7-14,6.44-22.32a17.15,17.15,0,0,0-15-9.49Z"/><polygon class="cls-2" points="75.56 15.22 81 26.56 71.56 30.86 69.59 27.04 75.74 24.95 71.38 17.07 75.56 15.22"/><polygon class="cls-2" points="70.19 34.82 65.28 25.3 71.33 23.25 67.12 15.64 77.03 11.25 85.07 28.04 70.19 34.82"/><path class="cls-2" d="M53.18,52.33C60.13,35,78.7,25.59,89.66,24.44c2.09-.21,4-.33,5.82-.33,7.12,0,10.37,1.78,12.32,2.85l.12.06c2.56,1.4,2.57,3.23,2.35,4.2-.63,2.82-3.9,3-5.86,3.12-1.54.08-3.9.59-11.94,3C84.19,39.84,72.86,47,67.81,51.07c-6.26,5-11.14,5.39-11.67,5.42l-4.72.22Z"/><path class="cls-2" d="M95.48,27.15c6.5,0,9.2,1.56,11,2.54,2.22,1.21-.41,1.51-2.23,1.62s-4.24.6-12.64,3.13-20,9.71-25.69,14.26S56,53.46,56,53.46c6.38-15.88,23.37-24.89,34-26a52.6,52.6,0,0,1,5.5-.31m0-6.07a59.24,59.24,0,0,0-6.13.35c-13.69,1.43-32,12.35-39,29.77L46.84,60l9.44-.45c1-.05,6.57-.58,13.43-6.09,5.06-4.06,16.09-10.9,23.64-13.18s10-2.82,11.23-2.88c2.06-.12,7.51-.42,8.65-5.48.19-.81.86-5-3.86-7.53l-.12-.07c-2-1.12-5.87-3.21-13.77-3.21Z"/><path class="cls-2" d="M88.48,95.27c-4.22,0-5.24-5.67-5.67-8.09a3,3,0,0,1,2.35-3.5c2-.44,5.37-1.43,6.54-2.26a3,3,0,0,1,4.69,3.28c-.24.88-1.55,5.38-3.21,7.53C92.36,93.29,90.84,95.27,88.48,95.27Z"/><path class="cls-2" d="M93.47,83.88s-1.31,4.7-2.7,6.5c-.65.84-1.46,1.85-2.29,1.85s-1.91-1.29-2.68-5.58c0,0,5.46-1.18,7.67-2.77m0-6.07a6.1,6.1,0,0,0-3.53,1.13,24.13,24.13,0,0,1-5.42,1.77,6.08,6.08,0,0,0-4.7,7c.47,2.62,1.9,10.58,8.66,10.58,3.86,0,6.13-3,7.1-4.22,1.9-2.47,3.24-6.81,3.73-8.56a6.07,6.07,0,0,0-5.84-7.71Z"/><path class="cls-2" d="M90.9,93.24a2.94,2.94,0,0,1-.72-.08,3,3,0,0,1-2.29-2.55,3.92,3.92,0,0,0-1-2.42A3,3,0,0,1,87.92,83a14,14,0,0,0,3.78-1.54,3,3,0,0,1,1.77-.57,3,3,0,0,1,1.74.55,3,3,0,0,1,1.18,3.3c-.23.82-1.45,5-3,7.25A3,3,0,0,1,90.9,93.24Z"/><path class="cls-2" d="M93.47,83.88s-1.24,4.43-2.57,6.33a6.89,6.89,0,0,0-2.11-4.35,17.4,17.4,0,0,0,4.68-2m0-6.07a6.1,6.1,0,0,0-3.53,1.13,13.09,13.09,0,0,1-2.89,1.11,6.07,6.07,0,0,0-2.34,10.3,2.39,2.39,0,0,1,.17.66,6.09,6.09,0,0,0,4.58,5.1,6.44,6.44,0,0,0,1.44.17,6.07,6.07,0,0,0,5-2.59,31,31,0,0,0,3.44-8.17,6.07,6.07,0,0,0-5.84-7.71Z"/><path class="cls-2" d="M93.47,83.88s-1.31,4.7-2.7,6.5-3.52,4.35-5-3.73C85.8,86.65,91.26,85.47,93.47,83.88Z"/><path class="cls-2" d="M88.48,95.27c-4.22,0-5.24-5.67-5.67-8.09l-.52-2.88,2.87-.62c2-.44,5.37-1.43,6.54-2.26l7-5L96.39,84.7c-.24.88-1.55,5.38-3.21,7.53C92.36,93.29,90.84,95.27,88.48,95.27Z"/><path class="cls-2" d="M88.79,85.86a17.4,17.4,0,0,0,4.68-2s-1.24,4.43-2.57,6.33A6.89,6.89,0,0,0,88.79,85.86Z"/><path class="cls-2" d="M88.92,98.32l-1-7.71a3.92,3.92,0,0,0-1-2.42l-4.3-3.62L87.92,83a14,14,0,0,0,3.78-1.54l7-5L96.39,84.7c-.23.82-1.45,5-3,7.25Z"/><path class="cls-2" d="M74.55,55.38c1.22,3.56,3.31,6.06,4.68,5.59s1.49-3.72.28-7.28-3.31-6.06-4.68-5.59S73.34,51.83,74.55,55.38Z"/><path class="cls-2" d="M78.88,64.06h0c-3.37,0-5.93-4-7.2-7.7a16.92,16.92,0,0,1-1-5.89c.14-3.67,2-4.86,3.16-5.24A4.26,4.26,0,0,1,75.18,45c3.37,0,5.93,4,7.2,7.7a17,17,0,0,1,1,5.9c-.14,3.67-2,4.85-3.16,5.23A4,4,0,0,1,78.88,64.06Z"/><path class="cls-2" d="M87.69,42.38c1.37-.47,3.47,2,4.68,5.59a16,16,0,0,1,.75,3.18A23.62,23.62,0,0,0,90,54.26a13.14,13.14,0,0,1-2.55-4.6C86.2,46.1,86.32,42.84,87.69,42.38Z"/><path class="cls-2" d="M90.13,58.88l-2.39-2.54a16.21,16.21,0,0,1-3.2-5.7,17.21,17.21,0,0,1-1-5.9c.14-3.66,2-4.85,3.16-5.24A4.26,4.26,0,0,1,88,39.28c3.37,0,5.93,4,7.2,7.71a18.69,18.69,0,0,1,.89,3.79l.2,1.63-1.26,1.06a20.84,20.84,0,0,0-2.75,2.7Z"/><path class="cls-2" d="M46.47,74.44a10.51,10.51,0,0,1,7.22,1.72s-3,.39-3.44,1.77c0,0,3.83-1.82,5.89.14s-.1,5.85-4.61,6.54c0,0,4.66,1.47,6.48-3.79S50.84,71.69,46.47,74.44Z"/><path class="cls-2" d="M53,87.83h0a8.21,8.21,0,0,1-2.37-.33l.46-5.9a3.86,3.86,0,0,0,2.66-1.4h-.17a5.67,5.67,0,0,0-2,.48l-6.25,2.86,1.95-6.13-.32,0-2.06-5.57A9.63,9.63,0,0,1,50,70.5a12.49,12.49,0,0,1,9.87,4.68A7.5,7.5,0,0,1,61.13,78l.26.19-.21,0a7.17,7.17,0,0,1-.3,3.57C59.55,85.64,56.68,87.83,53,87.83Z"/><path class="cls-2" d="M113.14,30.63S115,38.51,93.59,44.52l-3-6.34Z"/><path class="cls-8" d="M66.62,99.71a5.38,5.38,0,0,1-3.86-1.62,7.62,7.62,0,0,1-2.77.59,5,5,0,0,1-2.6-.69,3.85,3.85,0,0,1-2-2.77c-.27-1.93,1.16-3.47,1.85-4.21a5.6,5.6,0,0,0,1-1.47c.07-.47.28-1.31,2.4-3l1.2-1,1.24.9c.69.51,6.83,5,8.72,9.07l.69,1.47-1.28,1A8.25,8.25,0,0,1,66.62,99.71Z"/><path class="cls-2" d="M61.89,88.17s6.36,4.62,8.08,8.29a6.28,6.28,0,0,1-3.35,1.22,3.64,3.64,0,0,1-3.28-2.19A6.76,6.76,0,0,1,60,96.66a2.94,2.94,0,0,1-1.56-.41c-2.07-1.24-.62-2.9.28-3.87a5.93,5.93,0,0,0,1.52-2.49c.07-.48,1.66-1.72,1.66-1.72M61.8,83.1,59.39,85c-1.83,1.44-2.76,2.6-3.08,3.89a4,4,0,0,1-.57.76c-.83.89-2.77,3-2.36,5.87a5.83,5.83,0,0,0,3,4.22,7,7,0,0,0,3.64,1,8.74,8.74,0,0,0,2.33-.34,7.26,7.26,0,0,0,4.3,1.36,10.21,10.21,0,0,0,5.83-2.07l2.57-2-1.39-2.93c-2.06-4.38-8.16-9-9.36-9.84L61.8,83.1Z"/><path class="cls-9" d="M85.38,34.66S92,44,93.67,49.49c0,0-6.28,4.52-6.16,9,0,0,3.52-6.79,10.69-8.8S113,52.38,113,59.67s-7.29,15.46-21.24,12.57l.16.34s-7.25.69-11.88-.68-7.24-2.43-8.25,2.29,1.27,12.75,12.7,12.65l9.2-3,2.74-2.43s2.32.84,2.72.91a25.71,25.71,0,0,1-3,7.42,41.32,41.32,0,0,1-4.86,6.94c-.6.81-2,2.5-1.81,4.52,0,0-8.5,2.09-13.56.81,0,0-4-12.41-14.7-17.2,0,0-1.76,4.59-9.11,4.66S40.65,83.7,39.44,79s.87-12.54,13.48-11.32L48.2,53.09Z"/><path class="cls-8" d="M59.76,71.87A5.66,5.66,0,0,1,58,71.62c-2.28-.74-6.24-4-6.68-4.42l-.44-.37,2.63-10,1.13,1.42c2.07,2.6,3.28,3.17,4.56,3.25h0c.49,0,.81-.27,1.29-.71a3.09,3.09,0,0,1,2.09-1.06,3.8,3.8,0,0,1,2.78,1.25c1,1.14,1.5,2.87,1.31,5.15C66.41,69.88,63,71.87,59.76,71.87Z"/><path class="cls-2" d="M54,58.77c2.17,2.73,3.59,3.49,5.21,3.59h.12c1.53,0,2.09-1.77,3.32-1.77s3.54,1,3.18,5.41c-.28,3.59-3.63,5-6,5a4.77,4.77,0,0,1-1.44-.2C56.14,70.05,52,66.51,52,66.51l2-7.74m-.84-4-.92,3.52-2,7.74-.29,1.11.88.74c.46.39,4.54,3.79,7,4.59a6.64,6.64,0,0,0,2,.29c3.64,0,7.51-2.28,7.86-6.63.2-2.54-.32-4.5-1.55-5.84a4.73,4.73,0,0,0-3.45-1.54,3.94,3.94,0,0,0-2.71,1.3c-.16.15-.51.47-.61.47-.85,0-1.85-.32-3.91-2.9l-2.26-2.85Z"/><path class="cls-8" d="M110,72.28s.54,3.73-2.41,5.54-6.8,3.67-11.44.42c0,0-5.36,6.26-11.5,6.32S74.91,81,74.13,77.1s1.69-4.09,3.25-3.43,7.53,1.86,16.37-.12C93.75,73.55,100.8,77.22,110,72.28Z"/><path class="cls-3" d="M38.25,70.17c-3.91-4.12-5.8-7.28-5.28-13.11S41,47.5,41.34,47.35l.59-.28.08.64c.16,1.18.51,3.6.71,4.29a1.47,1.47,0,0,0,.07.17c-2.07-9.73,3-26.59,11.31-37.35,4.67-6,9.69-9.22,14.52-9.22h.58c15.45.82,18.49,20,18.52,20.23l.06.45-.45.08c-5.49,1-16.21,4.43-26.33,16-8.41,9.59-10.69,23.8-10.71,23.94l-.08.47-.47-.08a15.39,15.39,0,0,0-2.65-.25c-5.68,0-8.08,3.64-8.1,3.68l-.32.51Z"/><path class="cls-2" d="M68.62,6.07l.56,0c15.24.8,18.07,19.82,18.07,19.82-8.09,1.49-18,6.31-26.6,16.12S49.82,66.2,49.82,66.2A15.94,15.94,0,0,0,47.09,66c-6,0-8.5,3.89-8.5,3.89-3.84-4-5.66-7.09-5.15-12.75s8.1-9.33,8.1-9.33.46,3.46.73,4.37a.83.83,0,0,0,.83.66,1,1,0,0,0,.31,0C39.68,38.36,53.59,6.07,68.62,6.07m0-.94c-5,0-10.13,3.25-14.89,9.4-6.94,9-11.63,22.17-11.86,32l-.73.36c-.33.16-8.1,4-8.64,10.09s1.4,9.25,5.41,13.48l.83.87.65-1c.09-.13,2.32-3.45,7.7-3.45a15.43,15.43,0,0,1,2.57.23l.94.17.15-1c0-.14,2.29-14.22,10.6-23.7C71.38,31.21,82,27.84,87.42,26.84l.9-.17-.14-.9c0-.2-3.13-19.78-19-20.63Z"/><path class="cls-1" d="M74.54,35.78A11.76,11.76,0,0,1,64.33,29.2a12.14,12.14,0,0,1-1-8.66,10,10,0,0,1,5.1-6.45A9.79,9.79,0,0,1,72.89,13,11.75,11.75,0,0,1,83.1,19.6C86,25.28,84.16,32.06,79,34.71a9.67,9.67,0,0,1-4.45,1.07Z"/><path class="cls-2" d="M72.89,13.73a11,11,0,0,1,9.58,6.19c2.73,5.35,1,11.69-3.81,14.16a9,9,0,0,1-4.12,1A11,11,0,0,1,65,28.88c-2.73-5.35-1-11.68,3.8-14.16a9.06,9.06,0,0,1,4.13-1m0-1.41a10.35,10.35,0,0,0-4.77,1.14,10.7,10.7,0,0,0-5.46,6.9,12.8,12.8,0,0,0,1,9.16,12.46,12.46,0,0,0,10.84,7,10.35,10.35,0,0,0,4.77-1.14c5.52-2.83,7.5-10,4.42-16.06a12.46,12.46,0,0,0-10.84-7Z"/><polygon class="cls-3" points="66.07 19.09 71.83 30.27 80.96 25.36 79.1 21.48 73.72 25.11 70.07 16.88 66.07 19.09"/><path class="cls-3" d="M55.05,53.08c6.64-16.54,24.36-25.53,34.82-26.62a52,52,0,0,1,5.61-.32c6.6,0,9.46,1.56,11.35,2.59l.12.07c.4.21,1.6.87,1.35,2s-1.66,1.42-4,1.55c-1.74.09-4.13.6-12.41,3.09C83.35,38,71.71,45.34,66.54,49.49c-5.85,4.71-10.31,5-10.5,5l-1.57.07Z"/><path class="cls-2" d="M95.48,27.15c6.5,0,9.2,1.56,11,2.54,2.22,1.21-.41,1.51-2.23,1.62s-4.24.6-12.64,3.13-20,9.71-25.69,14.26S56,53.46,56,53.46c6.38-15.88,23.37-24.89,34-26a52.6,52.6,0,0,1,5.5-.31m0-2a56.62,56.62,0,0,0-5.71.32C79.06,26.57,60.91,35.77,54.11,52.71l-1.17,2.92,3.15-.15c.2,0,5-.29,11.08-5.2,5.12-4.11,16.6-11.37,25-13.9,8.14-2.45,10.56-3,12.18-3.05s4.46-.25,4.93-2.33c.19-.85,0-2.07-1.85-3.09l-.13-.07c-1.86-1-5-2.71-11.83-2.71Z"/><path class="cls-10" d="M88.48,93c-1.63,0-2.7-1.93-3.48-6.25a.8.8,0,0,1,.63-.93c.05,0,5.32-1.16,7.37-2.63a.74.74,0,0,1,.47-.16.79.79,0,0,1,.46.15.82.82,0,0,1,.32.88c-.06.2-1.37,4.87-2.84,6.77C90.75,91.74,89.75,93,88.48,93Z"/><path class="cls-2" d="M93.47,83.88s-1.31,4.7-2.7,6.5c-.65.84-1.46,1.85-2.29,1.85s-1.91-1.29-2.68-5.58c0,0,5.46-1.18,7.67-2.77m0-1.62a1.68,1.68,0,0,0-1,.31c-1.59,1.14-5.64,2.19-7.06,2.5a1.62,1.62,0,0,0-1.26,1.86c.62,3.42,1.61,6.92,4.28,6.92,1.67,0,2.86-1.56,3.58-2.48,1.53-2,2.82-6.54,3-7.05a1.63,1.63,0,0,0-.63-1.76,1.61,1.61,0,0,0-.93-.3Z"/><path class="cls-11" d="M90.9,91l-.19,0a.8.8,0,0,1-.61-.68,6.14,6.14,0,0,0-1.83-3.84.81.81,0,0,1,.29-1.39A16.47,16.47,0,0,0,93,83.23a.74.74,0,0,1,.47-.16.79.79,0,0,1,.46.15.82.82,0,0,1,.32.88c0,.19-1.29,4.58-2.69,6.57A.78.78,0,0,1,90.9,91Z"/><path class="cls-2" d="M93.47,83.88s-1.24,4.43-2.57,6.33a6.89,6.89,0,0,0-2.11-4.35,17.4,17.4,0,0,0,4.68-2m0-1.62a1.68,1.68,0,0,0-1,.31,15.74,15.74,0,0,1-4.19,1.74,1.62,1.62,0,0,0-.58,2.79,5.32,5.32,0,0,1,1.54,3.32,1.62,1.62,0,0,0,1.22,1.36,1.74,1.74,0,0,0,.39,0,1.61,1.61,0,0,0,1.32-.69c1.45-2.07,2.67-6.34,2.81-6.82a1.63,1.63,0,0,0-.63-1.76,1.61,1.61,0,0,0-.93-.3Z"/><path class="cls-10" d="M93.47,83.88s-1.31,4.7-2.7,6.5-3.52,4.35-5-3.73C85.8,86.65,91.26,85.47,93.47,83.88Z"/><path class="cls-12" d="M88.79,85.86a17.4,17.4,0,0,0,4.68-2s-1.24,4.43-2.57,6.33A6.89,6.89,0,0,0,88.79,85.86Z"/><path class="cls-2" d="M74.55,55.38c1.22,3.56,3.31,6.06,4.68,5.59s1.49-3.72.28-7.28-3.31-6.06-4.68-5.59S73.34,51.83,74.55,55.38Z"/><path class="cls-2" d="M87.69,42.38c1.37-.47,3.47,2,4.68,5.59a16,16,0,0,1,.75,3.18A23.62,23.62,0,0,0,90,54.26a13.14,13.14,0,0,1-2.55-4.6C86.2,46.1,86.32,42.84,87.69,42.38Z"/><path class="cls-2" d="M46.47,74.44a10.51,10.51,0,0,1,7.22,1.72s-3,.39-3.44,1.77c0,0,3.83-1.82,5.89.14s-.1,5.85-4.61,6.54c0,0,4.66,1.47,6.48-3.79S50.84,71.69,46.47,74.44Z"/></g></g></svg>