<svg xmlns="http://www.w3.org/2000/svg" viewBox="0 0 152.64 199.8"><defs><style>.cls-1{fill:#231f20;}.cls-2{fill:#8a4c20;}.cls-3{fill:#f3dcbc;}.cls-4{fill:#fff;}.cls-5{fill:#ed1c24;}.cls-6{fill:#415da9;}.cls-7{fill:#fff200;}.cls-8{fill:#4a2510;}.cls-9{fill:#fed091;}</style></defs><g id="Layer_2" data-name="Layer 2"><g id="Vector_Graphics" data-name="Vector Graphics"><path class="cls-1" d="M41.28,98.59c-1.33,0-7.72-1.3-8.25-5-.38-2.72.45-4.74,2.5-6,.35-.22,1.43-.9,4.5-.9,1.55,0,6.83.21,9.69,2.88l2.53,2.36L49.5,94.05c-5.54,4.24-7.06,4.43-7.64,4.51A5.22,5.22,0,0,1,41.28,98.59Z"/><path class="cls-1" d="M40,89.63c2.59,0,6.08.59,7.68,2.09,0,0-4.9,3.76-6.21,3.93h-.22c-1.5,0-5.19-1.38-5.34-2.47a2.72,2.72,0,0,1,1.14-3.11,6.92,6.92,0,0,1,3-.45m0-5.86h0c-3.51,0-5.14.76-6.06,1.34-1.75,1.1-4.59,3.71-3.84,8.91.88,6.12,9.58,7.51,11.15,7.51a7.19,7.19,0,0,0,.94-.06c1-.13,2.89-.36,9.06-5.09l5.5-4.22-5.06-4.73c-3.55-3.31-9.36-3.66-11.69-3.66Z"/><path class="cls-1" d="M82.07,111.33c-6.69,0-15.46-3.76-20.1-6C57.14,103,51,96.94,48.35,93.2c-4.32-.07-13.82-1-20.38-7.58a18.92,18.92,0,0,1-5.32-17A17.19,17.19,0,0,1,33,56a15.59,15.59,0,0,1,6.15-1.28c6.6,0,12.6,4.42,16.34,9.24l6.85-18.4,64.46-3.25-2.37,8L124,67.15a30.19,30.19,0,0,1,5.93,2.8c5.72,3.57,8.58,8.5,8.24,14.25-.66,11.46-7.69,18.3-18.79,18.3-6.8,0-17.5,0-22.29-5.47l-9.73,6.44a6.29,6.29,0,0,1,0,5.17C86.72,109.87,85.27,111.33,82.07,111.33ZM94.88,94.07a66.7,66.7,0,0,1-9.51-9.48,17.84,17.84,0,0,0-3.18-3.23l-.46.47c-.17.16-.34.34-.53.51a14.44,14.44,0,0,0,1.86,5.09Z"/><path class="cls-1" d="M122.8,45.43l-1.31,4.41L121,69.31S135.88,72.75,135.22,84s-7.85,15.54-15.86,15.54-19.3-.16-21.43-6.87a57.63,57.63,0,0,1-10.3-10c-2.78-3.35-4.38-4.45-5.56-4.45s-2,1.1-3.11,2.16c-2.29,2.13,2,9.16,2,9.16L92.86,96.3l-9.35,6.19s4.12,5.92-1.44,5.92-13.42-3.12-18.82-5.73S50.82,92.37,50,90.25c0,0-.39,0-1.09,0-3.19,0-12.68-.56-18.86-6.74C22.52,76,23.83,63.09,34.14,58.68a12.5,12.5,0,0,1,5-1c8.24,0,15.15,8.23,16.92,13.15L64.4,48.37l58.4-2.94m8-6.28-8.27.42L64.1,42.51l-3.85.2L58.9,46.33l-4.51,12.1c-4-3.76-9.32-6.67-15.26-6.67a18.5,18.5,0,0,0-7.31,1.53A20.1,20.1,0,0,0,19.76,68.12,21.89,21.89,0,0,0,25.9,87.69c6.6,6.6,15.73,8.11,20.91,8.39,3.53,4.54,9.86,9.93,13.88,11.88,4.87,2.36,14.11,6.31,21.38,6.31,4.92,0,7.05-2.67,7.89-4.27a8.23,8.23,0,0,0,.75-5.24l5.39-3.57.63-.42c6,4.67,16,4.67,22.63,4.67,12.64,0,21-8.07,21.72-21.07.4-6.79-3-12.8-9.62-16.91a31.46,31.46,0,0,0-4.49-2.3l.36-14.39,1.09-3.68,2.35-7.94Z"/><path class="cls-1" d="M61.64,80.09c-2.46,0-5-2-7.55-5.91-2.34-3.58-5.26-14.49-3.77-17.47.3-.59,1-2,10.43-8.61l4.9-3.45-.29,6c-.29,6.4.44,11.06,2.18,13.84.09.12.49.52.79.82,1.47,1.47,4.94,4.92,2.34,8.39a5.64,5.64,0,0,1-4.58,2.25,5.24,5.24,0,0,1-2.36,3.6A4.21,4.21,0,0,1,61.64,80.09Z"/><path class="cls-1" d="M62.44,50.5C61.94,61,64.24,64.73,65.05,66s4.74,3.92,3.27,5.89A2.88,2.88,0,0,1,65.83,73c-.48,0-.93-.05-1.29-.05s-.66.06-.8.28c-.49.81-.32,3.1-1.47,3.76a1.23,1.23,0,0,1-.63.16c-1.22,0-3-1.43-5.09-4.58C54.09,68.82,52.29,59.33,53,58s9.49-7.52,9.49-7.52m6.41-11.7-9.79,6.9c-10,7.07-10.8,8.59-11.36,9.7s-1.48,3,.16,10.27c.55,2.46,1.78,7.06,3.77,10.12,3.18,4.87,6.45,7.24,10,7.24a7.19,7.19,0,0,0,3.55-.94,7.34,7.34,0,0,0,3.09-3.5A8.37,8.37,0,0,0,73,75.45a7.72,7.72,0,0,0,.2-8.87,18.23,18.23,0,0,0-2.82-3.36l-.5-.5c-1.65-2.88-1.79-8.06-1.6-11.95l.55-12Z"/><path class="cls-1" d="M109.26,112l-.42,0a13,13,0,0,1-5.15-1.81,10.61,10.61,0,0,1-4.1.82,10.85,10.85,0,0,1-2-.2,12.1,12.1,0,0,1-6.54-4l-1.47,0a10.86,10.86,0,0,1-9.2-4.22,9.21,9.21,0,0,1-1.67-9.14,19.7,19.7,0,0,1-3.11-4.29c-1.83-3.36-1.16-7.9,1.89-12.78a3.32,3.32,0,0,1,2.82-1.59c2,0,3.06,1.45,4.7,3.64a35.9,35.9,0,0,0,3.87,4.59c2.54,2.43,7.44,4,9.79,4.83a10.85,10.85,0,0,1,2.12.82,6.42,6.42,0,0,1,2.08,2.52,18.15,18.15,0,0,0,3.34,4.42c1.85,1.76,7.89,3.79,11.58,4.66a2.93,2.93,0,0,1,.14,5.67l-1,.29a7.78,7.78,0,0,1-1.6,2.74,8.46,8.46,0,0,1-6.08,3Z"/><path class="cls-1" d="M80.27,77.76c1,0,3.07,4.09,6.54,7.42,3.92,3.76,11.61,5.56,12.43,6s1.64,3.44,4.91,6.54,12.92,5.4,12.92,5.4l-2.78.82c.31,2.54-2.75,5.08-5,5.08h-.21c-2.29-.17-5.23-2.29-5.23-2.29a7.31,7.31,0,0,1-4.23,1.29,7.4,7.4,0,0,1-1.5-.15c-3.43-.65-5.72-4.09-5.72-4.09-1,0-2,.09-2.83.09a8,8,0,0,1-7-3.19c-3.12-3.6-.33-8-.33-8a13.49,13.49,0,0,1-4.09-4.91c-2-3.6,1-8.5,1.8-9.81a.38.38,0,0,1,.33-.22m0-5.87a6.25,6.25,0,0,0-5.31,3c-3.63,5.82-4.33,11.41-2,15.73a23.44,23.44,0,0,0,2.46,3.68,11.83,11.83,0,0,0,2.67,10.27,13.77,13.77,0,0,0,11.42,5.23h.25a14.58,14.58,0,0,0,7.2,3.9,14.38,14.38,0,0,0,2.6.24,13.43,13.43,0,0,0,3.86-.56,14.23,14.23,0,0,0,5.19,1.55c.2,0,.41,0,.62,0a11.52,11.52,0,0,0,8.29-4,11.68,11.68,0,0,0,1.56-2.28,5.87,5.87,0,0,0-.68-11.21c-4.26-1-9.14-2.89-10.24-3.94a15.42,15.42,0,0,1-2.82-3.76,8.93,8.93,0,0,0-3.12-3.56,12.3,12.3,0,0,0-2.7-1.1c-2-.65-6.62-2.19-8.68-4.16a34.43,34.43,0,0,1-3.55-4.22c-1.77-2.38-3.6-4.83-7-4.83Z"/><path class="cls-1" d="M93,50.38a1.87,1.87,0,0,0-3,2.17l2.11,3c-1.63,1-3,4.56-3.17,8.84-.24,5.15,1.24,9.4,3.31,9.5s3.94-4,4.19-9.14a22.62,22.62,0,0,0-.08-3.22l1.46,2.07a1.87,1.87,0,0,0,3-2.16Z"/><path class="cls-1" d="M92.3,76.79h-.21c-1.32-.07-3.74-.77-5.15-4.83A21,21,0,0,1,86,64.22a19.39,19.39,0,0,1,2.36-8.89l-.77-1.09a4.8,4.8,0,0,1,7.83-5.55l7.82,11a4.8,4.8,0,0,1-1.14,6.69,4.67,4.67,0,0,1-3,.88C98.4,72.33,96.16,76.79,92.3,76.79Zm.82-18a14.56,14.56,0,0,0-1.26,5.71,15.36,15.36,0,0,0,.56,5.36,15.61,15.61,0,0,0,1.07-5.29,19.78,19.78,0,0,0-.07-2.78Z"/><path class="cls-1" d="M123.51,46.26a1.86,1.86,0,0,0-2.11,1.18c-.62,1.1-5.36,7.34-9.68,12.83a1.87,1.87,0,0,0,.32,2.62l0,0a22.66,22.66,0,0,0-.39,3.23,20.3,20.3,0,0,0,0,2.21H119c.08-.6.13-1.22.16-1.86a15.72,15.72,0,0,0-1.36-7.94c6.94-8.95,7.08-9.66,7.17-10.09A1.87,1.87,0,0,0,123.51,46.26Z"/><path class="cls-1" d="M121.58,71.29H108.89l-.14-2.79c0-.85,0-1.69,0-2.5s.11-1.54.21-2.3a5,5,0,0,1-.54-1.71,4.73,4.73,0,0,1,1-3.53c4.78-6.08,8.65-11.24,9.35-12.34a4.87,4.87,0,0,1,5.32-2.74A4.82,4.82,0,0,1,127.86,49c-.21,1-.36,1.74-6.68,9.94a20.94,20.94,0,0,1,.92,7.66c0,.71-.09,1.42-.18,2.1Zm-6.91-5.87h1.6a13.09,13.09,0,0,0-.86-5.11c-.26.35-.5.65-.7.9l.6.44L115,63.48A17.77,17.77,0,0,0,114.67,65.42Z"/><path class="cls-1" d="M27.76,61.61a3.17,3.17,0,0,1-1-.16,2.94,2.94,0,0,1-1.89-2.07c-2-8.31,1.44-16.16,8.63-19.55a23.19,23.19,0,0,1,9.75-2.1c.43,0,.83,0,1.19,0A117.89,117.89,0,0,1,62,18.7C74.92,7.11,91,4,99.44,3.09c1-.1,2-.16,3-.16,10.33,0,19.5,5.83,23.37,14.84s.56,19.29.42,19.73a3,3,0,0,1-2.79,2,3.57,3.57,0,0,1-.46,0A116.48,116.48,0,0,0,104.83,38c-37.91,0-53.94,21.23-54.1,21.45a3,3,0,0,1-2,1.17l-.34,0a2.92,2.92,0,0,1-1.89-.69c-.08-.06-2.56-2-7.43-2.26h-.51c-4.65,0-8.93,3.29-9,3.32A3,3,0,0,1,27.76,61.61Z"/><path class="cls-1" d="M102.45,5.87c10,0,17.52,5.7,20.67,13.06,3.44,8,.33,17.66.33,17.66a119.15,119.15,0,0,0-18.62-1.53C65,35.06,48.37,57.7,48.37,57.7s-3.11-2.62-9.16-3l-.67,0c-5.78,0-10.78,4-10.78,4-1.8-7.37,1.47-13.58,7-16.2a20.26,20.26,0,0,1,8.5-1.81,16.64,16.64,0,0,1,2.62.18c1.64-2.46,7.2-10.31,18-20S88.44,7.15,99.73,6a25.43,25.43,0,0,1,2.72-.14m0-5.87h0c-1.09,0-2.21.06-3.31.17C90.35,1.06,73.59,4.37,60,16.52A125,125,0,0,0,43,34.8a26.14,26.14,0,0,0-10.71,2.37c-8.49,4-12.6,13.2-10.23,22.9a5.85,5.85,0,0,0,3.78,4.15,5.77,5.77,0,0,0,1.92.32,5.92,5.92,0,0,0,3.63-1.25c1-.73,4.16-2.69,7.15-2.69h.35a11.61,11.61,0,0,1,5.76,1.63,5.39,5.39,0,0,0,3.76,1.44c.2,0,.41,0,.61,0a5.77,5.77,0,0,0,4.08-2.48c.6-.8,15.66-20.24,51.73-20.25a112.83,112.83,0,0,1,17.69,1.47,5.89,5.89,0,0,0,6.51-4c.39-1.2,3.66-12-.52-21.77C124.19,6.53,114,0,102.45,0Z"/><path class="cls-1" d="M108.15,46.73c-8.78,0-15.93-7.67-15.93-17.09s7.15-17.08,15.93-17.08,15.94,7.66,15.94,17.08S116.94,46.73,108.15,46.73Z"/><path class="cls-1" d="M108.15,15.5c7.18,0,13,6.33,13,14.14s-5.83,14.15-13,14.15-13-6.33-13-14.15,5.82-14.14,13-14.14m0-5.87c-10.4,0-18.87,9-18.87,20s8.47,20,18.87,20,18.88-9,18.88-20-8.47-20-18.88-20Z"/><polyline class="cls-1" points="101.69 33.65 105.45 23.67 109.55 29.73 113.96 24.65 115.92 34.47"/><polygon class="cls-1" points="113.05 35.05 112.25 31.08 109.25 34.53 106.2 30.01 104.44 34.69 98.95 32.62 104.71 17.33 109.84 24.92 115.67 18.23 118.8 33.89 113.05 35.05"/><path class="cls-1" d="M80.5,54.93c-9.68,0-15.5-1.73-18.28-5.45a2.93,2.93,0,0,1,.6-4.12C63.33,45,75.77,36,102.67,34.48c.07,0,1.78-.1,4.49-.1,6.79,0,19.5.63,28.34,4.8,15.14,7.15,14.42,10.34,14.12,11.7a3.53,3.53,0,0,1-3.74,2.67,10.62,10.62,0,0,1-2.53-.37A68.43,68.43,0,0,0,125.26,51a123.64,123.64,0,0,0-18.07,1.47C95.65,54.13,87.16,54.93,80.5,54.93Z"/><path class="cls-1" d="M107.16,37.31c6.46,0,18.74.58,27.08,4.52,10.23,4.82,14.53,8.79,11.64,8.79a7.71,7.71,0,0,1-1.82-.29A71.52,71.52,0,0,0,125.26,48a125.63,125.63,0,0,0-18.5,1.5C96.78,51,87.72,52,80.5,52c-7.92,0-13.63-1.2-15.94-4.28,0,0,11.94-8.83,38.28-10.31,0,0,1.67-.1,4.32-.1m0-5.86h0c-2.79,0-4.59.1-4.66.1C74.74,33.11,61.62,42.6,61.07,43a5.88,5.88,0,0,0-1.2,8.24c3.39,4.52,9.94,6.63,20.63,6.63,6.81,0,15.43-.81,27.12-2.55a122.2,122.2,0,0,1,17.64-1.44A65.38,65.38,0,0,1,142.63,56a13.59,13.59,0,0,0,3.25.46,6.49,6.49,0,0,0,6.6-5c1.06-4.74-3.47-7.89-5.4-9.24a73.53,73.53,0,0,0-10.33-5.76c-9.35-4.42-22.55-5.08-29.59-5.08Z"/><path class="cls-1" d="M37.66,64.25s10.05,1.81,10.05,11-9.85,9.59-12.77,4.93a9.83,9.83,0,0,0,7.13.32c3.76-1.36,4.8-6.93-2.78-8.62a7.66,7.66,0,0,1,4.34.65S44.93,70.79,37.66,64.25Z"/><path class="cls-1" d="M40.7,86a9.66,9.66,0,0,1-8.24-4.29l-5.53-8.84,9.32,4.66h0a7.28,7.28,0,0,0,2.75.55,6,6,0,0,0,2.07-.36c.63-.23,1-.7,1-1,0-.49-1-1.42-3.37-2l.18-5.18c-.74-.82-1.75-1.84-3.13-3.09l-7.64-6.89,10.13,1.83C42.5,62.14,50.64,66,50.64,75.2,50.64,82.6,45.49,86,40.7,86Z"/><path class="cls-1" d="M42.79,45.42S51.32,23.91,82.08,7.91"/><path class="cls-1" d="M42.79,48.36a3,3,0,0,1-1.08-.21,2.93,2.93,0,0,1-1.64-3.81c.36-.92,9.29-22.71,40.66-39a2.93,2.93,0,0,1,2.71,5.2C54,25.83,45.6,46.3,45.52,46.5A2.93,2.93,0,0,1,42.79,48.36Z"/><path class="cls-1" d="M152.24,48.82s2.64,10.41-12.62,10.72-14.38-.06-14.38-.06l.26-8L137.1,51Z"/><path class="cls-1" d="M62.24,166.56A50.63,50.63,0,0,1,29,153.69c-11.25-10.25-10.7-20.75-10.44-25.78.23-4.38,3.51-10,5.44-13a2.67,2.67,0,0,1,2-1.19l.27,0a2.64,2.64,0,0,1,1.89.79c6,6,8,7.67,8.62,8.09l15.54,1.28a4.61,4.61,0,0,0,3.11-2c1.87-2.64,3.17-8.69-1.22-22.53a2.66,2.66,0,0,1,1.47-3.25l8.62-3.75a2.64,2.64,0,0,1,1.07-.23,2.83,2.83,0,0,1,1.1.24A2.69,2.69,0,0,1,67.85,94c2.14,6.72,6.75,21.5,7.73,27.18l10.68.36c-.19-2-1.47-7-4-13.11a2.67,2.67,0,0,1,2.47-3.67,2.7,2.7,0,0,1,1.66.58l3.15,2.5a2.89,2.89,0,0,1,.51.54c5.57,7.78,9.22,23.51,5.69,36.38-2.31,8.45-7.38,14.61-14.65,17.81a46.69,46.69,0,0,1-18.89,4Z"/><path class="cls-1" d="M65.31,94.79c3.36,10.53,7.92,25.8,7.78,28l.42,1,13.63.46a1.79,1.79,0,0,0,1.57-.94c.92-1.58-1.1-8.84-3.94-15.87l3.15,2.5c8.26,11.53,11.8,41.55-7.86,50.2a43.93,43.93,0,0,1-17.82,3.79,47.88,47.88,0,0,1-31.46-12.18C20.42,142.28,21,133,21.21,128c.2-3.82,3.48-9.25,5-11.58,3.57,3.58,8.39,8.28,9.58,8.75l.18.08,16.26,1.33h.07a7.07,7.07,0,0,0,5.25-3.16c3.23-4.56,2.93-12.93-.86-24.88l8.62-3.75m0-5.33a5.42,5.42,0,0,0-2.13.44l-8.62,3.75a5.34,5.34,0,0,0-3,6.51c4.44,14,2.59,18.77,1.59,20.18a2.23,2.23,0,0,1-1.08.88L37.74,120c-.92-.76-3.07-2.68-7.75-7.39a5.38,5.38,0,0,0-3.78-1.56l-.55,0a5.37,5.37,0,0,0-3.92,2.39c-2.53,3.89-5.61,9.52-5.86,14.22-.29,5.49-.88,16.83,11.3,27.94a53.38,53.38,0,0,0,35.06,13.57,49.41,49.41,0,0,0,20-4.24c8-3.53,13.61-10.29,16.15-19.54,3.87-14.15-.25-30.47-6.1-38.64a5.51,5.51,0,0,0-1-1.08l-3.16-2.5a5.34,5.34,0,0,0-8.26,6.18A79.75,79.75,0,0,1,83,118.74l-5.25-.17c-1.1-5-3.56-13.49-7.36-25.4a5.37,5.37,0,0,0-2.88-3.24,5.44,5.44,0,0,0-2.2-.47Z"/><path class="cls-1" d="M75.69,124.22A2.67,2.67,0,0,1,73,121.86c-.29-2.53-3.3-12.94-7.83-27.15a2.67,2.67,0,0,1,2.53-3.48,2.68,2.68,0,0,1,1.66.58L82,101.8a2.69,2.69,0,0,1,.75,1c3.52,7.48,6.42,16.91,6.37,18.87a2.66,2.66,0,0,1-2.67,2.6Z"/><path class="cls-1" d="M67.74,93.9l12.59,10c3.62,7.7,6.14,16.5,6.11,17.67H75.69c-.41-3.52-4.79-17.78-8-27.65m0-5.33a5.33,5.33,0,0,0-5.08,7c5,15.75,7.51,24.73,7.73,26.65a5.35,5.35,0,0,0,5.3,4.72H86.44a5.35,5.35,0,0,0,5.34-5.21c.06-2.82-3.28-13-6.63-20.06a5.22,5.22,0,0,0-1.51-1.91l-12.58-10a5.38,5.38,0,0,0-3.32-1.15Z"/><path class="cls-1" d="M52.07,126.57l-15.61-1.28a2.75,2.75,0,0,1-1.29-.46c-1.78-1.22-8.08-7.53-9.32-8.78a2.66,2.66,0,0,1-.28-3.43c5.2-7.25,15.54-15.56,18.51-17.13a6.43,6.43,0,0,1,3-.66,20.8,20.8,0,0,1,7.55,2l.8.4a2.64,2.64,0,0,1,1.33,1.58c3.69,11.71,4,20,.85,24.5a7.18,7.18,0,0,1-5.07,3.25l-.26,0Z"/><path class="cls-1" d="M47.09,97.49c2.73,0,6.4,1.75,6.4,1.75l.74.37c4.26,13.52,3,19.53,1.19,22.19a4.56,4.56,0,0,1-3.13,2.11l-15.61-1.28c-1.08-.74-5.11-4.61-8.94-8.46C32.89,107,43,99.1,45.32,97.85a3.91,3.91,0,0,1,1.77-.36m0-5.33a9.09,9.09,0,0,0-4.25,1c-3.23,1.7-13.92,10.24-19.44,17.93a5.34,5.34,0,0,0,.56,6.87c2.29,2.31,7.83,7.81,9.7,9.1a5.47,5.47,0,0,0,2.59.92l15.6,1.27a3.17,3.17,0,0,0,.44,0l.53,0a9.82,9.82,0,0,0,7-4.39c3.66-5.33,3.5-14.11-.5-26.81a5.35,5.35,0,0,0-2.68-3.16l-.74-.37-.12-.06a23.15,23.15,0,0,0-8.69-2.26Z"/><path class="cls-1" d="M36,143.09c-4-.75-11.36-4.93-10.48-15.41,1-11.62,14.09-25.29,21.5-27.39a15.12,15.12,0,0,1,4.16-.67c2.76,0,4.11,1.21,4.76,2.22a5,5,0,0,1,.09,4.9,49.72,49.72,0,0,1-2.67,4.38c-1.6,2.5-5,7.72-5.24,9-.64,2.88-7.78,18.36-9.21,21.43L38,143.47Z"/><path class="cls-1" d="M51.18,102.29c2.89,0,3.15,1.83,2.45,3.3-.92,1.93-7.51,11.26-8.12,14s-9,20.88-9,20.88-9.23-1.72-8.31-12.57,13.48-23.32,19.57-25a12.55,12.55,0,0,1,3.43-.57m0-5.34h0a18,18,0,0,0-4.89.77c-8.27,2.35-22.35,16.9-23.43,29.73-1,12.38,7.82,17.36,12.65,18.26l4.08.76,1.74-3.76c3.19-6.88,8.61-18.78,9.37-21.85.49-1.41,3.47-6.06,4.91-8.3,1.56-2.44,2.39-3.75,2.84-4.68a7.72,7.72,0,0,0-.26-7.46c-.82-1.3-2.82-3.47-7-3.47Z"/><path class="cls-1" d="M62.77,159.49a22.12,22.12,0,0,1-18.46-10.08h-.13A8.72,8.72,0,0,1,38,146.8c-2.16-2.24-3.18-5.66-3-10.16.42-12.22,7.44-21.79,16-21.79a10.81,10.81,0,0,1,1.39.09l2.56.31a16,16,0,0,1,8.07-2.49h.45c4.34.16,7.37,1.26,9.25,3.36A7.89,7.89,0,0,1,74.5,120a3.2,3.2,0,0,1,2.09-.69,4.19,4.19,0,0,1,1,.14c.1,0,9.8,3.26,11.41,9.58.93,3.63.67,6.58-.79,9a11.53,11.53,0,0,1-5.83,4.61,5.47,5.47,0,0,1-.72,2.78c-2.06,3.77-6.47,10.47-13,13A16.76,16.76,0,0,1,62.77,159.49Z"/><path class="cls-1" d="M62.94,115.43h.35c7.47.28,9,3.55,8.69,7.39-.1,1.25-.39,1.7-.79,1.7-.81,0-2-1.83-2.86-2.27a1.07,1.07,0,0,0-.51-.13,1.45,1.45,0,0,0-.7,2.66,58.29,58.29,0,0,0,7.19,3.92,7.29,7.29,0,0,0,2.66.58,1.81,1.81,0,0,0,1.74-.77c.61-1.22-1-1.88-2.12-1.88h-.34c-1,0-1.09-1.18-.82-2.53s.42-2.1,1.16-2.1a1.08,1.08,0,0,1,.34,0c1,.28,8.41,3.27,9.53,7.66s.75,9.24-7.57,11.3a2.35,2.35,0,0,1,.47,3.18c-1.12,2-5.33,9.34-11.59,11.77a14.11,14.11,0,0,1-5,.84,19.4,19.4,0,0,1-18.26-13s0,1.87.09,2.9a3.53,3.53,0,0,1-.42,0c-1.56,0-6.9-.69-6.58-10,.35-10.41,6.22-19.21,13.32-19.21a9.42,9.42,0,0,1,1.06.06s-3.17,3.64-3,6.35c0,0,6.61-8.5,13.95-8.5m0-5.34a18.15,18.15,0,0,0-8.64,2.4l-1.66-.2a14.19,14.19,0,0,0-1.72-.11c-10,0-18.18,10.71-18.66,24.37-.17,5.25,1.1,9.33,3.78,12.1A11.34,11.34,0,0,0,42.85,152a24.83,24.83,0,0,0,19.92,10.16A19.38,19.38,0,0,0,69.7,161C77,158.12,81.81,150.85,84,146.76a8.64,8.64,0,0,0,.86-2.26,13.45,13.45,0,0,0,5.64-5c1.81-3,2.18-6.76,1.08-11.05-2-8-13.17-11.46-13.29-11.49a6.93,6.93,0,0,0-1.74-.23H76.2a10.65,10.65,0,0,0-1.57-2.34c-2.39-2.66-6-4.06-11.14-4.25Z"/><path class="cls-1" d="M44.51,143.83s0,1.87.09,2.9c0,0-7.38.93-7-10S44.41,116.65,52,117.58c0,0-3.17,3.64-3,6.35,0,0,6.82-8.78,14.3-8.5s9,3.55,8.69,7.39-2.43.09-3.65-.57a1.41,1.41,0,0,0-1.21,2.53,58.29,58.29,0,0,0,7.19,3.92c1,.47,3.74,1.12,4.4-.19s-1.22-2-2.34-1.87-1.22-1.12-.94-2.52.47-2.33,1.5-2.05,8.41,3.27,9.53,7.66.75,9.24-7.57,11.3a2.35,2.35,0,0,1,.47,3.18c-1.12,2-5.33,9.34-11.59,11.77S49,156,44.51,143.83Z"/><path class="cls-1" d="M62.77,159.49a22.12,22.12,0,0,1-18.46-10.08A8.71,8.71,0,0,1,38,146.8c-2.16-2.24-3.18-5.66-3-10.16.42-12.22,7.44-21.79,16-21.79a10.81,10.81,0,0,1,1.39.09l2.56.31a15.71,15.71,0,0,1,8.52-2.48c4.34.16,7.37,1.26,9.25,3.36A7.89,7.89,0,0,1,74.5,120a3.2,3.2,0,0,1,2.09-.69,4.19,4.19,0,0,1,1,.14c.1,0,9.8,3.26,11.41,9.58.93,3.63.67,6.58-.79,9a11.53,11.53,0,0,1-5.83,4.61,5.47,5.47,0,0,1-.72,2.78c-2.06,3.77-6.47,10.47-13,13A16.76,16.76,0,0,1,62.77,159.49ZM47,142.91a16.81,16.81,0,0,0,15.76,11.25,11.25,11.25,0,0,0,4-.67c5.07-2,8.8-8,10.19-10.53l-4.42-3.12,5.67-1.4c2.78-.69,4.61-1.73,5.42-3.09.7-1.18.76-2.75.2-5a6.15,6.15,0,0,0-2.4-2.93,3.77,3.77,0,0,1-.38,2.24A4.29,4.29,0,0,1,77,132a9.65,9.65,0,0,1-3.76-.83,59.65,59.65,0,0,1-7.71-4.23,4.09,4.09,0,0,1,3-7.37c-.91-.83-2.73-1.32-5.3-1.42h-.25c-4.92,0-10.21,5.39-11.84,7.47l-4.28,5.48-.49-6.93a7,7,0,0,1,.26-2.31c-3.5,2.72-6.1,8.5-6.33,15-.1,3,.43,5.13,1.53,6.27a3.13,3.13,0,0,0,.81.61Z"/><path class="cls-1" d="M59.93,139.07s-3.83-2-3.65-3.09.56-.74,3.27-.65,7.85,1.31,7.66,3.55S65.34,142.71,59.93,139.07Z"/><path class="cls-1" d="M65,143.9c-1.78,0-3.88-.83-6.44-2.53-4.85-2.52-5.14-4.53-4.92-5.82a3.33,3.33,0,0,1,3.51-3c.27,0,.61,0,1,.05s.85.07,1.44.09c2.23.07,7,.85,9.1,3.22a4.19,4.19,0,0,1,1.13,3.21C69.63,142,67.72,143.9,65,143.9Z"/><path class="cls-1" d="M56.75,148.53s-3.83-2-3.65-3.08.57-.75,3.27-.66,7.85,1.32,7.66,3.56S62.17,152.18,56.75,148.53Z"/><path class="cls-1" d="M61.83,153.36c-1.77,0-3.88-.82-6.44-2.52-4.85-2.53-5.13-4.53-4.92-5.83A3.33,3.33,0,0,1,54,142c.27,0,.61,0,1,.05s.85.06,1.45.08c2.22.08,7,.85,9.1,3.23a4.2,4.2,0,0,1,1.12,3.21C66.45,151.48,64.54,153.36,61.83,153.36Z"/><path class="cls-1" d="M93.83,148a3.62,3.62,0,0,1-.46,0c-4-.47-5.2-6-4.58-11.37.53-4.63,2.58-10,6.6-10a3.15,3.15,0,0,1,.44,0c1.17.13,3.27.9,4.25,4.57a18.7,18.7,0,0,1,.34,6.79C99.89,142.58,97.84,148,93.83,148Z"/><path class="cls-1" d="M95.39,129.23h.14c1.75.2,2.76,4,2.24,8.41s-2.24,7.69-3.94,7.69h-.15c-1.75-.2-2.75-4-2.24-8.41s2.24-7.68,4-7.68m0-5.34h0c-4.76,0-8.38,4.88-9.25,12.41-.92,8,1.86,13.73,6.93,14.32a6.34,6.34,0,0,0,.76,0c4.74,0,8.37-4.87,9.24-12.41a21,21,0,0,0-.42-7.78c-1.43-5.39-5-6.36-6.51-6.53a6.3,6.3,0,0,0-.75,0Z"/><g id="body"><path class="cls-2" d="M95,187.05c-7.84,0-17.94-.52-21.26-1.4-5.49-1.44-7.33-9.06-7.52-9.92-.09-.36-2.34-10.07,8-18.72l.31-.26L84.46,153l.39,0c.1,0,2.6-.1,5.35-.1,1.63,0,3,0,4.13.11a5.35,5.35,0,0,1,3.8,1.82,6.65,6.65,0,0,1,1.39,2.77,40.34,40.34,0,0,1,4.12-.22c3.81,0,6.75.64,8.73,1.89,4.06,2.56,6.39,7.29,6.57,13.31.17,5.66-2.9,12.7-12.1,13.91A102.4,102.4,0,0,1,95,187.05Z"/><path class="cls-1" d="M90.2,155.3c1.37,0,2.79,0,4,.1,3.57.22,3.23,4.9,3.23,4.9a40,40,0,0,1,6.24-.52c2.66,0,5.57.33,7.45,1.52,4.23,2.67,5.34,7.57,5.45,11.35s-1.55,10.35-10,11.46a97.32,97.32,0,0,1-11.51.54c-8.5,0-17.87-.59-20.66-1.31-4.22-1.12-5.78-8.13-5.78-8.13s-2.12-8.57,7.23-16.36l9.13-3.45s2.52-.1,5.26-.1m0-4.8h0c-2.8,0-5.34.1-5.45.1l-.78,0-.73.28-9.12,3.45-.76.29-.62.51c-9.17,7.64-9.87,16.87-8.83,21.15A23.73,23.73,0,0,0,65.57,181c2.31,4.76,5.39,6.45,7.57,7,3.65,1,14,1.48,21.88,1.48a104,104,0,0,0,12.13-.58c10.1-1.33,14.4-9.17,14.19-16.36-.2-6.84-2.93-12.27-7.69-15.27-2.4-1.52-5.68-2.26-10-2.26-.87,0-1.72,0-2.5.08a8.88,8.88,0,0,0-1.2-1.81,7.76,7.76,0,0,0-5.47-2.64c-1.14-.07-2.58-.11-4.27-.11Z"/><path class="cls-3" d="M99.88,193.68a38.29,38.29,0,0,1-12.7-2.17c-.37-.12-.82-.27-1-.32l-.78,0c-1.12.06-3,.15-5,.15-6.82,0-8.9-1.08-9.94-2-2.36-2.13-2.12-4-1.76-4.91a3.48,3.48,0,0,1,3.25-2.19,3.24,3.24,0,0,1,.89.12l.45.13.09.09c.56.2,3.44,1.07,12.42,1.25,3.57.06,5.83.23,7.83.38,1.75.12,3.26.23,5.21.23h0c3.12,0,7.19-.28,13.6-.94l2.33-.24.3,2.33a5.29,5.29,0,0,1-1.28,3.86c-1.8,2.25-5.25,3.61-10.24,4.06C102.3,193.62,101.07,193.68,99.88,193.68Z"/><path class="cls-1" d="M71.91,184.64a.85.85,0,0,1,.23,0s2.22,1.33,13.58,1.55c6.74.14,8.85.62,13.08.62a137.45,137.45,0,0,0,13.85-1s.55,4.34-9.35,5.23c-1.2.11-2.34.16-3.42.16-7.85,0-12.53-2.5-13.6-2.5-.57,0-3.1.19-5.92.19-3.34,0-7.06-.26-8.33-1.41-2.12-1.92-.94-2.92-.12-2.92m0-4.8h0a5.9,5.9,0,0,0-5.5,3.72c-.46,1.21-1.15,4.35,2.4,7.56,2.08,1.88,5.43,2.65,11.55,2.65,2.06,0,4-.09,5.11-.15l.38,0,.58.19a41,41,0,0,0,13.45,2.29c1.27,0,2.56-.06,3.85-.18,5.66-.51,9.67-2.17,11.9-5a7.71,7.71,0,0,0,1.78-5.67l-.6-4.64-4.65.48c-6.33.65-10.32.92-13.36.92-1.86,0-3.26-.1-5-.23-1.93-.14-4.32-.31-8-.38-8-.16-10.87-.87-11.52-1.07l-.22-.13-.61-.18a5.74,5.74,0,0,0-1.55-.21Z"/><path class="cls-2" d="M68.58,175.21s-2.12-8.57,7.23-16.36l9.13-3.45s5.67-.22,9.23,0,3.23,4.9,3.23,4.9,9.46-1.67,13.69,1,5.34,7.57,5.45,11.35-1.55,10.35-10,11.46-27.93.34-32.17-.77S68.58,175.21,68.58,175.21Z"/><path class="cls-3" d="M112.65,185.89s.55,4.34-9.35,5.23-15.8-2.34-17-2.34-11.92.9-14.25-1.22-.67-3.11.11-2.89c0,0,2.22,1.33,13.58,1.55S95.29,187.67,112.65,185.89Z"/><path class="cls-1" d="M92.59,162.65s-1.25,3.76-18.92,1.88l.75-1.13S84.7,164.53,92.59,162.65Z"/><path class="cls-1" d="M104.81,144.52c-4.29-.14-11.55-2.16-11.86-2.24l-1.48-.42-1-19.87,13.95,1-.28,2.24c-1.27,10.18,2.43,16,2.47,16l2.25,3.44Z"/><path class="cls-1" d="M92.76,124.28l9.31.64c-1.4,11.22,2.8,17.47,2.8,17.47-4.08-.13-11.34-2.17-11.34-2.17l-.77-15.94m-4.49-4.58.23,4.79.76,15.94.15,3.06,3,.84c.8.22,7.9,2.18,12.37,2.32l8.32.26L108.41,140c-.11-.16-3.27-5.26-2.11-14.55l.56-4.47-4.5-.31L93.05,120l-4.78-.33Z"/><path class="cls-1" d="M125.57,150.55a13.93,13.93,0,0,1-8.57-2.63l-1.28.18a9.15,9.15,0,0,1-1.27.09c-2.53,0-7.18-1.17-10-9-2-5.55-1.8-10.69-1.36-15.89.58-7,7.26-8.67,7.54-8.73l1.14-.27c1.47-2.56,5.41-7.1,10.68-7.4h.34a8.48,8.48,0,0,1,6.05,3A17.44,17.44,0,0,1,133,122.76c-.46,5.9-4.1,8.23-7.32,8.49l-.06.71c-.88,10,3.27,14.36,3.31,14.4l3.72,3.63-5.18.47C126.82,150.52,126.18,150.55,125.57,150.55Z"/><path class="cls-1" d="M122.75,109.26c4,0,8.4,6.28,7.85,13.32-.35,4.49-2.91,6.3-5.56,6.3a6.69,6.69,0,0,1-4.39-1.72c-3.25-2.91-3.36-8.39-3.36-8.39-2.8,10.18,5.93,13,5.93,13-1,11.4,4,16.32,4,16.32a16.07,16.07,0,0,1-1.67.08c-6.14,0-9.21-3.41-11-7a19.17,19.17,0,0,1-1.57-8.61,13.83,13.83,0,0,0,2.35,13.2,7.66,7.66,0,0,1-.94.06c-3.55,0-6.13-2.92-7.78-7.45-1.79-4.92-1.68-9.5-1.23-14.87s5.7-6.6,5.7-6.6c-2.68,9.29,1.34,12.19,1.34,12.19-2.35-7.6-.11-11,1.23-13.42s4.81-6.15,8.84-6.37h.2m0-4.8h-.47c-5.71.32-10,4.55-12.06,7.69l-.17,0a12.26,12.26,0,0,0-9.4,10.87c-.45,5.48-.68,10.9,1.5,16.91,3.36,9.23,9.15,10.61,12.3,10.61a12.41,12.41,0,0,0,1.6-.11l.37,0a16.82,16.82,0,0,0,9.15,2.52c.69,0,1.4,0,2.12-.1l11.07-1-8.12-7.15c-.4-.47-3.11-3.91-2.72-11.43,3.72-1.09,7-4.4,7.47-10.3a19.94,19.94,0,0,0-4.82-14.69,10.83,10.83,0,0,0-7.82-3.8Z"/><path class="cls-1" d="M134.61,150.73c-3.79,0-7-2.06-8.93-5.78a20.77,20.77,0,0,1-1.88-13.55l.35-1.43,1.43-.34c2.5-.57,4.14-1.74,5-3.54,2.06-4.32-.52-11.48-1.69-13.87l-1-2.14L130,109a18.13,18.13,0,0,1,7.95-2.17,9.1,9.1,0,0,1,8.91,6.06,12.09,12.09,0,0,1,0,7.65c-.07.26-.16.6-.19.79a16,16,0,0,0,.63,1.78,26.08,26.08,0,0,1,1.81,6.45c1,8.42-1,14.61-5.58,17.88a15.78,15.78,0,0,1-8.9,3.27Z"/><path class="cls-1" d="M137.92,109.25a6.74,6.74,0,0,1,6.66,4.49c1.23,3.35-.22,6.15-.34,7.49s2,4.7,2.46,8.62.79,11.85-4.58,15.65a13.47,13.47,0,0,1-7.51,2.83c-2.71,0-5.14-1.35-6.81-4.5A18.34,18.34,0,0,1,126.13,132c13.53-3.13,4.92-20.8,4.92-20.8a15.62,15.62,0,0,1,6.87-1.92m0-4.8a20.41,20.41,0,0,0-9,2.43L124.65,109l2.08,4.27c1.2,2.49,3.18,8.65,1.68,11.79-.34.71-1,1.7-3.36,2.23l-2.88.67-.7,2.87a22.88,22.88,0,0,0,2.09,15.24c2.41,4.55,6.33,7.06,11.05,7.06a18.14,18.14,0,0,0,10.29-3.71c3.74-2.66,7.93-8.3,6.57-20.12a27.6,27.6,0,0,0-1.95-7c-.12-.31-.27-.7-.38-1l0-.09a14.4,14.4,0,0,0-.07-9.09,11.57,11.57,0,0,0-11.17-7.64Z"/><path class="cls-4" d="M117.29,118.77s.11,5.48,3.36,8.39,9.39,2.57,9.95-4.58-4-13.54-8-13.31-7.5,3.91-8.84,6.37-3.58,5.82-1.23,13.42c0,0-4-2.9-1.34-12.19,0,0-5.26,1.23-5.7,6.6s-.56,9.95,1.23,14.87,4.69,7.95,8.72,7.39a13.83,13.83,0,0,1-2.35-13.2,19.17,19.17,0,0,0,1.57,8.61c1.9,3.91,5.37,7.61,12.63,6.93,0,0-5-4.92-4-16.32C123.22,131.75,114.49,129,117.29,118.77Z"/><path class="cls-4" d="M126.13,132a18.34,18.34,0,0,0,1.67,11.86c3.14,5.92,9,5.47,14.32,1.67s5-11.74,4.58-15.65-2.57-7.27-2.46-8.62,1.57-4.14.34-7.49-5.26-6.71-13.53-2.57C131.05,111.17,139.66,128.84,126.13,132Z"/><path class="cls-5" d="M93.53,140.22s7.26,2,11.34,2.17c0,0-4.2-6.25-2.8-17.47l-9.31-.64Z"/><path class="cls-6" d="M62.24,165.5A49.53,49.53,0,0,1,29.7,152.9C18.82,143,19.33,133.21,19.61,128c.21-4.12,3.39-9.55,5.26-12.41a1.59,1.59,0,0,1,1.18-.72h.16a1.61,1.61,0,0,1,1.13.47c7,7,8.67,8.18,9,8.39l15.9,1.3a5.53,5.53,0,0,0,4-2.49c2.88-4.06,2.51-12.17-1.08-23.46a1.6,1.6,0,0,1,.89-2l8.62-3.75a1.57,1.57,0,0,1,.64-.14,1.55,1.55,0,0,1,.66.15,1.6,1.6,0,0,1,.86,1c1.27,4,7.32,23.1,7.83,27.9l12.53.42a.33.33,0,0,0,.13-.15c.32-1-.87-6.65-4-14.46a1.6,1.6,0,0,1,1.48-2.2,1.54,1.54,0,0,1,1,.35l3.16,2.5a1.52,1.52,0,0,1,.3.32c5.43,7.57,9,22.92,5.53,35.48-2.22,8.13-7.08,14-14,17.11a45.5,45.5,0,0,1-18.46,3.93Z"/><path class="cls-1" d="M65.31,94.79c3.36,10.53,7.92,25.8,7.78,28l.42,1,13.63.46a1.79,1.79,0,0,0,1.57-.94c.92-1.58-1.1-8.84-3.94-15.87l3.15,2.5c8.26,11.53,11.8,41.55-7.86,50.2a43.93,43.93,0,0,1-17.82,3.79,47.88,47.88,0,0,1-31.46-12.18C20.42,142.28,21,133,21.21,128c.2-3.82,3.48-9.25,5-11.58,3.57,3.58,8.39,8.28,9.58,8.75l.18.08,16.26,1.33h.07a7.07,7.07,0,0,0,5.25-3.16c3.23-4.56,2.93-12.93-.86-24.88l8.62-3.75m0-3.2a3.13,3.13,0,0,0-1.28.27l-8.62,3.75a3.19,3.19,0,0,0-1.77,3.9C57,110.15,57.48,118,54.93,121.57a4.06,4.06,0,0,1-2.67,1.8l-15.35-1.26a98.75,98.75,0,0,1-8.43-8,3.19,3.19,0,0,0-2.27-.94,1.83,1.83,0,0,0-.33,0,3.19,3.19,0,0,0-2.35,1.43c-2.39,3.67-5.29,8.93-5.52,13.16-.27,5.17-.83,15.83,10.61,26.26a51.23,51.23,0,0,0,33.62,13A47.24,47.24,0,0,0,81.35,163c7.42-3.27,12.59-9.54,15-18.15,3.7-13.52-.21-29.07-5.78-36.84a3.09,3.09,0,0,0-.61-.64l-3.15-2.51a3.21,3.21,0,0,0-2-.69,3.17,3.17,0,0,0-1.92.64,3.21,3.21,0,0,0-1,3.76A63.22,63.22,0,0,1,85.65,121L76,120.65c-1.15-6.09-5.58-20.29-7.67-26.83a3.2,3.2,0,0,0-3-2.23Z"/><path class="cls-5" d="M75.69,123.15a1.61,1.61,0,0,1-1.59-1.41c-.3-2.64-3.25-12.86-7.88-27.35a1.62,1.62,0,0,1,.62-1.81,1.57,1.57,0,0,1,.9-.28,1.6,1.6,0,0,1,1,.35l12.58,10a1.65,1.65,0,0,1,.45.57C85.4,110.9,88.08,120,88,121.59a1.6,1.6,0,0,1-1.6,1.56Z"/><path class="cls-1" d="M67.74,93.9l12.59,10c3.62,7.7,6.14,16.5,6.11,17.67H75.69c-.41-3.52-4.79-17.78-8-27.65m0-3.2a3.21,3.21,0,0,0-3,4.18c4.53,14.18,7.52,24.54,7.81,27a3.2,3.2,0,0,0,3.18,2.83H86.44a3.2,3.2,0,0,0,3.2-3.12c.06-2.27-3-11.94-6.42-19.11a3.24,3.24,0,0,0-.9-1.14l-12.59-10a3.19,3.19,0,0,0-2-.69Z"/><path class="cls-5" d="M52.15,125.5l-15.6-1.27a1.53,1.53,0,0,1-.77-.28c-1.32-.91-5.77-5.23-9.18-8.65a1.59,1.59,0,0,1-.16-2.06c5.38-7.52,15.7-15.52,18.14-16.8a5.38,5.38,0,0,1,2.51-.55,20.12,20.12,0,0,1,7.09,1.9l.77.39a1.62,1.62,0,0,1,.81.95c3.58,11.38,3.91,19.31,1,23.58a6.08,6.08,0,0,1-4.3,2.79h-.29Z"/><path class="cls-1" d="M47.09,97.49c2.73,0,6.4,1.75,6.4,1.75l.74.37c4.26,13.52,3,19.53,1.19,22.19a4.56,4.56,0,0,1-3.13,2.11l-15.61-1.28c-1.08-.74-5.11-4.61-8.94-8.46C32.89,107,43,99.1,45.32,97.85a3.91,3.91,0,0,1,1.77-.36m0-3.2a7,7,0,0,0-3.26.73c-2.6,1.37-13.07,9.44-18.69,17.29a3.2,3.2,0,0,0,.33,4.12c1.25,1.25,7.58,7.59,9.4,8.84a3.22,3.22,0,0,0,1.55.55L52,127.1h.27l.32,0a7.7,7.7,0,0,0,5.45-3.47c3.22-4.7,3-13.1-.78-25a3.15,3.15,0,0,0-1.6-1.9l-.74-.37-.07,0a21.6,21.6,0,0,0-7.78-2Z"/><path class="cls-5" d="M36.3,141.52c-.11,0-10.17-2-9.19-13.71,1-11.33,14.06-24.2,20.34-26a14,14,0,0,1,3.73-.61c2,0,3,.8,3.4,1.48a3.45,3.45,0,0,1,0,3.35c-.35.73-1.33,2.26-2.57,4.2-2,3.17-5.11,8-5.46,9.57-.62,2.77-8.23,19.23-9.1,21.1l-.35.75Z"/><path class="cls-1" d="M51.18,102.29c2.89,0,3.15,1.83,2.45,3.3-.92,1.93-7.51,11.26-8.12,14s-9,20.88-9,20.88-9.23-1.72-8.31-12.57,13.48-23.32,19.57-25a12.55,12.55,0,0,1,3.43-.57m0-2.14h0a15.28,15.28,0,0,0-4,.65c-7.27,2.07-20.15,15.5-21.11,26.92-.85,10.1,6.2,14.13,10.05,14.85l1.63.3.7-1.5c1.42-3.07,8.54-18.5,9.17-21.32.31-1.42,3.57-6.5,5.31-9.22,1.45-2.26,2.29-3.57,2.64-4.32a4.5,4.5,0,0,0-.06-4.38c-.58-.9-1.79-2-4.31-2Z"/><path class="cls-4" d="M62.77,158.43a21.06,21.06,0,0,1-17.89-10.12h-.07a5.62,5.62,0,0,1-.63,0,7.66,7.66,0,0,1-5.45-2.29c-2-2-2.88-5.18-2.73-9.38.39-11.45,7.08-20.76,14.92-20.76a10.64,10.64,0,0,1,1.26.07l2.91.36a15.16,15.16,0,0,1,7.85-2.52h.41c4,.15,6.81,1.14,8.49,3a7.8,7.8,0,0,1,1.73,6.09c-.13,1.76-.71,2.59-1.37,2.95l1.77.88a5.06,5.06,0,0,1-.11-3c.27-1.35.68-3.39,2.73-3.39a2.54,2.54,0,0,1,.76.11c1.41.38,9.34,3.63,10.66,8.8.85,3.34.63,6-.68,8.21a11,11,0,0,1-6,4.45,4.23,4.23,0,0,1-.52,3c-2,3.64-6.23,10.1-12.41,12.5A15.51,15.51,0,0,1,62.77,158.43Z"/><path class="cls-1" d="M62.94,115.43h.35c7.47.28,9,3.55,8.69,7.39-.1,1.25-.39,1.7-.79,1.7-.81,0-2-1.83-2.86-2.27a1.07,1.07,0,0,0-.51-.13,1.45,1.45,0,0,0-.7,2.66,58.29,58.29,0,0,0,7.19,3.92,7.29,7.29,0,0,0,2.66.58,1.81,1.81,0,0,0,1.74-.77c.61-1.22-1-1.88-2.12-1.88h-.34c-1,0-1.09-1.18-.82-2.53s.42-2.1,1.16-2.1a1.08,1.08,0,0,1,.34,0c1,.28,8.41,3.27,9.53,7.66s.75,9.24-7.57,11.3a2.35,2.35,0,0,1,.47,3.18c-1.12,2-5.33,9.34-11.59,11.77a14.11,14.11,0,0,1-5,.84,19.4,19.4,0,0,1-18.26-13s0,1.87.09,2.9a3.53,3.53,0,0,1-.42,0c-1.56,0-6.9-.69-6.58-10,.35-10.41,6.22-19.21,13.32-19.21a9.42,9.42,0,0,1,1.06.06s-3.17,3.64-3,6.35c0,0,6.61-8.5,13.95-8.5m0-3.2a16,16,0,0,0-8.21,2.47l-2.35-.29a12,12,0,0,0-1.46-.09c-8.84,0-16.09,9.79-16.52,22.3-.16,4.66.91,8.21,3.18,10.55A9.29,9.29,0,0,0,44,150,22.67,22.67,0,0,0,62.77,160,17.15,17.15,0,0,0,68.93,159c6.65-2.58,11.15-9.39,13.24-13.22a6.27,6.27,0,0,0,.78-2.69,11.79,11.79,0,0,0,5.75-4.69c1.54-2.57,1.82-5.65.86-9.42-1.72-6.71-11.69-9.93-11.79-10a4.36,4.36,0,0,0-1.18-.16,4,4,0,0,0-1.73.36,8.24,8.24,0,0,0-1.82-3.4c-2-2.22-5.14-3.38-9.63-3.54Z"/><path class="cls-4" d="M44.51,143.83s0,1.87.09,2.9c0,0-7.38.93-7-10S44.41,116.65,52,117.58c0,0-3.17,3.64-3,6.35,0,0,6.82-8.78,14.3-8.5s9,3.55,8.69,7.39-2.43.09-3.65-.57a1.41,1.41,0,0,0-1.21,2.53,58.29,58.29,0,0,0,7.19,3.92c1,.47,3.74,1.12,4.4-.19s-1.22-2-2.34-1.87-1.22-1.12-.94-2.52.47-2.33,1.5-2.05,8.41,3.27,9.53,7.66.75,9.24-7.57,11.3a2.35,2.35,0,0,1,.47,3.18c-1.12,2-5.33,9.34-11.59,11.77S49,156,44.51,143.83Z"/><path class="cls-1" d="M59.93,139.07s-3.83-2-3.65-3.09.56-.74,3.27-.65,7.85,1.31,7.66,3.55S65.34,142.71,59.93,139.07Z"/><path class="cls-1" d="M56.75,148.53s-3.83-2-3.65-3.08.57-.75,3.27-.66,7.85,1.32,7.66,3.56S62.17,152.18,56.75,148.53Z"/><path class="cls-7" d="M93.83,146.66a1.46,1.46,0,0,1-.3,0c-3-.34-4-5.23-3.42-9.88.49-4.27,2.35-8.87,5.28-8.87l.29,0c.83.09,2.33.69,3.11,3.59a17.32,17.32,0,0,1,.31,6.29C98.61,142.06,96.75,146.66,93.83,146.66Z"/><path class="cls-1" d="M95.39,129.23h.14c1.75.2,2.76,4,2.24,8.41s-2.24,7.69-3.94,7.69h-.15c-1.75-.2-2.75-4-2.24-8.41s2.24-7.68,4-7.68m0-2.67h0c-2.52,0-5.75,2.63-6.6,10.05s1.69,11,4.58,11.36a3.62,3.62,0,0,0,.46,0c2.51,0,5.74-2.63,6.59-10a18.7,18.7,0,0,0-.34-6.79c-1-3.67-3.08-4.44-4.25-4.57a3.15,3.15,0,0,0-.44,0Z"/><path class="cls-3" d="M23.68,197.14c-8.86,0-13.12-1.21-15.18-4.31-.54-.8-1.65-2.46-.73-4.18A3.11,3.11,0,0,1,10.66,187a13.78,13.78,0,0,1,3.34.61c2.23.58,9.74.94,14,1l1.82,0a57,57,0,0,0,7.51-.57c1.25-.15,2.33-.29,3.31-.33a4.05,4.05,0,0,0,1.62-.75,3.74,3.74,0,0,1,2.11-.78h1.42l.86,1.21c.9,1.34.35,2.69-.18,4-2,5-10.19,5.5-21.48,5.64Z"/><path class="cls-1" d="M44.32,189c.18,0,.09.38-.37,1.52-1.37,3.36-9.09,3.86-19.05,4H23.68c-9,0-11.78-1.33-13-3.12-.78-1.15-.88-1.64-.06-1.64a13.28,13.28,0,0,1,2.67.52c3.36.87,14.56,1.12,14.56,1.12.65,0,1.28,0,1.88,0,4.89,0,8.51-.8,10.94-.91C42.52,190.4,44,189,44.32,189m0-5.34a6.26,6.26,0,0,0-3.56,1.21c-.16.1-.39.26-.54.34-1,.05-2.07.19-3.27.34a56.42,56.42,0,0,1-7.18.55c-.55,0-1.11,0-1.65,0H28c-5.09-.12-11.64-.51-13.35-1a16.08,16.08,0,0,0-4-.69,5.79,5.79,0,0,0-5.24,3c-1.67,3.13.23,6,.86,6.92,3,4.56,9.15,5.49,17.4,5.49H25c12.32-.16,21.25-.77,23.92-7.31.6-1.48,1.61-4-.08-6.48a5.43,5.43,0,0,0-4.49-2.39Z"/><path class="cls-2" d="M25.9,192c-8.82,0-15.25-2.07-19.12-6.15-3-3.12-4.35-7.32-4.08-12.47.66-12.73,9.18-15.62,15.14-16.27a5.91,5.91,0,0,1,.07-3.32l0-.14c.93-4.17,6.59-4.17,8.45-4.17a47.82,47.82,0,0,1,6.34.49c6.89.93,17.25,5.33,17.62,11.83A5.55,5.55,0,0,1,48.84,166l-.24.24c1,1.17,1.95,3.4,1.49,11.19C49.25,192,34.06,192,25.9,192Z"/><path class="cls-1" d="M26.39,152.18a45.71,45.71,0,0,1,6,.46c6.47.87,15.06,4.85,15.31,9.33.21,3.67-5.17,4-7.14,4-.43,0-.7,0-.7,0,1,1.62,6.1,1.86,6.1,1.86a.41.41,0,0,1,.19,0c.51,0,1.81.82,1.3,9.51-.62,10.7-10,12.07-21.53,12.07S4.74,185.62,5.36,173.55s8.71-13.94,16.8-13.94,17.18,8.84,17.18,8.84c-6.47-9.83-10.08-9.83-14.81-10.58s-4.48-1.37-4-3.61c.32-1.47,2.53-2.08,5.84-2.08m0-5.34c-4.4,0-9.9,1.09-11,6.26l0,.14a14.35,14.35,0,0,0-.3,1.7C5.59,156.88.56,163,0,173.28c-.31,5.9,1.31,10.76,4.8,14.44,4.4,4.63,11.48,7,21.06,7,8.4,0,25.86,0,26.86-17.1.31-5.38.05-8.81-.93-11.12A8.35,8.35,0,0,0,53,161.68c-.48-8.55-12.47-13.32-19.93-14.32a49.68,49.68,0,0,0-6.69-.52Z"/><path class="cls-3" d="M27.89,191.35s-11.2-.25-14.56-1.12-3.86-.74-2.61,1.12,4.23,3.24,14.18,3.11,17.68-.62,19.05-4-.5-.13-3.24,0S33.74,191.6,27.89,191.35Z"/><path class="cls-2" d="M39.34,168.45s-9.08-8.84-17.18-8.84S6,161.48,5.36,173.55s9,15.81,20.54,15.81S46.81,188,47.43,177.29s-1.49-9.47-1.49-9.47-5.1-.24-6.1-1.86c0,0,8.09.5,7.84-4s-8.84-8.46-15.31-9.33S21,152,20.55,154.26s-.75,2.86,4,3.61S32.87,158.62,39.34,168.45Z"/></g><g id="head"><path class="cls-8" d="M41.28,97C40,97,35,95.68,34.62,93.38A4,4,0,0,1,36.38,89,7.87,7.87,0,0,1,40,88.3c2.89,0,6.66.64,8.59,2.44l1.16,1.08-1.26,1c-1.93,1.48-5.41,4-6.86,4.19Z"/><path class="cls-1" d="M40,89.63c2.59,0,6.08.59,7.68,2.09,0,0-4.9,3.76-6.21,3.93h-.22c-1.5,0-5.19-1.38-5.34-2.47a2.72,2.72,0,0,1,1.14-3.11,6.92,6.92,0,0,1,3-.45M40,87h0c-3,0-4,.64-4.36.85a5.37,5.37,0,0,0-2.37,5.75c.5,3.51,6.69,4.75,8,4.75a4.68,4.68,0,0,0,.55,0c.5-.06,2-.25,7.51-4.45l2.49-1.92-2.3-2.15c-2.78-2.6-8-2.8-9.5-2.8Z"/><path class="cls-9" d="M94.31,109.63c-.07,0-6.76-.16-12.24-.16-6.55,0-15.67-4.08-19.28-5.83-5.11-2.48-11.66-9.32-13.43-12.31h-.45c-3.78,0-13.26-.68-19.62-7A17,17,0,0,1,24.48,69,15.35,15.35,0,0,1,33.72,57.7a13.68,13.68,0,0,1,5.41-1.14c7.78,0,14,6.55,16.81,11.47l7.7-20.69,60.6-3.05L122.55,50l-.47,18.49a28.56,28.56,0,0,1,6.84,3c5.11,3.19,7.66,7.54,7.37,12.56-.6,10.36-6.93,16.55-16.93,16.55-7.38,0-19.65,0-22.33-7.27a60.77,60.77,0,0,1-10.22-10c-2.25-2.7-3.84-4.07-4.74-4.07-.47,0-.94.45-1.67,1.18-.22.23-.46.47-.72.7-1,1,.46,5,2,7.59l12.16,6.83,1.69,14Z"/><path class="cls-1" d="M122.8,45.43l-1.31,4.41L121,69.31S135.88,72.75,135.22,84s-7.85,15.54-15.86,15.54-19.3-.16-21.43-6.87a57.63,57.63,0,0,1-10.3-10c-2.78-3.35-4.38-4.45-5.56-4.45s-2,1.1-3.11,2.16c-2.29,2.13,2,9.16,2,9.16L92.86,96.3l1.47,12.27s-6.7-.16-12.26-.16-13.42-3.12-18.82-5.73S50.82,92.37,50,90.25c0,0-.39,0-1.09,0-3.19,0-12.68-.56-18.86-6.74C22.52,76,23.83,63.09,34.14,58.68a12.5,12.5,0,0,1,5-1c8.24,0,15.15,8.23,16.92,13.15L64.4,48.37l58.4-2.94m2.89-2.29-3,.16-58.4,2.94-1.4.07-.49,1.32-6.71,18c-3.31-4.8-9.31-10.14-16.56-10.14a14.69,14.69,0,0,0-5.83,1.22,16.42,16.42,0,0,0-9.87,12.1,18.15,18.15,0,0,0,5.11,16.23c6.56,6.56,16.23,7.34,20.24,7.36,2.33,3.54,8.73,9.85,13.54,12.19,4.58,2.22,13.22,5.94,19.75,5.94,5.47,0,12.14.16,12.21.16l2.46.06-.29-2.45L95,96,94.85,95l-.94-.53L82.47,88c-1.36-2.41-2.33-5.28-2-6.06l.71-.7a7.33,7.33,0,0,1,.94-.85c.22.06,1.25.5,3.89,3.67A62.59,62.59,0,0,0,96.15,94c3.14,7.67,15.65,7.67,23.21,7.67,10.63,0,17.36-6.57,18-17.56.32-5.44-2.4-10.12-7.87-13.52a29.31,29.31,0,0,0-6.31-2.91l.44-17.54L124.84,46l.85-2.9Z"/><path class="cls-8" d="M61.64,78.49c-2.34,0-4.67-2.82-6.21-5.18C53,69.64,50.7,59.54,51.75,57.43c.71-1.41,6.52-5.63,9.92-8l2.23-1.57-.13,2.72c-.48,10.15,1.7,13.63,2.41,14.77a10.74,10.74,0,0,0,1,1.1c1.48,1.48,4,3.95,2.19,6.3a4.2,4.2,0,0,1-3.55,1.61h0q-.42,0-.81,0h-.24c0,.17-.07.36-.1.51-.2,1.11-.48,2.62-1.75,3.34A2.51,2.51,0,0,1,61.64,78.49Z"/><path class="cls-1" d="M62.44,50.5C61.94,61,64.24,64.73,65.05,66s4.74,3.92,3.27,5.89A2.88,2.88,0,0,1,65.83,73c-.48,0-.93-.05-1.29-.05s-.66.06-.8.28c-.49.81-.32,3.1-1.47,3.76a1.23,1.23,0,0,1-.63.16c-1.22,0-3-1.43-5.09-4.58C54.09,68.82,52.29,59.33,53,58s9.49-7.52,9.49-7.52m2.91-5.32L60.9,48.32c-9.38,6.6-10,7.94-10.34,8.51s-1,2,.42,8.14c.41,1.81,1.55,6.33,3.33,9.07,2.51,3.84,5,5.78,7.33,5.78a3.93,3.93,0,0,0,2-.51,5.11,5.11,0,0,0,2.27-3.63,5.46,5.46,0,0,0,4.59-2.15c2.45-3.28-.77-6.5-2.32-8a10.06,10.06,0,0,1-.84-.88c-1.76-2.81-2.5-7.52-2.2-14l.25-5.44Z"/><path class="cls-8" d="M109.26,110.4H109a12.64,12.64,0,0,1-5.18-2,8.87,8.87,0,0,1-4.19,1,9.6,9.6,0,0,1-1.75-.17,11.14,11.14,0,0,1-6.12-4h0c-.78,0-1.5.06-2.18.06a9.34,9.34,0,0,1-8-3.66,8,8,0,0,1-1-8.52A17.12,17.12,0,0,1,77,88.43c-1.55-2.83-.89-6.79,1.84-11.16a1.72,1.72,0,0,1,1.46-.85c1.17,0,2,1.07,3.42,3a37.66,37.66,0,0,0,4,4.78c2.81,2.69,7.93,4.38,10.4,5.2a9.57,9.57,0,0,1,1.79.68A5,5,0,0,1,101.45,92a19.13,19.13,0,0,0,3.62,4.77c2.46,2.35,9.72,4.46,12.3,5.07a1.33,1.33,0,0,1,.07,2.58l-1.84.54a5.8,5.8,0,0,1-1.45,3,7,7,0,0,1-4.89,2.45Z"/><path class="cls-1" d="M80.27,77.76c1,0,3.07,4.09,6.54,7.42,3.92,3.76,11.61,5.56,12.43,6s1.64,3.44,4.91,6.54,12.92,5.4,12.92,5.4l-2.78.82c.31,2.54-2.75,5.08-5,5.08h-.21c-2.29-.17-5.23-2.29-5.23-2.29a7.31,7.31,0,0,1-4.23,1.29,7.4,7.4,0,0,1-1.5-.15c-3.43-.65-5.72-4.09-5.72-4.09-1,0-2,.09-2.83.09a8,8,0,0,1-7-3.19c-3.12-3.6-.33-8-.33-8a13.49,13.49,0,0,1-4.09-4.91c-2-3.6,1-8.5,1.8-9.81a.38.38,0,0,1,.33-.22m0-2.67a3.06,3.06,0,0,0-2.59,1.47c-3,4.8-3.67,9.24-1.88,12.51A19.5,19.5,0,0,0,79,93.42a9,9,0,0,0,1.57,9,10.61,10.61,0,0,0,9,4.12c.51,0,1,0,1.58,0a12,12,0,0,0,6.47,4,10.5,10.5,0,0,0,2,.19,10.3,10.3,0,0,0,4.12-.85,12.94,12.94,0,0,0,5.15,1.85h.4a8.25,8.25,0,0,0,5.89-2.9,7.44,7.44,0,0,0,1.58-2.78l1.09-.32a2.67,2.67,0,0,0-.13-5.16c-3.47-.82-9.71-2.83-11.71-4.73a18.27,18.27,0,0,1-3.38-4.48,6.06,6.06,0,0,0-2-2.42,11.24,11.24,0,0,0-2.06-.8c-2.38-.78-7.31-2.41-9.9-4.89a36.83,36.83,0,0,1-3.89-4.61c-1.59-2.14-2.65-3.55-4.49-3.55Z"/><path class="cls-1" d="M93,50.38a1.87,1.87,0,0,0-3,2.17l2.11,3c-1.63,1-3,4.56-3.17,8.84-.24,5.15,1.24,9.4,3.31,9.5s3.94-4,4.19-9.14a22.62,22.62,0,0,0-.08-3.22l1.46,2.07a1.87,1.87,0,0,0,3-2.16Z"/><path class="cls-1" d="M123.51,46.26a1.86,1.86,0,0,0-2.11,1.18c-.62,1.1-5.36,7.34-9.68,12.83a1.87,1.87,0,0,0,.32,2.62l0,0a22.66,22.66,0,0,0-.39,3.23,20.3,20.3,0,0,0,0,2.21H119c.08-.6.13-1.22.16-1.86a15.72,15.72,0,0,0-1.36-7.94c6.94-8.95,7.08-9.66,7.17-10.09A1.87,1.87,0,0,0,123.51,46.26Z"/><path class="cls-5" d="M27.76,60a1.31,1.31,0,0,1-.44-.07,1.33,1.33,0,0,1-.86-.95c-1.84-7.54,1.28-14.66,7.76-17.71a21.55,21.55,0,0,1,9.07-2,19.55,19.55,0,0,1,2,.1A113.13,113.13,0,0,1,63,19.9C75.65,8.6,91.36,5.52,99.59,4.68a27.69,27.69,0,0,1,2.86-.15c9.84,0,18.23,5.32,21.9,13.87,3.59,8.38.5,18.19.37,18.6a1.34,1.34,0,0,1-1.27.93l-.21,0a117.15,117.15,0,0,0-18.41-1.52c-38.7,0-55.23,21.88-55.39,22.1a1.34,1.34,0,0,1-.92.53h-.15a1.31,1.31,0,0,1-.86-.32,15.43,15.43,0,0,0-8.37-2.63h-.6c-5.23,0-9.91,3.62-10,3.66A1.38,1.38,0,0,1,27.76,60Z"/><path class="cls-1" d="M102.45,5.87c10,0,17.52,5.7,20.67,13.06,3.44,8,.33,17.66.33,17.66a119.15,119.15,0,0,0-18.62-1.53C65,35.06,48.37,57.7,48.37,57.7s-3.11-2.62-9.16-3l-.67,0c-5.78,0-10.78,4-10.78,4-1.8-7.37,1.47-13.58,7-16.2a20.26,20.26,0,0,1,8.5-1.81,16.64,16.64,0,0,1,2.62.18c1.64-2.46,7.2-10.31,18-20S88.44,7.15,99.73,6a25.43,25.43,0,0,1,2.72-.14m0-2.67h0c-1,0-2,0-3,.15-8.4.86-24.42,4-37.33,15.55A117.25,117.25,0,0,0,44.61,38c-.39,0-.83,0-1.32,0a22.93,22.93,0,0,0-9.64,2.07c-7.07,3.33-10.48,11.06-8.48,19.24a2.66,2.66,0,0,0,1.72,1.89,2.61,2.61,0,0,0,.87.15,2.66,2.66,0,0,0,1.65-.58s4.38-3.37,9.13-3.37h.52c5,.28,7.51,2.26,7.61,2.35a2.65,2.65,0,0,0,1.7.61,1.67,1.67,0,0,0,.32,0,2.64,2.64,0,0,0,1.83-1.07c.15-.21,16.44-21.56,54.31-21.56A115.81,115.81,0,0,1,123,39.23a3,3,0,0,0,.42,0A2.67,2.67,0,0,0,126,37.41c.14-.43,3.37-10.7-.42-19.53S112.68,3.2,102.45,3.2Z"/><path class="cls-4" d="M108.15,44.86c-7.75,0-14.07-6.83-14.07-15.22s6.32-15.21,14.07-15.21,14.08,6.82,14.08,15.21S115.91,44.86,108.15,44.86Z"/><path class="cls-1" d="M108.15,15.5c7.18,0,13,6.33,13,14.14s-5.83,14.15-13,14.15-13-6.33-13-14.15,5.82-14.14,13-14.14m0-2.14C99.81,13.36,93,20.67,93,29.64s6.79,16.28,15.13,16.28,15.14-7.3,15.14-16.28-6.79-16.28-15.14-16.28Z"/><polygon class="cls-5" points="113.83 34.89 112.72 29.33 109.33 33.22 106 28.28 103.69 34.4 99.7 32.9 104.92 19.06 109.76 26.23 115.2 19.98 118.01 34.05 113.83 34.89"/><path class="cls-5" d="M80.5,53.33c-9,0-14.58-1.57-17-4.81a1.35,1.35,0,0,1-.25-1,1.3,1.3,0,0,1,.53-.87c.5-.37,12.56-9.09,39-10.57.07,0,1.74-.1,4.4-.1,6.66,0,19.1.61,27.65,4.64,12.17,5.75,13.52,8.68,13.25,9.92-.1.42-.5,1.41-2.18,1.41a9,9,0,0,1-2.14-.32,69.82,69.82,0,0,0-18.48-2.28A125.52,125.52,0,0,0,107,50.84C95.49,52.54,87.08,53.33,80.5,53.33Z"/><path class="cls-1" d="M107.16,37.31c6.46,0,18.74.58,27.08,4.52,10.23,4.82,14.53,8.79,11.64,8.79a7.71,7.71,0,0,1-1.82-.29A71.52,71.52,0,0,0,125.26,48a125.63,125.63,0,0,0-18.5,1.5C96.78,51,87.72,52,80.5,52c-7.92,0-13.63-1.2-15.94-4.28,0,0,11.94-8.83,38.28-10.31,0,0,1.67-.1,4.32-.1m0-2.66h0c-2.7,0-4.41.1-4.48.1C75.87,36.25,63.49,45.19,63,45.57a2.66,2.66,0,0,0-.55,3.75C65.16,53,70.9,54.67,80.5,54.67c6.65,0,15.12-.8,26.66-2.52a125.43,125.43,0,0,1,18.1-1.47,68.74,68.74,0,0,1,18.15,2.24,10.26,10.26,0,0,0,2.47.37,3.28,3.28,0,0,0,3.48-2.46c.29-1.31,1-4.35-14-11.41-8.79-4.15-21.45-4.77-28.22-4.77Z"/><path class="cls-1" d="M37.66,64.25s10.05,1.81,10.05,11-9.85,9.59-12.77,4.93a9.83,9.83,0,0,0,7.13.32c3.76-1.36,4.8-6.93-2.78-8.62a7.66,7.66,0,0,1,4.34.65S44.93,70.79,37.66,64.25Z"/><path class="cls-1" d="M104.27,74s5.33-9.31,21.14-7.91l-1.22,3.74S115.63,67,104.27,74Z"/><path class="cls-1" d="M42.79,46.22a.93.93,0,0,1-.29,0,.81.81,0,0,1-.45-1c.09-.22,2.25-5.58,8.23-13,5.5-6.79,15.42-16.63,31.43-25a.8.8,0,1,1,.74,1.42C52.31,24.3,43.62,45.51,43.54,45.72A.81.81,0,0,1,42.79,46.22Z"/></g></g></g></svg>