<svg xmlns="http://www.w3.org/2000/svg" viewBox="0 0 217.63 214.41"><defs><style>.cls-1{fill:#fff200;}.cls-2{fill:#231f20;}.cls-3{fill:#fff;}</style></defs><g id="Layer_2" data-name="Layer 2"><g id="Vector_Graphics" data-name="Vector Graphics"><path class="cls-1" d="M168.26,213.07c-2.64,0-6.46-1.75-13.21-6-12.34-7.85-36.06-22-49.54-30-13.74,7.25-37.87,20.07-50.23,27.11-6.73,3.84-10.55,5.4-13.19,5.4a4.21,4.21,0,0,1-3.32-1.37c-2.23-2.55-1.53-7.93-.25-17.72L38.7,189c1.69-13,6.94-41,10-57C36.41,119.71,20,103.39,10.62,94.57,3,87.41.62,83.82,1.51,80.88c1.09-3.61,6.84-4.58,17.28-6.36l1.45-.24c11.05-1.89,33.27-4.49,50.26-6.38C77.64,53.33,90.22,28,96.63,16.7l.72-1.28c5.16-9.08,8-14.08,11.66-14.08,3.15,0,5.76,3.46,10,13.23,6,13.85,18.3,40.19,25.33,55.11,15,2.42,41.27,6.74,53.49,9.46l1.43.32c10.34,2.29,16,3.56,16.94,7.21.74,3-1.82,6.44-9.78,13.22-10,8.49-27.74,24.48-41.09,36.58,2.24,15.83,6,43.47,7,56.23l.11,1.47c.8,9.76,1.23,15.14-1.05,17.61a4.09,4.09,0,0,1-3.15,1.29Z"/><path class="cls-2" d="M109,2.67c2.5,0,5,3.76,8.75,12.43C124,29.51,137.18,57.69,143.4,70.89c16.67,2.67,42.14,6.89,54.11,9.55,18.61,4.14,24,4.87,8,18.43-10.58,9-29.87,26.41-41.64,37.09,2.35,16.58,6.11,44,7.13,56.84,1,12.36,1.72,18.93-2.75,18.93-2.4,0-6.31-1.9-12.49-5.84-12.47-7.93-36.93-22.49-50.23-30.35-13.81,7.29-38.3,20.29-50.92,27.48-6.16,3.51-10.1,5.22-12.53,5.22-4.73,0-3.68-6.54-2.06-19,1.69-13,7-41.31,10.13-57.59-11.29-11.33-28.83-28.8-38.63-38-15.24-14.34-9.86-14.79,8.93-18,11.25-1.92,34.25-4.6,50.92-6.44,7.32-14.94,20-40.44,26.41-51.79C103,8.25,106,2.67,109,2.67M109,0c-4.45,0-7.42,5.24-12.82,14.76L95.47,16C89.13,27.18,76.83,52,69.62,66.65,52.72,68.54,30.93,71.1,20,73l-1.46.25C7.6,75.07,1.56,76.1.23,80.5c-1.21,4,2.39,8.38,9.47,15,9.24,8.69,25.33,24.69,37.57,37C44.18,148.62,39,176,37.38,188.85l-.19,1.47c-1.33,10.17-2.06,15.77.58,18.77a5.53,5.53,0,0,0,4.32,1.83c2.89,0,6.9-1.62,13.85-5.58,12.14-6.92,35.69-19.43,49.53-26.74,13.58,8,36.74,21.83,48.86,29.55,7.08,4.5,11,6.26,13.93,6.26a5.43,5.43,0,0,0,4.14-1.73c2.67-2.9,2.22-8.48,1.4-18.61l-.12-1.48c-1-12-4.27-36.58-7-55.6,13.28-12,30.69-27.71,40.53-36.09,7.41-6.29,11.23-10.48,10.22-14.55-1.11-4.46-7.09-5.79-17.95-8.19l-1.43-.32c-12.06-2.69-37.72-6.93-52.88-9.37-7.06-15-19.12-40.8-25-54.43C116.28,4.93,113.33,0,109,0Z"/><path class="cls-2" d="M98.59,103.15c0,12.67-3.29,22.94-7.34,22.94s-7.35-10.27-7.35-22.94,3.29-22.92,7.35-22.92S98.59,90.49,98.59,103.15Z"/><path class="cls-3" d="M94.43,93.57c0,4.39-1.43,8-3.18,8s-3.18-3.56-3.18-8,1.42-8,3.18-8S94.43,89.17,94.43,93.57Z"/><path class="cls-2" d="M129.62,103.15c0,12.67-3.3,22.94-7.35,22.94s-7.35-10.27-7.35-22.94,3.29-22.92,7.35-22.92S129.62,90.49,129.62,103.15Z"/><path class="cls-3" d="M125.45,93.57c0,4.39-1.42,8-3.18,8s-3.18-3.56-3.18-8,1.42-8,3.18-8S125.45,89.17,125.45,93.57Z"/></g></g></svg>