<svg xmlns="http://www.w3.org/2000/svg" xmlns:xlink="http://www.w3.org/1999/xlink" viewBox="0 0 169.89 229.28"><defs><style>.cls-1{fill:none;}.cls-2{fill:#804e9d;}.cls-3{fill:#231f20;}.cls-4{fill:#f7a21b;}.cls-5{fill:#f1d1ba;}.cls-6{fill:#b26056;}.cls-7{fill:#fff;}.cls-8{clip-path:url(#clip-path);}.cls-9{fill:#ed1c24;}</style><clipPath id="clip-path" transform="translate(14.67 29.47)"><path class="cls-1" d="M128.07,56.3c0,28.53-26.54,51.66-59.29,51.66S9.51,84.83,9.51,56.3,36.05,4.64,68.78,4.64,128.07,27.77,128.07,56.3Z"/></clipPath></defs><g id="Layer_2" data-name="Layer 2"><g id="Vector_Graphics" data-name="Vector Graphics"><path class="cls-2" d="M87.37,152.49l-14.15-.79a2.65,2.65,0,0,1-2.51-2.64V123.11A2.65,2.65,0,0,1,72,120.82a5,5,0,0,1,2.56-.7c7.42,0,12.89,18.24,15.49,29.11a2.64,2.64,0,0,1-2.57,3.26Z" transform="translate(14.67 29.47)"/><path class="cls-3" d="M74.6,122.76c6.44,0,12.92,27.09,12.92,27.09l-14.15-.79V123.11a2.5,2.5,0,0,1,1.23-.35m0-5.29a7.67,7.67,0,0,0-3.88,1,5.31,5.31,0,0,0-2.65,4.59v26a5.3,5.3,0,0,0,5,5.29l14.15.78h.3a5.29,5.29,0,0,0,5.15-6.53c-.07-.28-1.72-7.13-4.21-14.09-4.28-12-8.43-17.05-13.86-17.05Z" transform="translate(14.67 29.47)"/><path class="cls-4" d="M87.72,156.56l-18.64-1.3a2.66,2.66,0,0,1-2.47-2.63l-.21-28.84A2.65,2.65,0,0,1,69,121.12l3.33,0A2.66,2.66,0,0,1,75,123.72l.17,23.33,13.14.92a2.64,2.64,0,0,1,2.45,2.83l-.23,3.31a2.64,2.64,0,0,1-2.64,2.46Z" transform="translate(14.67 29.47)"/><path class="cls-3" d="M72.36,123.74l.19,25.78,15.58,1.1-.23,3.3-18.64-1.31-.21-28.85,3.31,0m0-5.3h0l-3.31,0a5.3,5.3,0,0,0-5.26,5.33L64,152.65a5.31,5.31,0,0,0,4.93,5.25l18.64,1.31h.37a5.3,5.3,0,0,0,5.29-4.93l.23-3.3a5.31,5.31,0,0,0-4.92-5.66l-10.69-.75-.15-20.88a5.31,5.31,0,0,0-5.3-5.26Z" transform="translate(14.67 29.47)"/><path class="cls-2" d="M39.35,146.21a3.51,3.51,0,0,1-.55-.05l-13.27-2.83a2.65,2.65,0,0,1-1.77-3.86c3.82-7,13.45-23.23,20.43-23.23a4.91,4.91,0,0,1,3.55,1.5,2.65,2.65,0,0,1,.68,2.56l-6.51,24A2.65,2.65,0,0,1,39.35,146.21Z" transform="translate(14.67 29.47)"/><path class="cls-3" d="M44.19,118.89a2.28,2.28,0,0,1,1.67.71l-6.51,24-13.26-2.82S38,118.89,44.19,118.89m0-5.3h0c-4.66,0-9.36,4-15.73,13.22-3.87,5.62-6.9,11.16-7,11.39A5.29,5.29,0,0,0,25,145.92l13.27,2.82a4.63,4.63,0,0,0,1.1.12A5.31,5.31,0,0,0,44.47,145L51,121a5.29,5.29,0,0,0-1.35-5.12,7.61,7.61,0,0,0-5.43-2.28Z" transform="translate(14.67 29.47)"/><path class="cls-4" d="M42.25,150.52a2.21,2.21,0,0,1-.51-.05L24.2,147a2.64,2.64,0,0,1-2.09-3.11l.62-3.1a2.63,2.63,0,0,1,1.12-1.69,2.61,2.61,0,0,1,1.48-.45,2.94,2.94,0,0,1,.51,0l12.26,2.42,6-21.4a2.65,2.65,0,0,1,2.55-1.94,2.53,2.53,0,0,1,.71.1l3,.85A2.64,2.64,0,0,1,52.23,122L44.8,148.59A2.64,2.64,0,0,1,42.25,150.52Z" transform="translate(14.67 29.47)"/><path class="cls-3" d="M46.63,120.43l3,.86-7.43,26.58-17.54-3.46.62-3.11L40,144.19l6.64-23.76m0-5.3a5.3,5.3,0,0,0-5.1,3.88l-5.33,19-9.85-2a5,5,0,0,0-1-.1,5.31,5.31,0,0,0-5.2,4.27l-.61,3.11a5.3,5.3,0,0,0,4.17,6.23l17.53,3.46a5.21,5.21,0,0,0,1,.1,5.32,5.32,0,0,0,5.11-3.87l7.42-26.59a5.29,5.29,0,0,0-3.68-6.53l-3-.85a5.48,5.48,0,0,0-1.43-.2Z" transform="translate(14.67 29.47)"/><path class="cls-2" d="M73,149.37V122.92l.17-.09a2.78,2.78,0,0,1,1.4-.4c6.62,0,13,26.22,13.24,27.34l.1.43Z" transform="translate(14.67 29.47)"/><path class="cls-3" d="M74.6,122.76c6.44,0,12.92,27.09,12.92,27.09l-14.15-.79V123.11a2.5,2.5,0,0,1,1.23-.35m0-.66a3.14,3.14,0,0,0-1.57.44l-.33.19v27l.63,0,14.15.79.89.05-.21-.87c-.67-2.82-6.8-27.59-13.56-27.59Z" transform="translate(14.67 29.47)"/><polygon class="cls-4" points="83.6 182.4 83.39 152.91 87.36 152.88 87.55 178.69 103.15 179.78 102.87 183.75 83.6 182.4"/><path class="cls-3" d="M72.36,123.74l.19,25.78,15.58,1.1-.23,3.3-18.64-1.31-.21-28.85,3.31,0m.66-.67h-.67l-3.31,0h-.66v.66l.21,28.85v.61l.62,0,18.63,1.31.66,0,0-.67.23-3.3,0-.66-.66,0-15-1.06L73,123.73v-.66Z" transform="translate(14.67 29.47)"/><path class="cls-2" d="M25.58,141l.22-.39c.49-.9,12.1-22,18.39-22a2.62,2.62,0,0,1,1.91.81l.13.13L39.59,144Z" transform="translate(14.67 29.47)"/><path class="cls-3" d="M44.19,118.89a2.28,2.28,0,0,1,1.67.71l-6.51,24-13.26-2.82S38,118.89,44.19,118.89m0-.66h0c-6.37,0-17.44,19.92-18.68,22.19l-.43.78.87.19,13.27,2.82.61.13.16-.6,6.51-24,.1-.37-.27-.28a2.93,2.93,0,0,0-2.14-.9Z" transform="translate(14.67 29.47)"/><polygon class="cls-4" points="38.99 174.14 39.73 170.38 54.42 173.28 61.07 149.5 64.76 150.53 57.16 177.73 38.99 174.14"/><path class="cls-3" d="M46.63,120.43l3,.86-7.43,26.58-17.54-3.46.62-3.11L40,144.19l6.64-23.76m-.46-.81-.18.63-6.47,23.18-14.07-2.78-.65-.13-.12.65-.62,3.11-.13.65.65.13,17.54,3.46.6.12.17-.59,7.43-26.59.18-.63-.64-.18-3-.85-.64-.18Z" transform="translate(14.67 29.47)"/><path class="cls-5" d="M40.49,135.4a10.18,10.18,0,0,1-3.57-.74c-9.78-3.74-17.58-13.46-19.83-16.49H17c-12.11,0-13.85-3.47-14-3.87a3.3,3.3,0,0,1,.16-2.94,2.84,2.84,0,0,1,.22-.34,3.61,3.61,0,0,1-1.34-2,2.56,2.56,0,0,1,.47-2.15,3.53,3.53,0,0,1,1.33-1A3.5,3.5,0,0,1,3,102.29a3.18,3.18,0,0,1,3-1.93,3.46,3.46,0,0,1,0-1.6,2.88,2.88,0,0,1,1.79-2,4,4,0,0,1,1.43-.24,15.27,15.27,0,0,1,7.39,2.73c1.57-3.81,3-3.81,3.87-3.81h.26c.93.09,3.7.35,5,11.33l20.07,10,.22.9c.27,1.12,2.53,11.11-.94,15.51a5.64,5.64,0,0,1-4.59,2.17Z" transform="translate(14.67 29.47)"/><path class="cls-3" d="M20.47,97.44h.07c2.26.21,3.34,10.64,3.34,10.64l20.2,10.1s3.66,15.23-3.59,15.23a8.08,8.08,0,0,1-2.85-.61c-11-4.19-19.57-16.66-19.57-16.66a9.69,9.69,0,0,1-1.06,0c-3.32,0-11.4-.73-12.16-2.62C4,111.41,8,110.77,8,110.77s-3.66-.76-4-2.15S8.4,107,8.4,107s-4.2-2.37-3.55-4c.21-.52.77-.69,1.45-.69a11.19,11.19,0,0,1,3.39.8S6.57,99.37,8.5,98.62a2.08,2.08,0,0,1,.71-.11c2.56,0,8.41,2.92,7.25,4.09s-.33,5.2-.14,5.2c0,0,0,0,0,0,.11-.54,1.9-10.33,4.12-10.32m0-4h0c-1.91,0-3.43.91-4.69,3a16.42,16.42,0,0,0-6.57-1.89,6,6,0,0,0-2.15.38,4.88,4.88,0,0,0-3,3.34c0,.18-.08.35-.11.53a5,5,0,0,0-2.74,6.59,3.89,3.89,0,0,0-.27.34,4.53,4.53,0,0,0-.82,3.79A5.06,5.06,0,0,0,1,111.38,5.32,5.32,0,0,0,1.16,115C2.34,118,6,118.94,9.32,119.5a53.76,53.76,0,0,0,6.77.64C19,124,26.71,132.88,36.22,136.51a12,12,0,0,0,4.27.87,7.66,7.66,0,0,0,6.15-2.92c3.87-4.91,2-14.41,1.3-17.2l-.43-1.8-1.65-.83-18.28-9.14c-.78-6-2.34-11.6-6.66-12l-.45,0Z" transform="translate(14.67 29.47)"/><path class="cls-5" d="M44.08,118.18l-20.2-10.1S22.8,97.65,20.54,97.44s-4.08,9.78-4.19,10.32-1.18-3.87.11-5.16-6-4.73-8-4,1.19,4.52,1.19,4.52S5.5,101.42,4.85,103s3.55,4,3.55,4-4.73.21-4.41,1.61,4,2.15,4,2.15-4,.64-3.12,2.79,11.18,2.8,13.22,2.58c0,0,8.6,12.47,19.57,16.66S44.08,118.18,44.08,118.18Z" transform="translate(14.67 29.47)"/><path class="cls-5" d="M93.26,166.89h-.19c-3.22-.36-10.24-15.16-11.1-17.1h0c-.48-1.35-7.34-14.62-11.55-22.67l-1.26-2.41,2.68-.46a8.28,8.28,0,0,1,1.43-.1c13,0,20.66,14.91,23.4,21.41,1.3-.13,3.22-.29,5-.29,3.15,0,4.76.48,5.55,1.67a2.78,2.78,0,0,1,.31,2.57,3.33,3.33,0,0,1,.88.73,2.93,2.93,0,0,1,.66,2.43,3.67,3.67,0,0,1-.64,1.55,3.82,3.82,0,0,1,.5,1.91,3.93,3.93,0,0,1-.44,1.86,2.51,2.51,0,0,1,.61,1,2.65,2.65,0,0,1-.75,2.88c-1.38,1.38-4.52,1.67-6.9,1.67a23.12,23.12,0,0,1-5.12-.51,5.2,5.2,0,0,1-1,3,2.52,2.52,0,0,1-1.92.88Z" transform="translate(14.67 29.47)"/><path class="cls-3" d="M73.23,126.14c3.45,0,14.4,1.66,22.13,21.56a56.1,56.1,0,0,1,6.25-.45c1.85,0,3.49.19,3.89.8,1,1.54-3.26,2.57-3.26,2.57h.8c1.43,0,4.27.19,4,1.74-.2,1.22-1.62,1.72-2.74,1.92a7,7,0,0,0-1.38.14,8.49,8.49,0,0,0,1.38-.14h0c1.14,0,2.56.31,2.56,1.86,0,2-2.46,2.25-3.5,2.25H103c.67,0,5.48.46,3.88,2.06-.73.73-3,1.09-5.49,1.09-3.33,0-6.94-.66-7.24-2,0,0,.67,5.34-.78,5.34H93.3c-1.55-.17-9.29-14.62-9.46-15.65s-11.7-23-11.7-23a6.84,6.84,0,0,1,1.09-.07m0-4h0a10.32,10.32,0,0,0-1.77.13l-5.37.93,2.53,4.83c5.13,9.8,10.88,21,11.45,22.44a2.81,2.81,0,0,1-.15-.59c.26,1.56,3,6.61,4.68,9.47,3.63,6.36,5.51,9.18,8.25,9.48l.52,0a4.56,4.56,0,0,0,3.41-1.56,4.83,4.83,0,0,0,1.1-2,28.07,28.07,0,0,0,3.51.2c6,0,7.74-1.69,8.3-2.25a4.64,4.64,0,0,0,1.21-5,4,4,0,0,0-.25-.56,5.94,5.94,0,0,0,.21-1.57,6.17,6.17,0,0,0-.27-1.83A5.37,5.37,0,0,0,111,153a4.89,4.89,0,0,0-1.1-4l-.23-.26a4.84,4.84,0,0,0-.83-2.86c-1.5-2.25-4.34-2.56-7.2-2.56-1.25,0-2.57.08-3.71.17C89.51,124.3,78,122.16,73.23,122.16Z" transform="translate(14.67 29.47)"/><path class="cls-5" d="M72.14,126.21s13.93-2.41,23.22,21.49c0,0,9.11-1.2,10.14.35s-3.26,2.57-3.26,2.57,5.16-.34,4.81,1.73-4.12,2.06-4.12,2.06,3.95-.86,3.95,1.72-3.95,2.24-3.95,2.24,5.67.34,3.95,2.06-12.21,1.38-12.73-.86c0,0,.7,5.5-.85,5.33S84,150.28,83.84,149.25,72.14,126.21,72.14,126.21Z" transform="translate(14.67 29.47)"/><polygon class="cls-5" points="51.33 164.59 62.92 142.07 88.42 147.04 93.39 179.5 51.33 164.59"/><path class="cls-6" d="M84.37,198.15c-12.47,0-22.62-7.51-22.62-16.73S71.9,164.7,84.37,164.7,107,172.2,107,181.42,96.84,198.15,84.37,198.15Z" transform="translate(14.67 29.47)"/><path class="cls-3" d="M84.37,166.36c11.58,0,21,6.74,21,15.06S96,196.5,84.37,196.5s-21-6.75-21-15.08,9.38-15.06,21-15.06m0-3.32C71,163,60.1,171.29,60.1,181.42S71,199.8,84.37,199.8s24.28-8.24,24.28-18.38S97.76,163,84.37,163Z" transform="translate(14.67 29.47)"/><path class="cls-6" d="M30.15,195c-11.79,0-21.1-6.58-21.65-15.31-.3-4.56,1.86-9,6.05-12.41A27.09,27.09,0,0,1,30,161.51c.67,0,1.33-.07,2-.07,11.79,0,21.1,6.59,21.66,15.32.29,4.56-1.86,9-6.06,12.41a27.16,27.16,0,0,1-15.45,5.72C31.47,194.93,30.81,195,30.15,195Z" transform="translate(14.67 29.47)"/><path class="cls-3" d="M32,163.1c10.72,0,19.51,5.91,20,13.76.53,8.31-8.4,15.64-20,16.38-.63,0-1.26.06-1.88.06-10.72,0-19.5-5.91-20-13.76-.53-8.31,8.4-15.64,20-16.38.63,0,1.26-.06,1.88-.06m0-3.31h0c-.7,0-1.4,0-2.09.07A28.8,28.8,0,0,0,13.5,166c-4.62,3.79-7,8.69-6.66,13.8.62,9.61,10.64,16.86,23.31,16.86.69,0,1.39,0,2.09-.07a28.86,28.86,0,0,0,16.41-6.09c4.61-3.79,7-8.69,6.65-13.8C54.69,167,44.67,159.79,32,159.79Z" transform="translate(14.67 29.47)"/><path class="cls-7" d="M56.68,176.6h-1c-15.54-.39-28-9.82-27.68-21,.27-11,12.44-19.63,27.69-19.63h1a34.42,34.42,0,0,1,19.61,6.29c5.34,4,8.2,9.21,8.07,14.72C84.1,168,71.94,176.6,56.68,176.6Z" transform="translate(14.67 29.47)"/><path class="cls-3" d="M55.71,137.26h1c14.83.37,26.64,9.17,26.38,19.66-.25,10.27-12,18.34-26.37,18.34h-1c-14.83-.37-26.64-9.17-26.38-19.66.25-10.26,12-18.34,26.36-18.34m0-2.65h0c-16,0-28.72,9.19-29,20.93-.3,11.93,12.7,22,29,22.37h1c16,0,28.73-9.19,29-20.92.15-6-2.91-11.58-8.6-15.82a35.71,35.71,0,0,0-20.37-6.56Z" transform="translate(14.67 29.47)"/><path class="cls-2" d="M73.37,123.11v26l14.15.79S80.18,119.18,73.37,123.11Z" transform="translate(14.67 29.47)"/><path class="cls-3" d="M87.52,152.49h-.15l-14.15-.79a2.65,2.65,0,0,1-2.51-2.64V123.11A2.65,2.65,0,0,1,72,120.82a5,5,0,0,1,2.56-.7c7.42,0,12.89,18.24,15.49,29.11a2.64,2.64,0,0,1-2.57,3.26ZM76,146.55l8,.45c-2.44-9.05-5.71-17.25-8-20.33Z" transform="translate(14.67 29.47)"/><polygon class="cls-4" points="102.57 183.39 83.93 182.08 83.72 153.24 87.03 153.21 87.22 179 102.8 180.09 102.57 183.39 102.57 183.39"/><path class="cls-3" d="M87.9,156.57h-.18l-18.64-1.3a2.66,2.66,0,0,1-2.47-2.63l-.21-28.84A2.65,2.65,0,0,1,69,121.12l3.31,0h0A2.66,2.66,0,0,1,75,123.72l.17,23.33,13.14.92a2.64,2.64,0,0,1,2.45,2.83l-.23,3.31a2.64,2.64,0,0,1-2.64,2.46Z" transform="translate(14.67 29.47)"/><path class="cls-2" d="M45.86,119.6l-6.51,24-13.26-2.82S40.55,114.26,45.86,119.6Z" transform="translate(14.67 29.47)"/><path class="cls-3" d="M39.35,146.21a3.51,3.51,0,0,1-.55-.05l-13.27-2.83a2.65,2.65,0,0,1-1.77-3.86c3.82-7,13.45-23.23,20.43-23.23a4.91,4.91,0,0,1,3.55,1.5,2.65,2.65,0,0,1,.68,2.56l-6.51,24A2.65,2.65,0,0,1,39.35,146.21Zm-9.18-7.31,7.28,1.55,4.87-17.91C39.39,125,34.52,131.47,30.17,138.9Z" transform="translate(14.67 29.47)"/><polygon class="cls-4" points="56.92 177.35 39.38 173.88 39.99 170.77 54.66 173.67 61.3 149.91 64.35 150.76 56.92 177.35 56.92 177.35"/><path class="cls-3" d="M42.25,150.52a2.21,2.21,0,0,1-.51-.05L24.2,147a2.64,2.64,0,0,1-2.09-3.11l.62-3.1a2.64,2.64,0,0,1,3.11-2.09l12.26,2.42,6-21.4a2.65,2.65,0,0,1,3.26-1.84l3,.85A2.64,2.64,0,0,1,52.23,122L44.8,148.59A2.64,2.64,0,0,1,42.25,150.52Z" transform="translate(14.67 29.47)"/><path class="cls-2" d="M73.37,123.11v26l14.15.79S80.18,119.18,73.37,123.11Z" transform="translate(14.67 29.47)"/><polygon class="cls-4" points="102.57 183.39 83.93 182.08 83.72 153.24 87.03 153.21 87.22 179 102.8 180.09 102.57 183.39 102.57 183.39"/><path class="cls-2" d="M45.86,119.6l-6.51,24-13.26-2.82S40.55,114.26,45.86,119.6Z" transform="translate(14.67 29.47)"/><polygon class="cls-4" points="56.92 177.35 39.38 173.88 39.99 170.77 54.66 173.67 61.3 149.91 64.35 150.76 56.92 177.35 56.92 177.35"/><path class="cls-7" d="M68.78,110.28c-34,0-61.59-24.21-61.59-54s27.63-54,61.59-54,61.6,24.22,61.6,54S102.75,110.28,68.78,110.28Z" transform="translate(14.67 29.47)"/><path class="cls-3" d="M68.78,4.64c32.75,0,59.29,23.13,59.29,51.66S101.53,108,68.78,108,9.51,84.83,9.51,56.3,36.05,4.64,68.78,4.64m0-4.64C33.54,0,4.87,25.26,4.87,56.3s28.67,56.3,63.91,56.3S132.7,87.34,132.7,56.3,104,0,68.78,0Z" transform="translate(14.67 29.47)"/><g class="cls-8"><path class="cls-9" d="M93.62,65.24a30.8,30.8,0,1,0,30.8-30.8A30.8,30.8,0,0,0,93.62,65.24Z" transform="translate(14.67 29.47)"/><path class="cls-9" d="M51.57,1.33a30.8,30.8,0,1,0,30.79-30.8A30.8,30.8,0,0,0,51.57,1.33Z" transform="translate(14.67 29.47)"/><path class="cls-9" d="M-14.67,43.05a30.8,30.8,0,1,0,30.8-30.8A30.8,30.8,0,0,0-14.67,43.05Z" transform="translate(14.67 29.47)"/></g><path class="cls-3" d="M64.49,122.5a28.64,28.64,0,0,1-4-.29c-16.69-2.4-28.13-19.16-25.52-37.35A35.84,35.84,0,0,1,39.3,72.13a1.67,1.67,0,0,1,.76-.68A58.15,58.15,0,0,1,64,65.88c1,0,2,0,3,.09,14.57,1,23.1,8,27.7,13.85a1.76,1.76,0,0,1,.32.66,35.68,35.68,0,0,1,.5,13.08c-2.37,16.5-15.68,28.94-31,28.94Z" transform="translate(14.67 29.47)"/><path class="cls-3" d="M64,67.53c.95,0,1.91,0,2.87.09,14.17.92,22.33,7.95,26.51,13.23a34.19,34.19,0,0,1,.49,12.48c-2.3,15.92-15,27.52-29.34,27.52a27.33,27.33,0,0,1-3.8-.28c-15.81-2.27-26.6-18.16-24.11-35.48A34.09,34.09,0,0,1,40.74,73,57,57,0,0,1,64,67.53m0-3.31a59.79,59.79,0,0,0-24.58,5.72,3.24,3.24,0,0,0-1.51,1.37,37.19,37.19,0,0,0-4.56,13.31c-2.75,19.1,9.32,36.7,26.91,39.23a30.56,30.56,0,0,0,4.27.31c16.1,0,30.12-13,32.62-30.36a37.45,37.45,0,0,0-.54-13.69,3.29,3.29,0,0,0-.63-1.32C91.13,72.73,82.22,65.3,67.05,64.32c-1-.07-2.06-.1-3.09-.1Z" transform="translate(14.67 29.47)"/><path class="cls-5" d="M66.83,67.62c-9.66-.62-18.74,2-26.09,5.34a34.09,34.09,0,0,0-4.16,12.13c-2.49,17.32,8.3,33.21,24.11,35.48s30.64-9.92,33.14-27.24a34.19,34.19,0,0,0-.49-12.48C89.16,75.57,81,68.54,66.83,67.62Z" transform="translate(14.67 29.47)"/><path class="cls-3" d="M79.92,84.44c-.51,3.76-2.17,6.64-3.73,6.43s-2.4-3.42-1.9-7.19S76.46,77,78,77.24,80.42,80.68,79.92,84.44Z" transform="translate(14.67 29.47)"/><path class="cls-3" d="M58.23,81.46c-.16,3.79-1.57,6.81-3.14,6.74s-2.7-3.2-2.53-7,1.57-6.82,3.14-6.75S58.4,77.66,58.23,81.46Z" transform="translate(14.67 29.47)"/><path class="cls-7" d="M78.75,81.08c0,.88-.49,1.6-1.1,1.6s-1.09-.72-1.09-1.6.49-1.59,1.09-1.59S78.75,80.2,78.75,81.08Z" transform="translate(14.67 29.47)"/><path class="cls-7" d="M56.57,77.87a1.2,1.2,0,1,1-1.19-1.38A1.3,1.3,0,0,1,56.57,77.87Z" transform="translate(14.67 29.47)"/><path class="cls-3" d="M62.94,110.83s8.16.45,10.59-9.27c0,0,1.33,1.55,1.11-1.76S72.43,95.16,72,97.15a90,90,0,0,1-10.6.44c-4-.22-5.3-1.77-4-2.43,0,0-3.54-1.55-4.2,2.87s1.33.44,2,6.4S62.05,110.39,62.94,110.83Z" transform="translate(14.67 29.47)"/><path class="cls-9" d="M56.75,103.33s5.3,11.26,13.91,1.32C70.66,104.65,64,98.47,56.75,103.33Z" transform="translate(14.67 29.47)"/></g></g></svg>